<mxfile host="app.diagrams.net" modified="2024-01-04T07:12:57.731Z" agent="Mozilla/5.0 (Windows NT 10.0; Win64; x64) AppleWebKit/537.36 (KHTML, like Gecko) Chrome/120.0.0.0 Safari/537.36" etag="GiwT4r8z0Qo4z0IMJvrP" version="22.1.16" type="github" pages="5">
  <diagram id="lU53a9T3rhlTNeN4Qro2" name="KUBERNETES-1">
    <mxGraphModel dx="4923" dy="1294" grid="1" gridSize="10" guides="1" tooltips="1" connect="1" arrows="1" fold="1" page="1" pageScale="1" pageWidth="827" pageHeight="1169" math="0" shadow="0">
      <root>
        <mxCell id="0" />
        <mxCell id="1" parent="0" />
        <mxCell id="_ZCDtcRAEFlEMNslDuW7-16" value="" style="rounded=1;whiteSpace=wrap;html=1;glass=0;sketch=1;curveFitting=1;jiggle=2;fillColor=none;" vertex="1" parent="1">
          <mxGeometry x="-1725" y="545" width="1220" height="730" as="geometry" />
        </mxCell>
        <mxCell id="_ZCDtcRAEFlEMNslDuW7-3" value="" style="image;sketch=0;aspect=fixed;html=1;points=[];align=center;fontSize=12;image=img/lib/mscae/OpenShift.svg;" vertex="1" parent="1">
          <mxGeometry x="-840" y="805" width="228.26" height="210" as="geometry" />
        </mxCell>
        <mxCell id="_ZCDtcRAEFlEMNslDuW7-23" style="edgeStyle=orthogonalEdgeStyle;shape=flexArrow;rounded=0;orthogonalLoop=1;jettySize=auto;html=1;" edge="1" parent="1" source="_ZCDtcRAEFlEMNslDuW7-5" target="_ZCDtcRAEFlEMNslDuW7-3">
          <mxGeometry relative="1" as="geometry" />
        </mxCell>
        <mxCell id="_ZCDtcRAEFlEMNslDuW7-5" value="" style="shape=image;verticalLabelPosition=bottom;labelBackgroundColor=default;verticalAlign=top;aspect=fixed;imageAspect=0;image=data:image/png,iVBORw0KGgoAAAANSUhEUgAAAOEAAADhCAYAAAA+s9J6AAAAAXNSR0IArs4c6QAAAARnQU1BAACxjwv8YQUAAAAJcEhZcwAADsMAAA7DAcdvqGQAAH2hSURBVHhe7b0HoC1ZVSa8Kp14w0vdr7sJ3dBkGAmDgmGYwWEUMTIqIFmRoIMBdEQUhUH4hUH/ccbAjIhIRkUxEGQERYISJDQ00NB0hg6vX7jv3ntSxfm+tWufU/fck+rc1K/f+e5dZ1ft2rVrh7X2WjvULifLMllggQUODm7uLrDAAgeEhRAusMABYyGECyxwwFgI4QILHDAWQrjAAgeMhRAusMABYyGECyxwwFgI4QILHDAWQrjAAgeMhRAusMABY7FsbXfhi2SHUKQ1cSRxRGKUrisZ/eEDP7hZfp7hPMZvJZN0CfUQwC9vFDPcKi78PLggJ3YcJ8Qx/DMP8eOU4RzGl+IwhQ/jsnDwkPxeRoZwfDafiFME8yXLfE2bZC4iQ/xuG7dFPEc43mfSwjTiftwIV+EibtwvuB/3ioNna74IxzwjP2K6cF3TB8CDz2e8vGpcQwxLKp4TGgbPoZ/P8kC+GWeE59r08DqvsfxYMDHzm9/jIZ8ejm1+Ml5HqJThsyytOC7T57Zdx93EtTO4dprhQPuGhRDuEKjIS9e7Jx5zzYmPPOHra599aJx2GqmkbpIkkiZphkrmv9PtdfEL9nCcDNecarUqaUrZ8Z0kSd00TiCx4PUkdRzPFXIb3agXieu74CByH8Q1xi/Yq+L74geBRGGENIDzUyMSDMfrPFepI8vift/19DyLYpUY30VI35NOu4N4fAn8qriemyZRCg4OkUpcp/hnPjKBdFI2czfJYgfpdeI0Rjp9DefxB+LJJiHlE9RNxXUgq/BHjvB0yEfu7yCRbA7wPL3fd9Eu5fcnGdqM/Hq91pAojjKUA9I1eJ5ex28lqGQs26QXImmOVH3Iou9lKfLZiyOpBxUnSpGeBOWG6wHKIXUdvR6lPQmqXlapVrMgqCPvqIauEzeC42v3u+u3fvL+d3/E62uV5vtMTe8dFkJYHpU0Sy4927rtuz5/03t/4poz//ig2Fn3KTMuGNuHcNClwBG9Xk/P250OGNIolzRLwVw1CCGb6gpcMCOFFv68zwOjMB7Pg5Dgvlx4Vdg0DP54jZSCiRMwGQWaz+G9DMtzhuUzec5rBOMg8RxqQXoQ4uH7LE/w3MZNP31mHo7+TDNh79c4mcb82TyOYwgO7vM9Uy6EvVfDgWxeCYanH8HwvGbDEXw247XPqQWVwTNB9pguwcaOz7LnvJ+gX4Rw7Qjli8auAuENEJfnBmi40NCESGtUyY7V7nPD9z7iOa9YaR77ENJzrd68y1gIYQmEcec7v3jj+3/xqyc/+O295GTTgTFzpt1GxaLywESWycgEVqjqtboyUhvhAmgugozWaKCFj3qSQZtkaPlZDyQyiTJ7Hl+329V76G8ZyIYlapU64omoLVQ4+SyG4zPCKJRGvdEPb+8heMz0UQMmOdPa68XnMA2Mm/HxGJpHXeYxToxFyHMr7IQKAf9wfxiGg/wUGiErGLyHaeY1xsfwbJR8aGmWF881fhDD2nRaqiD99CcxTkvWj0QwLGHP6bIRcv2m9KgVo03x/FSqqCJYqNLrdKXX7slS5ZB42XJ6uH639Ejt/td9830f+8cXHLnk/yCKNY1oF7AQwtmw9I3TV/3yx67+45/rZicacbLhJG5LIpg4tcaFMCMrau5Ys4dmHy0rmj/QGxLUqqhQmH1VMDD8aSY1IZxh2KWJhlqIqdvgUsvRrINJyjtRO1EIhqI5BzMMygZwnSSNYMZlGZn20MqqMioFkYxFxqXL817Yk1q1ZhgzTeALIw6/hBWERmNZBYyCRuHhdTI8Qd6gBmM8Ya4xq8gD/XiNz6ebxwmH7GSEwz6HzyjCXrNEUEAJ5qPXoxBCGKDB+KxWq+V4np950Fa4t8+vvFeFk+WFaPUH1+kSjAPI4CKo8ea99vl4JroKAcoFmpSX0R3OpItrEHphg5agWXCz9kZPqt6yeMmS1P1j6Jiupj/5uP/OPv2uYSGEU4A+312uuPndf/Cpr//l97OOOarBShJnnVfRhamjugKwH85QmWVcA3baQByvGOFm6CPZc/byii5RZDCLMnU6Lez0uEw6xiEXhrEYjh/5gRfbCuMOXx/G8PXi+bR78TQ0Rqb8TD0wPBtEppnHuMbyz3yp+c2s047RADWk4jXTf3vZ9737ofd49OvQZ3wP794JFkI4AUkaP/DD1/2fN35l7UMPzVIP9gu0UcY+A7SCtCCR6IfAFDWDnXuDcUxlj60QEuPCTsK0cNPj2V0hHEbZ6/Z8eroNtocbTi/MZFgKDvQi+otZpdKQjfWWHDt6TJ737a+fnPkZsRDCMYC5do8PfvG1f3X95scfFLldcDrLG/0SNNIuTDkvgzZkOJhEsGv0eK9QrKPh46IQEuPCjoNq2gmYJkTThHBaGnb7uj0fdZ/VrvmpYhDMHmzNL8s3DDm45At7G75fgWkcSGuzIzU5JEez+555xg+86Ic81/9Ifktp7C33nLtofO6a9/3Oyd6XHgRzFEJnBBBmICqQgxGsKNYlae+LcFjQLOg/7hox6dr5iGEBnAXs03LgrF6vSbUWSLfbhiQnsnpoGeeudNPbDu1EAImFEG6Hc2r968++cf0fv6fTOaMmpxFAViCOOT8Oogm6l2ZoEaNadYt5ry0wGzhyS2q1WjrYtbK6BN/UWV8/I1HSRg9l03nH/33F5kbr7FNxYa5WbyGEQ0A/8AGfufZPX7jWusVL3Z7xRAtKE5SFZTrt9MNZriH3EkVBGj4eFjJ7PuraAvOBmpCjtxx1TmGPbm5uShT3pFYPHD/IpBOfljObN9Tf+tf/47cRfK5CX/QJt8L/0g0ffOvVa+/64atv/IJ74SUXSk8XeejgJ0qLUwjQhOhHuUmVHugTRtCRW/sRe4GigBVBk7PoN+54NGxDMh4zxTEBd/yBmfygLz9b00sBpOBVKhVpNpswR0MVTJ6nvTjLwp443Zr84hP/du7WeG+b8XMMG62TT7mp9feP3+jc7h4+sizrrXXhmAtF0AWpJIJpIYI6cp3Co3wvoxzITKMYy/oP+1kUj8dj7xuPcx2cu1xdXdXGbn0d/ACXgkl/B5owztqydKQiv/vOn0ze/9F3fBLlfp/81pmx0IQDuP/0+ddeefXJ99+vvoJCTmNlUa69MBrDTCibdovnHBXlyhBoxh0w807Lf3gyfBhT48921q+dNng67fllrxfPp+YNmB5/frDNkjQZG38/G+NYou5aVudkfnihuKCfedLvlFZspW+4s4JTEl8/+9l7JRJJN+yohosT2KIWqgYpfGDaXADNoM25jHO3+mcRwL2GLmjnSh4fGtEN5xJAYiGEOaK4c69YOp7rs9fHxco+CtlqPxQU+4Haf6JcGtkkG9A8cRBuXjJVMD+NinN22r4WsyzdeTCoV4PR5T0gAuUfVCRx2T0J5b+//RnJez/6li+jZEqZpDa28x7oBz44dRK+dyQ+CjbKEoe2/5aCzwcxtB94p9CEC0zDqIanT2iYN1uhVGsNqS1XpZeuOydb198bzfJX89tnwkIIDZpX3fyRH47RweHbr361KmGPk/IUPA9aMIA1yr6TbSl3TwMYTTo/LbBTsC6LZDXidOJKqebSUQmjTFqdjqwcasjTv/slpTvZCyEEkjS+/NazX71/msCsgLbzfF+SLDUajxPyHJTJX8520QKy087fBe78GNXw9Qm84ToVObveIw+J4yby++96fvz12659BW81MUzHQgiBXtS+vJd0GuJWUCJ8TYfD0Pn8G01QHYwxAzJbzFC9drBEk2gSjbqnSCOZqwTd6TGizPoE8ckkkEq1iUNH3ADl4YTOe//pzS/gnXr/DGBM5z3CuH1hkvRQgtBwEMA4TsX1qpJwh5gcth9IvrbD10QmfA+NxOGcnCC81JUD4jobCAUiGSbLxvO6uwLbqJR17/BgOos0CSzRcqWKRijjS9MbGxvS6/J9S19H1J/zhJdCKmfHYp4QONO65fnv/sJL/2com07mGsGhfLClz7hUVFs+mKNkPr78yTfh9c2JfAWNVjBbRfrhHrhp/mYFX8r1/QD3IM440TfBa7UatFSsb9vTyKVg59urlHa5nnFuID/U+IgJZPIz7LKhGH8dRzxUrTAa0/grSRjB9nD2fNqKG77YG8exdh/44i/XeaYo2yiJ4R/KUrOpcbAufa8ChWXewGeaOfDWQ/nps/I8FNMxLe1cweFUXNRBLJUskGrckJ//vreNL4wxWAghcKZ188+8+wu/9juhbEDePH3RM3NhX5DZUlM+jp2sHxJCT6UUGhJn6ofK5DvsZFLyL9+QJyPzHXB0HCTqgWFQaQ0IYrNZl3Zng7Eift5f3u1P1pOJ2EiUdM2CPJyPwWT+QB71OuIag2lCxPKxGPWsafd3uz30ICrox8PaQNgwRP8si7WhazRruj0IV7fQNNf1n7Bu6McpKC5Di7hxVuG5445HAtlPPLNBXTVtSCVpSOe0ZA+5x3d/9rHf8dTvRYjbTMDJGF965xHSLPW2FD7Ye2oFKFB8OmjDAbG8z0iQsXU3Qo61xpImHQheGyZuJs1GVVaW6nqttXlWrzswZ82WCmVd7j7Gnc5AePQ8boaGge3IXASNYw7CscS0TiL0yPvErSXMzo7b/UYS8r/UaEoNloaPFqkCwVpuLMFvGeXjSWcTcSWoH5BugwFBjNBoUfup8MF3HtAMJfG4UjHbiRBsBOr1mvPlr33qITidSQCJhSYETm7c9AvvvfKl/z1yNtEww66HKqRW03KeqAnpbysSlQrNwm36eJzqMcXU0234kiSTzfVNSXsZtGATwrgkVbTM7c0Wws9bB+xX8t75mImIYcpNwnT+oKYaH2aaJuOmTsTwc+z55Oe7KEfuscONmiDUqCJqO0gI+mahasAYQudAS9Kf6EVmPx6ardSWzH/xGeOOLazwEazrypIn7RYXcfsgCGS3Lr/yjHIm6UIIgZMbN/7X9175sleVFkIIoPqraQc/FxWq7xtC+9HkA3NySz6aTHGYSeCiP+jV0TcEM7TBOL1UVhpHESyPuzQg6Ky/AV+URhwhvRMwnT8m89t0Idx6ffh5057PfUu5yol9Q26g1et19J6gGoB8Wds8Lc3lpgQ1NoSRmqoMz+qjKe+k7C4MnjHu2GJYCIOmK91OBFO0LkFclxd8/1tLCSCxEEKgKITsE0JpzSiEaP1S08JSAGliZi43gaIQJmBPbnnYlNMnTyOeQC48crFUHZzfvi7ddiR1/5Dc554PFe5bMx+QNt2ImozMui/rIoY0ZwBtSOA/5Oo0xwh/dRV0jTk2CtP4y+7sRgyHnYU32611mIS+eIEZkOl02rLeXpezG2vSDlsSZx3Hq6HuUC8RzWMvhUByI2QKbCRVr4biGKS/+MxRzx8WwtRHw8v7O574UU3SVkUuWrrfmR//4V/7Poj6v+RBJ2IhhMDJzZt+8X1XvuzVdmCGQmj2FwSzTRFCsbvXo48yEEIem/sCL8DVQDy0lGE7k856mtW8Zed+93mQPOhe3yJVuRAPYx9xHpuUCWW/ioJIZkZ6S7lFzBJ+2CXYHx4vhNPgFnYnQF88P5oVCf5gCuLXpiBFWax31+Tm226U20/fImdbt8vpzROy1j4pidtzvGoMF3WIRpJ9uYBln9i8IA1zCqEXVsTtVaThHJHeWpD94k/83szmzUIIgVObX38h+oSvKS+EJL7cS38IAq+BjHbiPSJhN5GavyxJO8gSVNQ9Lrm/828f8u1ySC6QLqJvuhej65jHURpMKM1JCsV8KI5OjsI0wTD3zy+EZgqE7tbn2HMKynhAU0u+OTCOelmPC/Eh2Sk0Hi2RWK689rNy1Q1fkJtPXituDaYoqB1v4M6es7S0JAn38NqBEEZOT+eTl7xVFcLemrPoE86DU5s3vfA9X3jpa2K3xfYRFYSi5lsUELaiEGpZQchYD1YIuczNBDB9QbbONNe0qqAp47bIavN41jqTygWHLpPvesQP4WqQVWSFQzbQA9SCA20wAhM5HHZzfjRFWvYMO33sxOzNANYFywFHNJNVMPkuKBpEaEmInLTklPz+639bqqswEOshfDfRL0ylUvWcpMO+x3iZGZaPUZqQQhjENR2YefGP/kUpASRK33BnBAp6qulQrIz+MSrdTO1zhA3aketNcY3mSYYOP2pIqv4yNKAnS7UL5QH3+mYJ4yCry3HI7Iq4yTIYAP1KRAdi9Y4ie30ymSk/J3e12zaTe+CERCvZ4zIuKwOCxT6Zuh6I+8JWxctqaORqYPA6mrhlefR3PBbdAYapiwdqNg5Lj6ZILgJF4SoDDixRE3PHcE7+//bbfyL56Kf/5gO4dMyEmI6FEAKmLZ0XNEPR8rpJPiJKsFgphIH4LvuCjlx6yb3kHkfvC+Fr4kpD/KQqGT/iRWaCUWPnzcoRn03NS2JEfZcRg7a5w+FANJ/PZdICVNDRU2g2J63ApaWBspamPPy+j5KLjt1D0l5VAmdV0rAG/yWENiKAxnMuHuAIKxteLgCgIFaqgfOl6z7x73HppAkxHQshBMih+WF5qODxdiuABGKEFnSh5TjyWfEbcq/L74fCDmSpuoR+otm5DV0XG1gPSrv6XAiSmsBgyPEuVEeEwKOu58dzuSSkZVo6Z3KRvJIuzcEMDaCZFoJXDiOIDFZRkz+ARqRWfNiDH6nWiefWpHW2K/X6MqKZXQRGaculpaYKIech19bWdN7xOT/yylLD3Qsh3BEMMww0IIEi1YqFbImf9XqJ3OXCu8ph9yh0Vw+MwS9w4p7QrFhR5OFLu4BZIDCR0MaP9AeBgdWc3gmZNbOcIN9vlzCpgBAqbQVFhuaiDzHsxB25/C6XST2o6yIfriHlMkK42wRrHEZpy07HfDWLc8FHjhyRFzyh/Nb4pW+4M2Jec3T7XUY4tKPP6Qucc63o8YsuEQ4HePjrdVscEJA47HA8Jo+BjhWseVxirMtAoL6rvsa1ZNJa3iXl0U5rMPbAhXrHcd4YaKNC9QcvIm8X+Ykz9BTR4FHWUlleakgSdWRluS7t1lkTaAegBuTqG35Bilsjvuatz0ze+Xev/Rwu3c2EmA7maAFTmzsAizEvSmUSc2xH3Tho043baI+5ZhPMkrQkqIBLIjOVoeHtfaVdxHqgNCpN++SCqBXpqk1SrMX8WNfh42oAsyNOOxL4ENm0jToAwTZB3eyo7vkRV/YL+ek4Lgiv1avOdV//4oNw6SYTYjqYgwXYjs5TFWAGfq2H70hY4jwjlY4ZquTuzY5srG3ADPXACr7Ua0vad/CaFWn3No0ppExVwiXY8ueHphqZATtnt82ligCpi3MbD12G2QkxjmJ887nGKBzvGgy7BPNDGkLuVavVccipJJS9u4zjHs4iWTt7Whq1CkIUuxLlQXOXa1H5rQp+6TeMuvJff/L3aCrMjGJuzluQM4H8DOf5ELjOEeKYxPf3SBYMowTppQSzu5CiivkaVAJ/7r6VOl3IYyKry4dkuXIRCnsJz6rJ4WMXI3wqjUM4x2O1n6MuIoZwKfWhnjkxjDW9OBjBfpA+FellmplASwokiz0ZO4hhycah+mOHtDOwnElIDFzkka1hkXJ/1o/WUX4D087U28aPpj57i1pM5GpL+OlGMBudw7hU12Vtrg+hWYLAJOGgHmcmJMkSUnDo0LKsrCzL+tm2rJ1Zl1944htLy9RCCAtgnU9CvyIK4YzJmRcjjikSvK5MLnbfUjIKTbcqCC7OU9yCmHhRf2aBHYwgtB9ENlRBAvpCZcFoeUfxj3b3VjJgvAdFOewhykWzCRpkd1QRmbxyrYy+q1lE4T41V3UamKuSrOZjAzZzsU/E5mZLvy6cf0lYXvO2pydvf8///zVcur8JMR1DqT9fURSr7bDCZzF8vhOYFt66iNOcoGby4xyDp9l+kDUFmfpcAFUIzXGfJEGsXGNZ/ON4ovmstxXFAyPNKwknoyjXekZ42MQNwMsHBX4yj659qZpv1/PVqKDiO7fefv1l8PqyXpgBB5mPcwKThM0K4yQaA1ZgkUZDma8AREehGXAoJzsolLxmhHPQnJiq7adl7B8ElfEeELGJ4ESJJXgZQj7opvlk6payxPFwoZk7DYpB9wr8VCxdjozyvUW+3Mu9ZtiYvuCZ/2vRJyyPXbJNZsNooeunwLb6o6HKUjnUaEL2RfP1ruiLKmU56XHmeCRcNbR1MAX36Wof9F/dg3BByLglFgG1c5FYEprdXCj7QKOzr7U2Blyq1mw2dOnaRRddJD/3w4t5wl2HDgaMgTEhB+SidRz2G8L4yMrAMh84U8U149cTLdS2y5/jclhGtYghepPZaYKavwFsDPvpmmN7ZIRuK5FFeQ2liV8DLVu6KojGf+v1/GAXQc1ntV8RTAs3q6IwnjlzRn77Hc9M/voDr/tXlDOnKWbCQggB1NnENnVYoIbPdwIrIPgZTWNgn65TJI6L5Kjb13WcnCZZnaesnJu3vHcwqhgcGHGwitpskEYKI1NqiBp+q/mdEwfDSPuEUcJnYXcGMCZphW/sO1+65pMPxV1X6oUZsH85uUNjNsNmmvBBnOaXzOH+3yToU4w+Y+ejL3ggqweNiNEAhaBROEHm9WK+RjsgG+4giAuGfCcRP4vFA1Gve9DpFEFOtwxYv1CsM9XU/oCDMxQ+3boSmpACycn7Fz/3dayKmbEQQgLcTG1kWzUe29Xx08B7SAw/iii0rCDCCjHjpflkzMH8mTkhwBbi7mD8RgYvKiuCSeOoK2GvJd1OSztOuoY5wjW7UVmI8FyvraMdOFaCvxIYHOaTJQ13YBRJ0lqXuHUaad5EA5FIAKGMux2Jel00HBTWPN8Aq4N2d9/2ZhlNwZbyz2NivRTreBJN0oK8xlUyJMbV6/XkV5/xp6VlaiGEY8AKGIatmN2EDjgUeAlPwK+tFugLMBGJwqrvK0okPvgi8NKs6qPiN26TuH2bZOFJKNMzCHcWQUExjsPboVzW0Gk5TRf+3OuGbpFOHhxlp8Svw4yr9iBwbfitQ0IgjE5XAhcNmGpHY1LbYt9ia5Soi12vt3yKgq8wxXGsa0g5OPNbb38G3yd8Py4d5fVZoB338x0n1q9/8Xu/9PJXcHsLfrePu60ZATA9EpaRy5d0gcE36sEaEA5uJsvQ0HvKLjCo8Iv+GBjIT3zxuqvyHQ/9gezyC74VLf1h7bWZ7THM/BLbZxpgxdbQtNjGJ+VbSLSWcY8Ov+hKGag0MCnUHjQdGDeF+gMjSBxKFsVQcEgjtRzSEaCfggAgprevQrTSyUbcAuLAwGyFkTheIFJpiFSXRQJQGkgUc/c0R5pLhxEMRjcKmazKkmHqWWosf84zchUQhZWw63XNKX5gm0cJR2MdiZ1T8tb3/jc51blWnLr56I9GMAGTNGGGOoikK5WgIdFZR1YrR8UJUee9w/Hzn/xbLPiZsBBC4Naz1/za+770ipdFzuY2IdSaB0YJIa/wtZiyQshdwezLhEYU2UMyvGBYaHDOh1ADuhCsgQBScGh/rmXSuwnN8QnprK3Jxvo6+iQtyBpSguT6+AlD86oNwXQSg5VBMEl5jPzwA6h8JWs/XSYogMAF1SWp1g9JZemYVJeOi9SO4BIYO65ANiGE/FBP5qMokNicXU3pMwojhJoX/iFeK6waeAdCOEkACQph6kUScTvLqClpy5VVpP3nf+SP85ZgNiyEEIAQ/jqE8KVWCKlEqH92WQgdCCGubRdCxmPm8Oiy/uwZoEkg06LDx13cuJsbO35xG5bp16V9+4cl635dOq2WtNstjduHqFcqnsNNh7mg2MAhyymsMBahzIt87afLMnR6XNhehT6ui3grEMS7yMrRe0AOLxVpXIgChz8EUhwOQXHfH01uLmSm7OYVwjiNIYH9kt6GWYXQ92rSg/V/wdJF8l8e+0elBJAofcOdEagwtIcDzjQGpkHRfxiTrk2CvY9LkG0tD/qC5hoZacBwFB8SRRZCmHSk3TolZ0/eJGu3Xi3h2g3iRSecQ9WOc6weOhc0e87haleWgw2pop9YRV+wmp5yapkhHg/otFItPbkL7prU9FmzuaS6d0Jq7m1Sd05IRU5I3Pm6rJ+5Xjpnv4E+Lfq2OuJEYmFA0FA8/WKHa8uvbzkAc1bLXOCgXMyuAMB5wle/5anJn7339/g+4QPUcwYshBBAi2eswjGg0BQFbvh8DljeUVgRI/GCYbdh0MeYoXHUytbO3i4nbvuGxJs9yTYjx+1AkXTQe4KSdNoQ7w2YSWe6suIvg1aUVukGcC1VluRQ0FRa3RW37qyCZnVXKy5K/nan6pyUQ822HFqOpOLBpN6EIJ6+SXrrJ1AY0OQZhJCUl4pab/soaNPA0VcKYqPR0LWjX7vhCgrgl8zV6VgIIQCBio3ugynTLxIrBnTB1DB5aEFtFT6aVvlhDtVl8DTaS0/UMYLF+I0/bzOzdMblffbJGmUhXhVMVYsgMKUbwvbZ/AY04PVyuFl1lmpLUvMrEsBk81ITW9UNpBrUpbfZ6VMH1N0A0bXHet5Sc3a/3R7cAP1WLwthK7fR5d1A9m6VaBP93PAbyMM68ttGvmmKo9zUPDDtJcuDJTIdth6HwIpTk3gHQBwxhI9TE9VqTfh9Qr5b+Cs/9bqZB2WIHabiTgJ05TooyDQzE64cbuYkLLsEccp5OmifrGcI5/y4C/ea1LlAVAR7g7pHKYh9Eg46qOzhnP2fLvplZiqai5RpUqHHiftckI9ncgJdd6LGOWWPvRSfzIN+ZYrnMYGOV4WDK+FGdstXPyHVzSvlguAWx41Oc6t3pCEEIZ0OfvHcDtLcYV8oQJ5yQudFyUHLrcRz+Ls4PggSbkHvHEW+jkK7u07c3XCWvbZzSaMtle41cvNVH5IMGlEHo1DWpiyQlxguypCjwLaR66PQeA3AMrcXbHM3C/GeScTfAOkylhEF8kVPKf8titI33Anh3Xz2qofzWwb8Zh3nxVmY+oK8fifBtqR0R7WqdnCcMKN+A74w4SFbCMNBGxsfA/DYaEK6dgjAuPmz2PoDer+5DmkPpZK1pCbsU51F5XN2nhdxCQ82lN8zjTRKPAnHB0Mok6yuxO2vWJIBGrpA2lLNNtBH3EQg2Nma0qIgGTCOkbD+efkRezMAifSDYcgnutcsnvGqNz0t/vt/fhu/QTHzHjMHMTrqZll6SZLGx6Okd/d2d/3SJIsbvhd0PTdooZcQgY2YIR8tX4AjF36x63ih63pduF3URZriOgKxCcp4D7LCN2jNpJpmCTooSwNTI4wvreDXR7z9hidJw+aNZz//mI9d+9Yf8DhWjnBR1IMGxBNQgdyaIs473QPktyMaMnKiLrUg+yyQ6GwJhUqG6YibQNtFh+XhD/ye7D4XP0ZHRz1oLF0xiVTrDQDfcmA1mHYeKcazqTeRflxENhHShVZ03I1MOl+VE194nzTlGknbNzseNdzc4HOMezBgg0VtCBvBNd+UCMDUsEUkcpowRC+R1Uu/W4KLHo6wKyiHBsJUtE68iqca39dRU9ay4WMzugwwSzqlY0dH0W/T0dHfMKOjtYBWDeS6Xw3bgGsThYMNnn7Xgg1vu4aGow5qSLxeTX/xWb9vEjYD9kUIwXEXnNm45QlfvPH/PuWWzc89OPU7NQoQpwJaIQ00MBJOaNbRZQun7SL4lK49p0tNUQzHQmQOWJTW5YeG7Hngc36JJ1Y2javXUUkpNEvAD/7DVyfRyfIUAhQwW7ntKCeETnhIvvlBj9uREHKY3YHp5TjoI7W/kt125d/JsnudCqHT3zdxHhy8EHKH7NFCWIc+vGvWuOQ7pXGXR6BgOGnP/WIq2u/yuGMdyscKockL/1AfKEsVnx0KITFJEK0QwlKWZB19cDQolaSRvehpbyrVMva1wh4AAp7e7ebTX/6tv/rUS7/011e8+H999ez7HrmWXF8/1b7BOdG5Xs5EN6Ov0pOsEopbT8RroFCbmRKPSZVlWN1LSCiuOzVoA37UA8fD4Uj0t/GM8ite02M0wh50rY++Eb9dB6Z3aIaqMFJYKQQqsmPrYSqmtabTsIVJ+EVNTZeJchoD3RnAvrlyOaD5LeR/P4BnTSxkNgg0R7nR0+rqqpQVQGJPhBDMe+lNt1/xP979mf/26Q9c9aoXnE2/dlSqXSd2u/oBjcpSRRqrTakuVaHNQrB4KLH0oNw4gAGhxDknxTlHFGXwSzrSS9oSRi3pxi2J4rb6p/wKD67xPKTfCBfmrnRAdLu9jcF5Dy6Ik9sUQFawFUBqQA4CmD7hzjBBUEpxkjIeSeVwIITnOk0DmRyVwcwajzECiNjyo0HQ/QBHRsknbCyY1t9++0/E7//IWz+MS/cwIaZj14Ww1T3zxPdf8ep//NTNv//8E93PHe1mp5zYa8EuRKe7VoctvwzDoSndsCrdrqv7ctQqrvgutBPHEGHW0a3AyqC/pSpMxiL1r/G4BNXtPT7iAXEEM4o5uUbBo0DyzQfD9IZMvbNBVGIHnJRf3yHKR1B47ixMvLdg58DS3iBmn9yWc57fXSj3XQO3tyjWw9JS0/n0lR/6VhxeZ3ymYxeFMDt6w+2fee1fffrFb75x7ZOXrXdud3tp24mdGILZks12GxotddLUc9B4OGGIzkxWdXqdntPrdpwkCp0kjpwURDcOe05E6nWdEMRzujy3/sXro9w4N2UyChZbUxJNG7g8p7/nowcGqUozpBQVniQwd3MNSIHcB1iOojuZu/aF+YqCNY2KGOW3c9AqGSV0dxRBpABaPiHftFptzhNyS72ZsStCSPPzE9e8408/et0fPjuSDvrKNQkTX6q1o+J5daeKjp3vVx1uAxBH6JOhc11x+dkqzpB54iHxnLStBAG0VEUHU3RghhXAOSEUuK6HxHWuh/Q9s8sk/XkfwxddXqfruhy3cBy6yCjLy2E8fJ4PT/QFIYtID9oDXmSrRmIFu7ifUxbD4LUiDfsZU3ZA+lBSbi5pOP7l4XMUOYrH9iJ+UbqIx/U8Rq7agG9wG429G5qwKFS7IUTzxcHsmixbuMy6WkpOnd9whFakaUpeAR/Ycp0FWn6cDuEfyxAgL2593mjoXDAHDUdSommx7yvytaYXPun1B9InrF55y3te86VT7340BNDtwrxz/CqYpolC46gfCjCtwsxkh4vvcvOhYPyM5ieYNIMPJ8k5LrgDl+9pF91R5GQ+anrIf/8xD5PugnCMwm4I3SiUE+jtwrBX6ZoPaAbHSjv7gWwLbIPwyjc8Of7gv/zZP+LwQvWYATsWwhMb1/3MR29403/OoE5CCBYVc+ZwbqvioB2jyQkPTsFxYJ7zQtQOnItrQWB6CIcg0IjjSJzKRLLhOKzN86Jr/a3LAW3OLNE1/tR0w0XAwiSZ5mJAO8YdiLHKCcn8mP6cYQG057Noqf3CpLcpKHxMKrWhjpI2au4nr/jAd+DSCRNiOnbEXWghLvunq1//y55fceOUy4ig3XzOmqF/l/Z0tNEAwpdSAMne1H4gQQsi3JcBygnX5yV9FYVzdTguuuJQK0JT5oMpI9056tm2eHARQ6npB3PjLoPMei6TRfF82D1oTNKEcRyrNrTp5/mLn/eH+9YnDL5x5ksvWO+cPiJJTZIQ7I+korsCBu0gQXy3bROcx0nYWB/EtZJc1tVvH5WHYadz0nxO4jtdcxPuN9DUbSUKMsgKeZ+GUFIQz1NM1obnOqgB2XflPOEvPeVN25lkCkrfYBHGnW//+Nfe9Ex+boqqmLt5JWnkcBMiLjz2gwwmZ/4iqjK7Gqp6L5cnGxOV2spMTbB/OI8rKfqgcI12Hbj05yoW1Y14/mh3Nt6g9qOwWYGz2tDiIAVR03ZOkIeeB2nrua6SZ/Oc+9s8Fd2DxjRzlPzP+cJWq6VrR//i/X/weVy6twkxHfMKoXfdbR9/zpnNa5cCn0LYQWK6Dpmbo5kkHzHrvpcOBaGHJ3EujnM+uEABTJviJnWwLzUjBGoMORSySQRhNILHKQhzbl3rP97Nc1PUdJYKAHv0K4HHxfNzDwetlYzQ5Scsz/zI+N3RBHAadPQWSWV6OfJaqQbuVdd8hh+DudqEmI6t3DYjYPsevbX9uW8N6o7DbdR7YRt2cU+HzvnxfH6jD3Ig3K6P4J4i+M1dHvGx0GWcOOjDXCu6prqGXZI1aemSfAgkTd2Ba/0nuYgB4e3gDDuw212+bDTGH8S44JOHYJwq4HnajManS8AiENjsgFnZOsAodoOkb3GHwecS53JzoNA9c5AJlhMz2x+xJh/gGkpLj7UcioVhGukBCse2TPplb8C72bsj6aOK0c0JCh4/BuP6nk5vtTub8qs//Ud73yfsRuvf9tXbrrgkDWrIOgqNL5NWqjBRExAtDC6OhanpQiAlH8XkaCaEMyPHejFcaEYvhH+aFwg6tkOUonJsoVG3kbhqhVM9aQIhTrgfjK+UQruS+LwicdeucZREvmQUwoSEchvhprHnpDEM18QHQbcXXH7400FnnGKqGxaBgfgeIO5AwQY4ruJ+NJJglkzauNJWTmA/EzYCLuA5ZYFnkXdQPFsE0ZKFZTJLFsWwBe8DAsoFFhKXKWrjltWRKjaQTFskDvhDX5DJ2LVAOQeoY1Q+tY4OhOB+li27FgZo6HGo4kjO5iAFwnksZxQC39nU+VX04Vgj/I6keT90PBVhB1+YBkt+FZoQaY/jWDphT17yzD8rLVNzCeFNZ658XOrGPgxP/CEKtDijXb7BwAKga/0JCh4yiFaQ54ZRULB9Yhi4JL3GcwMVSsaVH0OV7YDY0sJVssezu6hG9Ba0YpBQkz81c3HVJJx5Z1pJzCnvY4jcr5CvecGYzlWwAWZroK6WE6wLdQH4ZXwzhXxiv8yU55ZFS+4gWJos17FFaeMbAu8q8tW8YD8wgiDTAmTf8Lfe/vT43R/640/g0t1NiOmYpw7rX/rGPzyGI/T5rmFoYlLtu46i7YxfIAWSoMyaM6wWGovYCHKfyNMkXGWl8ZNZGd/lcrvQqptzUnsqpW5rPDlccB6yJwwtbYgtLF+lsq0m82eYhzXOpjkvcsNDeX7nBQv43IYpIxaHdY0+t/4Gd9xscsVMEJjPo3GUNM0S98qr/5kvQN5oQkxHaQ5I0vjy21vX3I2qeGtBzQFlwBE0gjH5JCUIoAqhCiWFGQ0BW0u2bWVdajW9f16C2OXpsZQgXSZtdE1jgoCggdvP3S7wlhX2man4N+r6PpPNwxYXfwojj3sCPmvSqOes4FI1fq2X4yEcIeVmT7/87D+yHduZsJ3bpyBJo+Oum7kJTAWPbyHsEGas0RKTs5XU/FSi4A0RQojDPjD7nfnnkIdc7RvavuKwC9J9ZaCFx5FdkTOaqKHBMn1hROXmpOnPtXrf/ASZZXq8Duwdjy2wT6Am5LcoOGFP9/k/9DpWdCmUviFJohWzyJnv25HbVBT2CNvjHjC6YXrYjCAI4lyuPbbmcFmCACMNxUbCwh4ZgSSsIFIsQRTA/rX5wUGKUoQU8Vf/hq8dANk8bHHxt9ewz9opqAntO4Wbm5vyP9/5rPgfP/EXf4dLx02I6SgthFHSWw0qfFMBWiA3Kcyb6HMQxztpFqgZQjKjXbazPcBAy5hwlghmAQIxJ5mphjmJS+NYmez/wh0QRz55jaOnnMawxVzIF/Nis3AewwqDFbz+ee7e0UHtV6vx3diujpZGceh+/HPv+4+4dJsJMR2lhTBOwnqlGuicCN9I3xkngSG1b1V0DZPaKjBWuzHjDKG6+pRrFp2bm4cQMx7E6Urd22mEq+lAwJEukaeDgsb5R/O2iBU80hA0jzzI3YL2XGArzgVBpOD1emF/dDTm2tHn7vE8YeBXeiduuxXCGKkdvFO4unLJLDfLx0HhC81H7QhaQkuzVF+SeqWpTJ5G6CeCshjMzn3Z4h4Kgq3QaMqy3gTqSNjbyGlzDrcjcRfl0Ekl7II6MSiRuJPhPJaoG0rFr+p7kTDkkccEflxXi2MP5mvE7fwOAjSgzw2oIA4Jox3AmRWMg8KC5tK8qQ/QVT82tgUqgs9hGEvW8iuC8bBfSE1IxfTLT317aZkqfYPvVdY4ElSv13VEaKfogZHNJkuRhFFPM5NE1FKu+E5Vbr/1jKyfakmX27q3RUJ+F7PjS5A0pO6tStVpgupjqeY2JlIjWJaGvyL1YGmk26yuyFLl0Bh3RZYrR2UF1HerpMOyVDuMMEek14Iw6kIZaEdWMrSobloLoWQDpBpxgZEoK2w7RfF5sz6bE/ocG2GfkPe88o1PTP76g3/4GVzaw3nCzEnCMNYWoN1hS87Wg9GMpn7faCQ5+nkqDrLwWFsbrrhBQw0xEy+ryAWrl4DZj0hdlmW1ckwuXr1Mjq/cXfxoSdZvi6Wz5kv3TGUu6oCyzrJIZ2kkOd3lLGs3+5S2GjJMSasqySaoVZG0Xc3SdpDFHS+LWi40okjFW5LAqQn32fZ1bQ0rLkaFoSU+UFP0jqENLbNDxxjXns8oBLuF4vPKPJuKiLxLLajvE9Zrzhev/sS/waWZ5wmdsplt984+/m3/+tPvbBwKnLWNNfHcAJVJgZsHUPMwC2lLkyeiEMKYetCANWgNaNnEAxM3pNOOpAuNUvXrcvjQMTl6+Bhs8LoWll1axL4j2aqs63mcajBNCV32Oovno1w2G3QJx+EbGbiWulnGTqQCIXAFfhK2M7nn3R8gdz92P4SrZBEaMPZDPdeYOIHPz35xyR11oy7ewp3GfGX+uOKILr/OK70TIt1r5NTVH5R6+BXx0zO0ILaIcpYnzLoWUMBbXIVddnJA2lgbXxQZ8+6kZjE/P5KWOTDr4d9yj4p/9Dvl8L04znEh/Fe0kWbe2IVhKXMjFBSYiY/EUWtAB+4JvueKBg8dHkm9M/K///JF0nFvkzb8HE8/PtDflLIoC8XjcfOJTH/PiaQS1MXtVCRI0dj2HHnRU95WSiDmE8JP/RcjhJtnwUzcfbbUMwtAPxAmGQWJX7zldAG1H9dtZpHp/0lSkcvuernc6573hwa8BPqEW6az58i1gFyDyT4wTD2NzaSk6ELfQtdu97cuc09inY1yPYQcd52CwjdEkAMcuxQb9eU5187AzzlzpiWHly/M6v4R+IFhENRXDunqKotqBVr3wIRQ0wifYgz7hzuSEI4TQGKSEKIWpVZtSj1Ft8Zblp/57j8ka5VC6RuQpIzM0+n00Idj32aOKIpAwYc99ptQpNAcGRdWc203hG2leaE8+tu/Wx7ygEfKxSv3RPEeypKoliVhLatmh7K6HMtqclipMt4VuDLKtVSd4PqyCjFfHema48P980pGdzmnFdBSdtHhSyGAh5BRVHcMk8WxUxv89kWpQbSRsAMK5yrZPGxx8yZuP6ANXS50444nwYbpoGvGdaTsE77r71/7WVy5n16YAeWl1nGTSqWmNnCjDlOK4HD8PMTHw47mvJrnVvXb39zmnBrx8MoF8oD7PFguPnyZNCsXoL1ugNmXZTk4JiuV4+Kh5em2uGw1UBN2HAkEexy5IH4Al+Mk42hUnJZQEuJEMJ2jZXFivh+5JB7IJ6GJcLnJFZoC1dYwrclaJFNteD7N8AMHjfKDw7DgDQvkfqEocLMInwXlwI6c0qKr1aroE34SfULnqjzIVIAbSwJand9Bb3c7MKegsqaAiZtEzITvV/TlyGalIRW3KRVnVY4fuqc84KKHqzaqQwNWnWVl+ggmagJyYLKyj8iVKzBjYFKMJGSQBuV4CoKKVPD8ceRBa00iB31XNhzcxpH9WPZnPReNlIO8OE3ptUNodlOp5Cseoc6Qd46WGtNpGvomZN/wzF1c2B1DkoK4/8I4MI0NGw4zIzsc9ohXTQLZa9eDwv07A/nQPp0vxBjYZ0924ximMyxDNhrk5U6nm73kp98wW8XmsDHODqTSD9AXA0PEsKvpKnPMQwAzwSmKqNeRtZNn5GjjuBwOLpaH3+cxYOxjEMIj0IvQMDii+RYEgeMFEDAoQLeCrFMOYNuPIdQjSmcSmZ5EGeI9SvyDuuPrZHBxCcS1pOZAT2SpsYx+H0xPnELp45EkE4aCyJgoVEwJQX5A88SjnFhOJF6w5YaW12UP0pShSY0hCz6iSBbFsAXvHPstiKaMdBMwLcABbCPN/qJJFolhaMZqzxk0HSYebkHBdcCCuqhBaGLlJTaG/L6kGWMwBKbZQtwQrEgJ78kpSjJYb1VVIoxzY73F9wlLmzdbcz4DkBGXr+qMqsLyMN/75mQnS9t3fWmvd+Vuxy835lzSyFztsLPv1C948+CCIM+JeTNh71NCvYBQ1crpxehYtMXiLd5mgesUxPysCCs4AwGyeR2E3huR2V9BNFqoABSohblGwTDlZDyNU2xYdgbGm8ddwrVpY1+QWtCumHnZH/1w8r6PvOkjuLiXe8yYUuKDOS+yU9COphonGB87t5dddpnGD/CnSIR1dwqNk8+Zg6Zh1D0jyWCWcmQY0m5lfxL2XxCtMOrxlmaJjc+OGts9ha1D8rCZJ6w6n7ziA/wWxd7uMUPwgTq/t0MwD9SGjM9WxJHGEXUHTNpH6SmVGcCHTKIiRvkdAFBtuWawDLz7lKCsSaOu7S5ZjDu+I4M8yj4h36QgHzPdL33+m/a4T5gbAgMh5KltrbZT/42JkZT1190xLo4ycTkcMaIS9rpWGP8oKmLU9VG0Q1iNR+KxPYdrzTKieLxnoFbcB83IDXYt7TNsDkdR5rqaolFEm5ByQKI5urS0tD9rR/noERpqblDYKHzMCMHMhPjjM0a1hrv57CHsWcS7D5YVk5tqXewPsd5N3e82WYw73itQTUwC0jC1QSWPUoHwZQb2D3/jDT+a/NOn/vK9uHRXE2I65mlKtXSs8NCdRNOgq0YgeATtavYRE2hJTi7weJ/BvI2iaSiGmSV8CbCKxlXTLj9qJozSCaT5YYXbHEMwDyRfWzGLABLkXaaZSoTyUK1WnH/6xF//J1z6ugkxHfMIIUtMBWw3hIS2NOcIGR+FkELJz1ixIpipOwjIFbNyxi6Yo+cidlcwCSuYBwHw40wPZxrZFySoEdvttvz6899YainUXJrQ2sHsz1mNN46I4jkFi6QaD8Q3kzc2NvQaVTr7hAipf7vxqtQuYpJw7UjwNLd5DOQ71QQFBuT3EzUAR5HBG2y4WOEHyaSzYZow0pyezOw6faWF4oA/TKNPvmHeZ8k/wxgtxdXGTn/8wb4LOyqeAb/mHgXY8FYGKHRMD+MjX7/sJ99VWqZK34Ck6T1M5KyacDiTO8COmH2H2LVMFMFyLKJ/OooDzlkUtaMVytHCOVwefexyeVhBs8cW9njWndioBcnfVBhUKK/4kyckf/6+370CMX1THmQqSgsh2gE2X5rYWYXwTgBWyEyVMh+GzW5zbhhi9LVzGwMBLApC/zgvanu+lyg+Y/h4ludT8CiA1IrUhvz68xVX/fMDISn8KMxMKC+E/PxErtn2o5CGscvP5KeoZ6G+Gb27hFZ0qMHtn6OMbWM3CZZZzlWyeRjGKL/dRpH5i2kpPtuejyN2pdg9sHUa+JXsFS94+17PEw5AJtmys9gIMo/YTubavoAlWqzRLecmDwdHmgYmZ8tgHLXdIJms7NGYzWQ6NzHaXN1tsGwd9BdZktbVUk0SqJvB+ShilbF/SVAAiV940htLMzYlohSQ6NL3EH2Gy90BypX19vsnAsXUB4+Hz+9gYEXObm4qA+XCfK4SYd0+MjP/uV9gOdqGzh4P+oST50Y50EMztNs1bxS95m1PS975/t/9Qibpv1ePGVBeCCXzbEKt9M8LZmIOlBGe4rKr4WMlhjFBFfZ82H/PoOnhX76CyJ7jQI8HgmmPiyhTFHdMWB6wTG2Pi+5ewpSxwfBx8XwcDh8+3J/n5mS96znO56/6lwc64v6Tes6AubQawQSatyl2Avt4uqWSggfb8DmTMimWtiCvSCdCpfZQrR3HyVqZk4KyTXGSNZghp2F6KPG4SNZ/1LVdITcz5IEq2Ul1eS7ZKfFSkHMKOTiFDJyE3xrysYkshma7Bof741jrJ0WbPSDzheSQoYzZZAlWHmcFuD8qSYsMRXQQxDr00or4fMEaOWIdpX4ooZ9IiGzFrpuHy7HNCBtulHYHRgBTNNKzmcQclOEGwHae8OU/t+d7zKz9yJs+8bw/deoJ36Pj3jBg6hHPzP2mjqBC64fdSFaqy5K0fDlSvac87lFPlppchMTV++oIjGUSqnuIqC9+OPeDyuMV9jG1xlgx/DqO9rSyjc22NJf4Pl9L4g4ZHderAWoY5kNnEzd0cS8nW2dbIbENO3qdio+ksDClTHuxYQFYN5wIVssI4eKWZO1Tsrl+i7RBUeeMHF+tOj24MIhk5fCKrJ3dkMOHliVNNqXX6Yob18DofPGZESJ+FTyUj/gsU0m8nroHATf1pBpBCD0IW9CSboY6qkAQa3VpJQ053TqcPeg7nofiuAx0CdLdQEOKG5VYbkg3N1vONSazOGqPGeRSG63EPS2v/YtfkpbcIh34OR7LZfJkBK29cSG4W14vbUP4qrrHjNPz5aVPLv99wrmFMKtGkD0IQf4G+zbMKITkvagXQwibum3gkeplI4SQrbuWMW7oCyGAErRCqLDpMC08q0g1drqJhJyUis/v6bclPnGLnLn5FsnA1D1oI5SeuU1TM4cw7oCJ+X1Dw0w27dRSdDgoQAZwwKSZ+AGISg8NRpL20A+hgHWdVRRHFG1IjHxVl2py+syGNJtV8N6GROinLAdH+0JI4o5wqj3xvASPTD3E56Yq52z399OlEFZimHJxV2KvJUk9lqjmojlpZOvxitMKj2f/5luehrq7K266CPdxe0EtIhDqDGWh26HMIYR2oyfubsu0DIOCR004TQi7SUuCoC41bm2CBiVa72UPvOt/uPKJj/u5/4wg15iQk1FaCDvh+g+96RPP/Ysk6Dl8sz7wKqOFMEdfCMeE2ZkQAuBfx+UHyfLnpBWGAyfzN8lCMGilgmsw76R7Qnpnr5ebr/myrJ88I4dXA6lU11HI7UKERUwTyPmFz4Cvb3GFE8tmUD72qdRXNHX0G8VOojuuIa/MF85jZY1KBIFKIEhOV4J6Vc6sd8SvcjOpDcnSWLg5sgoh2JBCTQFgmbM+eKwWA0e4EZdtgvbLpansxSCuCKp60oV7shXLRlTPmofuL0cuepgsX/Aw5O84Kv+QMoC+38v790EI6U4a96AQph5X3vgqhFkHseG0ddLJfvMXZ3/Dfrz0jAESF+92h7lsQzAMmu/5IRIIYmOPWIXbESbr8ABDtm+TW274nNz2jStgqt0sh1Y6cmwVFRHfAn6+Fe4o4rVRdBuukW7PyZ6XpROQJ/T54q0kuV8GWqqFUg860F1nJeydlF77hLRbNzu9FhoUmKZhd13iqIMMm6VTDkwjfvLN8Zvi11YlRr8RFQZyTT/LA0OCccKgp8cEP4TLfuJ+u2wIOjCk2xC+Fprd9XZTNtqHIWT3lEOHIYAXfQs4/ShSyA3ADHgbT8iDuzHNRd4bR2nKxn0yKKQMy7Jvt7mbfCJlBJCYQxNu/MCbP/ncd6UVfqEWLTJHcLVkRmPaACr7J+wTrtaW5taEhGoIghqXNZRFUBvs761JsnG9fP36T0rr7NWyWulKM4jFT0OHXcMkPIsUsE84D8qV3XZQF/A7iYP8DFkV7HA7WQKbI+k6ccyBlkRc35HAR6vrQnusR6otUwhUSDPTOyZR6mVO0OWn2RGf/QY88uhw+7gIkXL3bw7SuFIL6xLwRNtjFub+udxWdj0NJULDEUOTxNkRqS3dKzt84QOkceQ+UPPHEbSJNHNPIxYGbgPRKmA5IHO2vnHB1EZZTehkVMOTUGjgh8C+dJxxLWoVBvSK9glf8sTy7xPO1Sd8y6d+WvuEFELkcMdCuGNzVE/ResElW8MToZExp4Xjk3Lr1R+Rs7d/FlplQ+r8xHXndsfPetKEFEadUNliZ2DSmIhyLlOqu3YXBK8ohKzkWhX9O5iV3AyL7ITCFp8CGHABsYcy46tfIiGEazOuZM3mvaUNEzWiFcAigCY0hlUEFUQh7KF0uEGXEcJqVIVm8rb01fbL5Td9ToVtqa9cIPXGXcSv3FWay/fOgkP31MYkg+p2KmaHdCOAJv/qajnmF3I50XAlhDBjOWajv3Q7izlaFELuwO2jf1vPKugTfudnvv/RP/m9CHLChJyMeYTwRyGE79iqCfOLiq152j4wM8TyaOUmCKGRK5SkVgIxJITIgLq8zkIxQ/Lw4ygoB2S618kNX/kHmHdfk2PLPemePeF0Nm6VZi2ValAVL0FLm5p5nrmB55oWuby7vfThrzD9N27rRTZiPXEukf5U9JA/5NWTWrACLeJIF3F1kmZ2wd3+g8RxU3oIS+E0H0HNn8lG0+0iXlMnbADNINZe9QmpyCddR5phTq8ePp4trV4qElyI7MEcpfbzmjCpUZsIi8pDFvK8Iy9qinIzZeaLeWJkAH/3Wwgdn/O7aMQghOjUypH6irRud5Jf+y9/ws7+TJjDHF1//Js/+bx3moGZEN1abtbLYrXYmqe9FUK09Hll8oDFzWu86iQcNUV/sPs1+caXPyBp9yuyHLQkbJ9wVuqO1JqObJxaAxNfhHB2cIT3b3VNv2O7/6yuSfjkcFqZmg9mg+fw1mv4BROo0HHODHzhU3NyQIFhEDAOHQnBaKHnZrF3XI7d/4m4fgGiRTmRg/0lBMQ9Koic7uBAAk1TPJAmhGeY9mDAPII/IrhZA0KI/l9SRx+XTakraCORBWNGo9eFsBwx5utt1NwckKEX8pF3RcjJuyGExdHQaUKYoTxpbQQw68P1RCqJK//t2X/Fyp0ZpQITyHPKlQFx/iIjE2mJAkfiNUumBR9PxTgscIV/1LHmdBrQsqNNRUF30frDhOGO1+wfob+RbpxBHfakxo15oTGWKhXhJ2zijZ4s1ZdRyREI4cZQArNuJzQqzgGZ7ylw70uIWu6apoTyo1qAc2jgKLS3utdliJ9eiJyi4eqEkcRuD31BNC6Irx1Dy63DBPdXULPLIrVjuP8QjsHczmFEhnPBsUshvdiQQPtMJITdS0qYnkuQZjSGKT+O44lXdUHMP3gK+UpUANkPNPKiE9TEdM4YC8t/Rf61lCSxTk2QpsHyMHmVK2fKCiBR+gY8LNVhczyUrTzdXFi2ufsCakFlW7aGLBBkqVA5HHTxQD6CeEgw+0HmK7roT3HiGoeph8rwIMj77aLBNS09KlxdDpig4YJY6afTkG7rsjXnCGjfJRPxGC1x4uXkIqTaqeBgp464mpJ5DbT4NUmV4Oct454V0BJaclzPSPzC1Wg3hWmYpnvlgpxDmk50DlAern6hAGwFPxL1F4et+MfGlXxHTZfXsdZzeV6zgrMboKKxwsqdIV76uscnb/qrV30Vp/dSzxlAbiwFCFjM5TlWEHNfHDOqrQJpyLxNMSDrPwi7M1CHGDHUeiFD09uWM10UkpPBbMCxyxUWGZgU5gyMOxCqmWbF3MRnzkkQGqMRuzjuGfJwzFUsSh1D9poSTLMCmcYH5HTRA2PeUQ9O4ESg2PHgGkMuxvN0NhX1FMOPH8HiTj66MitFmfDiSBfxpWD8PXAzuA7NZjYc2iDhkhIHlIzm43cdSehAIBesN4Rn4d1BwDf/KQuUCQo3v0/41euuuByXvmZCTAdKpCzQa3G9jA8lFQVpd4RqdlCoaPOblo1T2zTboCWYDJJqPIoZWlSYnfx4manEAGE9Ex63xmh+UzDFfC7vRzL0vJzLe3GEtFK7WQ3I/g/MWBDdTDUkpyYgSsqY1jRDnriiBiERk+YzwznZl2XBwRbyqsaMgmKZKO+SwfFHQGZxD4htlHHted9V4HhP3BxsOvhnyoDdHG1KlJBKEISQ3Ywt4wGAHg5FVgLs+RX7f/OAvEcy84Rt1YyveMHb0arMjtJCiIpmSfSlnyVhBi9ssVFDFs9zUCBG0RAgyOUKRVUKn8d+oPneAM23PrhzmwogV1iE8IAoInx/pUiKlky/7LT/LhlrSxkRlAzkQHuJqFzTW7TnJJY4SN1MPAT34E9Ck2KaQZRrzqoIZQRXRRPEEmLzE+A5/FCpC5dGDIsid/eRIHoZGh42KCA2klzVg0uaPxd1mqGxIqlWRkti881BqkxPbEsxPyiGw4ROoYrnJOLj9X7IAjUi37J/yTP/nMkvhdI3QAg55q2jqtYWNppogOHzvQO4SltHZsO0/mRFPWcaWEHUJBRKDstzACdncvafCBYgRxw99DVKu/gbuIinpEvCL1Kcu2i8aC6r2U5BQkNhXNOP7btgRhf55vye5hZZIfN64Art7+I+E96UiBFqhmGOKZT0wglIrRcuYDVkAu0Tsb0lr1gmNAJmXARAPnjMfFieMtpS6xQNK3pG6neQsHLAwUq+W8g9Zt74rldei5w9Kg8yFTb/pZDiyRwF5faERYErHm/RdqRyKEQ0BWwdVTkbZqNQJvZ5qKg+2SidvF8FYSTRgHWhKYy2LOnulNhsUJBSTphXB25ShWYz5KYVpW1hSDCrOdDkIWsqhMi+MjDyT5cfjKIG1euwu7VNYlFwSkC/gmxM1kH/dr8J6dEGJ29U0Di5yJNtgFidOEJZIe26ZhYa0zUCyLdKTG9359iJSWq/QUEi//P7hF+74crLUPIfzoNMRWnpQIK1J5MkqUSwf4cxVihLoZAsFagJyew/QqsLCcSR9cvvhWGhfSL6GE4cpHuwJf/OiB28eVxqIuozpt2M2uaumqq4grRzYlpDkWF5ri7uUeOTxHv4pgSZF6doWPAAXMk4gwXNjf67hmdQE94QMXxeDijNnKzOnd0lNC/s88Hl9IQmUhPKiyBWpqYdJ3kSTfXmJ7Rw1AdVy1OQ1r8lggLPhhdalKH4Gpe5f3KeZ3mfkMqIz+NmT0wjP2j0Gz9fbulaqcAGatdJtVKX1ZVD5KU+aZqVgUy0TBQFcTIZZrTnTBIriUYTB00yxrEtmShKW+J5eSJFoApOY/R1WDFkYn5JeAUFVWNi0GOKtS/Ij3lydMRYpHgehXQuF/lWMi37PC7TZInnhvJ48QzOHaJ0cMwhJ05RMGw+z6jHDAvtH/FjpTXtY0lAsxuuvieFwqG2RTiWl+le4aACgkBSaGneWtPXNGUs8WHKw1rS1GnTYf5YriVdpg2xIjLWMWvVpFGJVa5k0qkCyjcmlDhSWkMw7ntLbdhFplAeEfIc4ly1PQinPf10WSZrrVsQf1duufW0RJEn9caS9LqwRop5Kkm8N4QJSsRQSKvLy/LSZ/0lU10KpW9g+fA22sEJh/kAUz27APP1zBxIWi7MiuKxAs8GwyrlYOXq3Bn7DQpUHMwbTkUYvWB8DbMNoGyGa+XdASg05d0tbXZO9NtOJrwRUuNSaNGyw1/Xn5q8IiyvD/q+LDfml2BYxmP7wxaM2jIWuFr9cJA7cPUhaPgYDyMAaRcArhEjuPCex4WjsC4xlIK+a8C8GPHnXWEcoeFBfiCkLrUqGiSNDO0wtVS1XpVutCHVRia3d2+RpdUVvb/TCSGIVRyPxyxmKkdFOUAZ8AVhNCaveMMT43/4+Dv/Dpc4TTETTO2UAZpAaiwVQmRyGgYabzRZIANTM3zHRVFgZkWZsMQ8z9iOLTfnRW4EGfUBwVXSUFYswCIQvgza1CzBs+e0cnijsgT82czN45qR0Xlcohosg3ca0EQQyB58dQkcLiCZLtqkjBaBn0odwvnVa76EvhvzxwXxIUxITxsrk//yxPZodXWVe42qPNAUTdLI/eA/v/MxSMFML/QS5YWwqHruBBjVMNzxiYPT5ng7pjdmWwKAkVRtqEAUwLjJaWrHGkcPcwbXc17QcPMSrBYwb8b+8RwuNWAGkzQMIZYxNGGA7kgNFgG7KBBAB8LXjTckQJGsxSflq1/7orS6Z5F29AoDajEIqGaB4jQf7E5r+i4nCoVL1175wncwBTOjvBByyTjAB5LUS2vrzohZtQ4r0dKsmL/iDYbSttV0mjHdABiSRogaImxfaXJS04E1+pGoAoY3U0wXjl5T7oFnfk95oglXHGwq6UIAu9B8MYrSCXzx2M8Fd7Z7m3J283bZ6J6EYEboHrbkXz/3MTl55mYdXWU4bhnS7mwyA4yvn9Wy4MeMaI5ydJSDM/vyfUIInAphESiCuTNx0LCNyVbyMkPDx7tNjHaU/+y0m+gvjM7B/jVHOFLhIFAIIQS56G+CZxMEpe5kU4JczEl8BskIfGkX9/O9Sg/aj13BCGZmJ4ZJ6HUkWEqkXnekK2vypRs/LZ/8zEcRJpLmalW1oH3RYKc4e/Zsf76c9fGqNz85ee+H3/BJpO5+6jkDSgshgPKDNY8Hz5KJIsOMojse5m8V58PONGJq1NSoNJfIB9nAkG4EhRRxNDZzIvz2wNot0IZSJGfhtw7alMjpSuKAmdEGz0fow+2A2DzwDQsu9wuRpm4GU9PvwCREqbg9OZvdKl/4yiflE5/+kLR6Z2CqopnxBrxXq3L03NTAKNLhrRH+lgh+RYxakOBkPfSR85krP/xQHFylnjOgtBBCdSfMAPsjCWzz8wO2yPcK88ZvhI9CMzdoFloBVI8cXF2kugWaBcKXQKNEoFjOKPE4ktNgftLJHZCNYybKckpJMY7bcjv8mSY0EtzKBI3Eptwqn/3aR+XP/+ZP5BOf+5B89fovytGLliGAmQ6ecDC1EjSk0eC7liiCCX3CiddwxfQJuyrUNEe5cuYlP/0GrqGcGbr8rAy64eZj/+ijz3q3W+dSDbQWIWf0UIFm6IyJweGALZg4wj5n+Hkw7aXb7slKdTnLenU5Vr1cHvuoJ0tVLhY3RSujt/MelJz2WcxQsJ4TbAfQesfgI/rQbGKv2FePsyInPyU3X/t3Uneukaq7Lk7kONWgpsPWXhBAo5P5im3RKK0yriI4wmfcnWMeDcwW35UQVkmY+tJzLpVjd/8hqdzlEThHqw9Gc7MagsFcQxaVacCuvK/Cl2JRF6wP7rXCVWxEFMXi4lKateSqr31err7+CshpB8nr9ZNoZgi5bymO+WZHLr59t1DHtv7HIdPX/wcYxycjAV6oVldhkSH/UVd6vRYEAhqxt4FzjlR2pFJDOtEP5JsZHAHWI6Z7crK2YFyfUed6Mwgg+qZL7mHwXEVe9CNvKTLTTJhHCB8HIfwbp5agdwABRG52Wwi/+1E/JjW5ZC4hpPmkg2PcwOQ8EcKIL/qiXOYTQtQfrlEWWKw9MLQXgFWlLV++5tPygQ/9JVq0lhE2N9SypxBmqQ9mhjUE8y9zYq13pqhYvzycLIOsNBOA2kmHFpAeLk3QxOKcc3/Wf5uLmk4i8gNX3IAXXa6fpQvigBPcSK21VIPTvNT+pOYhB+OagvEDN4gXZRJHMEuzFfGiQPzEy+66/JCvPO3xv/QzkIsP5gEnosh9s0H71HmfMOEyIFakphGOOS7SuY0y7eVOMd+zylfgbOBqHPYJpRJKFkALVtugrqRBC3ZX28lqEL4a+kBcHxCAHzzoBRDbyMGxOR9P6HO5CAM5kwDCAVd3mwDR5XkC/k8gUCNdl9tZrYNOg86ij7qJxtgMzKQ+X3KOQRASh/shDQTQmOBsqvMVPMjCJBr3RgXB9dONRkMHeriOlO8TfuW6z913VgEkytdh/nBiViGbFs62ogeBYoMxmhK1FvaHyj9r54BOyMXfage6jJlmnK4KDyCM+vZ+20krPYkhlEkQQvASCAq1DEKTk0DF4+mEB4ObIQfQqmomqqsx5ue4DoLk5K4qRm5VqG4qy4fr0jwUSH3FE7+OuAIO1fScbrrpdJKWA4GFoJsmDjEM0O8LT8ekKQy7YIVmPPuGpFe+8B1sVmbGbKkoANnUB3BuxD/QTYL2GvupBQ8KFECKXC5+/RyjluHHEuDSuAQaUbUJzL2YOgU8ad7SN2YsjXK6w8fTaFSjQtIU5Me0uIoEpncsxWnitHqbTrvXcjphy+nFXSfMQocjr9xBIHX55iTX+frIB11jSjNfKoLmUVMxaXBmaWlJB2MaDW4JksmLn/aO0jJV+oY0S7mCltpLBXEWMOwdFUzbgPZqPnDvaOdgS87BNSOI0EDqEtRqQbUiPj8HXQ302KvWxOVmWZUazkEVX6kazOHqsQeChQuTdpSrLx5D441yoRAhmGgk0KHk2hkSTU4KH1Wl41aQh7zPv0UNEoN8TgK14CRNaFfKUACpFfk+4d/80x9cjwc+Mg8yFaWFEE9TybMMAFboM8QoOrdwPmi/IsCIKnQwO6HxULnqZ34NdXpdUCid7oDa3VhavQRuCPOrLb3OWel113VL/i6O6fKc/jwf5+pxd8NQh/ds4N4N+DMu459EbYlBo9wobku1WkdjUBcvqIvr18DRZu+gVAJdSQNRRa1yIIP9wSK7mxzSep6HIP0qmhQ+LlWjQqJWpNZc27j1bgj1cX3MDCgvhKam9OGk8rCPLLqWimAhFdBvoYf8dx3GCMtP7uCYVGZ5mRbNTQWnF6y/hYmHv8pkemwGLYIAmopaiRsa+dCAAciv6lsDVT+QCtwKXF6nH12ec5DC+o9zDaFb47tGI/I44FYR1I7G3/PNBPto19OBkRiNRBLGkqJfxvdcmV3LmxQUo8cocLYsQMw/iNp+m5K0ZcPrI0xR+qkgAs16XTptLn/DPehnrp/tydO/7+V72ycE9C0KDo3bTqkBo0Jro8NP5piUwPgnwZxXYtlwWNy6nONJdZIK9yK/jBs61Pxp6ZHyQslhGgCG3S4r9t6dYbz5cUeD4RGWNcqoL1g417KhP7KiDKcXwIi8Rn+ewBBlnWjZw3xDUL78C3HDH3+hRZIQFQ4m52a5rDTUFd/UN/va4F6wAKd5dKoHRpIlM/oIjZRfs4SuXJ+44Ir9NGoo9tWMtsK9MCfp8vuBxfNhl6M0kEU1Sz0XQgk3QPrNkw0h9j4h9j5puSghDYiDZniRWGZUoIgWJWl6k9pAKZlxIhYpd/GrV11pQRDDMJHX/Pzf5oU7O0rfwJQRWwUQmRglEVugSTaHRZe3WaYgiseKInNNB3sF/Dt3UVYLj6vCov+k8jPsOWAwc6dhMR6BKdlv5IUcfAkb3TJcIg/k9VeStPHQY4oKxWIel6DGxu8WgkiPcAflMHA5Fmtc/NqSR7ogymAjbotVSLeWiQmkfUXEq3KAhqkWVOVlTy8/KEOUvgmVk3KUinOE7PMpy6tmGk0L3LEwramchFF1qm3oTolCpbxU3jVCMa9Lx/aHKYz0h4aVCnKJvmVWNaRfziLBMqBSdSF+aJSY9iQChfwmyJK86i3PtdJdCnxqKUDwYlbEsCY8V2EZayvt59zgKOLzZ0uDzUMZkHlmxfCziFF+84JRGGJ8210Dm+DddsH+fS1HF/44hlFndpekpMO/b9ByYIcCiCNY1gjrS6/lyFLtiHhJXVrrZquLsmBUpUBNSIs4P90GCOnYawuc2ygKnnV3BVYQckLvDuJgaJRf0Z99ySKhr0jjc5v/aOIWk+j7grgNCsXBmKUQMw+6BpS6kaT6+hbX3NBs5X0cfaWpWpGVxgUivbqsnw7lkmN3N/kpCeSkHDT36JmOmyNE5dhm5pyAnUo5V8nmYa9gBa8odPa46DcvmHbXdbMiFfMH4vm2B1n/YbLXNNAsYJ9Uv/RUFAVYlewrWlMVlOlbJYmj3weDoOt3/3Uj54YIP7SaLctPPeE3SssTUf4m6GWOjHK1DCsBKSoW2DZaYG/RH0zYBwwLo4Ud1JiHIDnoX5kBktGUTSQy5CgC6+HADLqMJ4IalbadGeDhK1yObtIa4pjfCAHpMTp/oGK6OP4acDe/TkV+/XmvnUsAidI3GjsA3dcZV8sssBOQTaeD7LDXGBY+FciZUjceuhKFcUwkPHcWIoZcB/03HcW0u/gNh7PCCMEzCxbMtIQZjbdCirD9cxiw6Cnqdv0Iz2jWT3fkV5/9u3MLIFFeCGEl82PorARu/svNdopr+4bJtp7jKEYc1Jj2mPfoc/gHv6koaFuGh/7Vvz6sn4abjanvWLhjpHnYqrHnth4tFet+1OAd7yPRmiLxM+CTiNMhltI0coapfx0CMsqlpGRZjIeSl8BbRRfCl3kh+ns9UJzxT58bMx8IBQo8LkyoQPi4Q7iDa10J/MysCOpuym8873U7EkCifAS0t1HY58ToKNKpDv7uzDgoKVV+HgMK5HRQ86CR1Pf/xrt8CVTQH9t2ndfonx8PE68lSQhhZeO+naBQskajltXr1cyu3KGFx9U+PgSv6lel1+7J6tKKKkv4Zl7qS3ejJ42gKa9+RvmJ+VEoHQmaFF0xw3lC17xxu8ABYvw49f6BaZiHIB2O56T8NL2A/zkLp+dFV6DtnBRCB622zc2JYUZRMcwwqS0HPj516rSsrUOr9XracASe0yd+sOfYocNyzVeulayXyYWHLpbDjaMSb7qyeTKWj9345l3RROWFkK8sA9SE1iTZCZjxgwSffy6TzcMdFcPpNWmlmjJkzVNqLn730rpo4EG6MC4PO8q1x+OuO5nve6Bgm8v1pwG0Xr2xItVKE8/kEju+FZFI1Asl7PaUrr7qWnngvR8kFx6+WDpnYrn9prYca14qz/zRn00fdvfHvt/kcmeYQ50aIdwNAVzg/IEOkJjFwAougjbE/pdZmFB0LfVldAyBgeci/Swd+nm1WkP8SkNc9P30jWGOkkIgKzBFG9Wm3OXCu8hXrrxW0m5VNk6mcv/LHiFPeNxzeg8+9v1+XS54XJ6dHQHpKQeIXsqBmd16oZcleZDYVqvnGNk83BFBoTNajRqumOYMLGT8U3RuSLSsRpHpo1GDUXsNjmclpGIkUdhJ6+sb0umYlS6Bvt1RkSx2pbMRy5mTbVmqXSCHly+REzdtyC899+XZj3/vr7iXH/mWut6wSygthAQLkp3XBRYYzeLjibNxJD3H/SlHInPqr9YrUNRLsrAbwTSMYCYOji31epNJzctxFPfAx+j7ca22LsbOJIEA8r11X5al6hyR3mZFHvaA/5C98mff5jblnnsyL1daCFF2dywhhHWsNQrwhROTJbg690PKUPmsdg9BzdIkvqrCZUt2ngu9eMMkpV3EZhdJ4by0uwvEj6NwoZZCp3BByCtZ3WbQlg9hFkXiQK9ztQjvGUZeMCORP8P0SkZg0r1bwS87uT2Ygr1VJb9LOryF4rXGFKoZOpMfD7mysSyy2RzpZqBquCrpWkXWb8lk81bBM4/IvS7+t/KYb/vh7KmPf37nxU/7Q/cHHvm8PZ0Up17OD2dDJ9z4nj/6yLP+NqsmbpigJeF7XahIs9h1Owbxj66cRCdknGyltiThhisX1u8t3/vop0hVjqOq68o0WyrcMpoC/lkMI59TpwGnW7WR8CF8QdwSiU+KnPqynPjqP8qSf5s0ah0nCjd0HWAv4xxUhtbO40pEEy+fU9ZlGkzTNIdLIB7GNREUt+1wJXQkizLHC2QdDUxauY8cudsTRI4+DFdr0sMjnADlgz8fJco7KLRo91HwXC/JZgoNAjQBXyzkvF0U82Mp3D4+lC/e8DF5z4d/T9LqWa7Q4uQe7uGbBYiRmgvlN7xoQ99s0HLhNAGaqJSj6Ehpryd19L/YALRaHanXIXzdhhyuXCrP/9FXTyuAOzXKZ968P4JOLTuwZKS9KT9llFmgFT4MpAmCJm4EGQnR0Ye25McTQHqcDUaWyVB8t40MNco1gfI8jnDNJ8PmdfP4mYexRG4e5U9iZYDJOekMYYrQh8pi5o3SNxAOXjPliXsQHi2vCsN28Dph85enT+8lbHlY/wKQp365KBjGxEezb3l5SXohdyMLcbyCdGbya095h3u+CyBRugBQmZ5d7UBBPEiwmh1+enYbQxkGNbmL0NpHEqc9NPbQfinniLj8CC2+3upK4gRjKYYOmUQJNEyS1eGCyrqqvfktB90bcw5C3iCAKVQ5LQp+MLMb9ZB9NkAoAhgn2pjwT10KKAWS6yBhlu5i9VEuR8mmHYzZ3GxxT86+X5xm8up3PBuJXWCeaoCVYW5jtR4o2PJSW0EQwWNGKOmtzAYCo9lt+iKYtex8UwvSdWHGUpGTOVMl9PRGuBRS5nK0S3HWHqKydmkXzzBbOsxDqgshhGxESGBs5IvbUFhNSWYnYEfiF37Mj1oBvJPGO8Hj+aHCPYXYYPMTYjG0NI9brTbMWO4c3gv+zztehRbh/EZpIYQERqxcszZwZxW4G1Bz0sibKj8KiL50QuYCD/K7dfwWVga1Z3pDCbyhwyCY1GOqGXDzfIQYdXv4eYlmJASKn/QuRVxGDBeaNHV9QYWgofHF8SviVJBfpA2BjBBuMRFROiwkDlpZmhHFOb4iUPxKFmwTyRVK+ng2NI50uuhlRpEE3DqxgnSzLnDtuU/65VIfT7kzorQQwgQNdYEuWl26B41+32YoKdzmjvaWW2uKW6mLeFUY0ugnoa9EbeCSSSGMJDKjoyZaSRd9TnN/CJevu5R12T9javmKJquC+8bTHXdOF7eq6yMHlSxxAwk5KONUJWisSK3e5K5H4H6jgSA8uIF7zvN+whZUX1T0bF5Q0CeR1YbUhDzn3J9twH/tx95oE3VeY45C4FwKF8AOzB0Usjk4CChXguHImpQ7eNGHbz5DLYjUV8StLuOwAZ6uq+bQ3bqgBflKiueGYNbx5Di98QRBdCFILjTPvMSU6rSBujFKdPgctMWlP5WPEZ7MrUuYoV/qNKTaOCre0rIWBD+EAjHAIbQj903hKHZeX4SpsZHKbS6oBhxEv0VDsjFYb60jfTWkGrWDRoL885t/+pPhjbdc81sIsmJCnp8oLYTQgAFbM7ZuxUo9EICJzWQZ+zdkOpMhtvxmu4KqSACm9Fcl8Vck8Zpg4xpCQnPgOsQAYRAeTD+fq07uqpYq76pWZfpzrTzVZU/SnJPpmZ9uWodJugplfwRZRn4hcGR2A4qgFUBbQgZFQdkrWO23vLysgzMUPrPyxWP/1f+XKz74swi2bkKfn5hDE3In9Jou8WGBUhgBOMbsmEa8x5JdmsStxAdmCntz1ARo63E+CqxYZSol9Gs8aEKP96itBvKgAbhLFrRfuiRHjl+OMMfkTMuXXlYH+zahwyrSCfmUGkJXEAWorLtTQvHrGwQe+qdjiGar60R6XAkyqVZSh27gowmBhtnoIoLguFxw0f3l8AX3QO75uTCUIaSrF6NcUD0sRi1Ks1WYls9AKCeDzyBYLzEsIJKtF16zdTmJuLCD32ugScqt7zkwQz/G9cTHPkc/q3A+o7QQQpDQnTJakCNc84JxWOB4OjeMBJiBWlA14SA+HUIAk2cQOHFXpL58V1k9dk+pLt0VQriabUb1zKleKMsXXibd2AOzutJLyLTb3TAFJd5oF6po4Ep5l89IMpCMJSeoQa5obvr5fdSDjpOiL5h6aECCC9EXvJsEzbtBC16AGxq4h3lHvD0zA0CNa7WvGahhcc9fd2XBXbJ1nhDp6XZ7srTUVKF+2VPLf1DzzojShZBlaSVD60bYVvJAAX5CswCXaaI2zBlOKZC4B9MUzFm74N5y9JIHSvPwfSR0j8tt69XsGyeiLKuugpqgJVBDcAwauCn6kmkFfcmxbkXSKgRiHpf3w1xOYSqPoyxYldgFA6NB6SRVaUWBuqHUnNg9JCvH7i3LR+4j9SUIoRwCVVEGHCnlZL2pJwsjiATqjbtk54M9uwFWgTZ+Oazgs7Emn7Q3OtLk4AzDIYUptPLL3/qM5MqrP/1nCI5KOn9RetnaZuf0E//4Y899q1sXt5d0UPAceUN9zrhszZ5bl5PMSZTK4eZqFm16ckHtXvJ9j3mq1OVi8FBVPJWqAjOBcfSVEwW/yNPGOWM3m7NS8Owjma4oakvFC8GULcR3VqR1i6zffq2cvu06WV//hly4ylG7yNygsFqZdw/SuR023FZGLwcKg+U/RsdnbXX5+CQx31jg/Kbn+VKtVkA1ZPVoduge3yZSOY6wq9KLfGjHOhRnEzGjAcI9FWhQRmcGcmAx8JuDnGfUPrMrcco3FfAsXbbG1S2QiMCTLv6+eP0/y/s+9vsSB6dFP3zMaGBhUMh1qR/Qt2Hy0Vcoav7qsUObCRngO4IVr6LaL4lwI8IyH164KsfdByXP+7EXndfTFOWFsHvmR1//kWe/XWqp2+N+G+YD5yj60S3qIH5TW/bcujsRQk57p9Ijq+LpbF/JcPlysPyxLoLGUQdRdMTzYZ55oGQdGTktUeu0dDtthBovSDH6LZPBfJu8lYbmhWs4eT/jYTq2ujoPqgsMzNLNIKiib1URv4b+bgBzewkmqLeCPFWl00OJMEwNLST+uNggwB+jM4M5sG+5nE+FkH1mB+Uf70gILVgDfeT1BeHTUJxiZB2zzmtIM/PCRT2V6Ej2q0/5E1OZ5zFKC2G7d/aHXvfhZ70zrcRuF8zNQj0oTUgh5DfYDQvrcAM8SWQyuLwA6AqYNMR1TimYeTpdV0rGzE3rsUDrPR5gPDyr/6DS4L25EmA8zOewi76fCo8mgz/Iu5rfaHA47xnCj4wtS2aaQG1CWgggSFQjWGIBIIVWCHlvQQghfHyVZx4hpKnZr88RQmjS62RsCH3kg31Cn9NGTA004iuf/J7CTecv5ioEW/BmhE3P5+XCHYLJ527IFEqbBLIKBFNbfIGJBhMIBy40iPhLEiXoX3VqEm7WJGpDm7hHoTyPjneDC8F3F45xj6E5P4a+I8JVEL60exjuElwIivZBR7gUsADpRB80hhtBc3ZSTzphKq3NCM0K8tINYHYj6ygOFSw2T/p2CevJlIcKBIWjLyC7W2VsiI0Bvx3kk83NTV07St5hH5FK8jff+uPx57/yiXcjyHxbV99JUFoIoVV8ttKmw70L/WnUnC4B06TATFEmIbEVJfMA1ApKfB4FjsxmQjEL/ISXS1NU47BhWdEIzVUz8GW7QbYLKhWp1A+JXzkijndIwghMHFWkF492E2qYrDHBrcHl3OMOXC4Ch4YY5W60I2l3M+lyfaxTExeCWa0dgowelsbKEWgxpAF5pRCG+drtNIZWg1le92GlIM+6Wgbl0C9DDsqoP39YiohbyXyFiD60MjRAXuY8NKEQN1K9DVsEnGDkhk/YF+To6OZGR6csOE/ogXdoPH/2Sx//HgS8UW85T0H+LAVWqu9XwBBcdWLMESpC426nwXwR5wHN4mkSK4kvm7oBxKeKlpzc48MMCju4xncLNlFR5lPEDpmGr/7Q3kLdwroC45lqpiXl2/pnhwjhlMnULIXQwZ4lGw3CmDy4eJYP7Vjxa1L1GqDRrgcmNPN649ydELdR99FNgzuGlqqrMCmXpeo2kNeq+jmJr8RXs9gA1WuBNNA9rCHbNPZqENYq50gRlmFUkGDaC6dskprxZ1lo+SAu1iPi6YQUC48L6rQGSBzoctgtQHguenfQB3e47A51q0KstVAgLWS9oCAPeDBF262ezhNWKlUVRt8PaOlnz3j8zyGB5zdKCyFLmQXLNYlmimKOKPqAQOatZ6p9SrSzKjv0s5UJ19bvoG5Vxgg6+aGB9ZiVDhRm0cFOSPOAKtBDuFojuTf97PVh11xHgWb5+tccpuTRQEIASQPNyTv4y2VzrAxTb4risVbWVnAxhpkn5Oe1OU+4rNrx157+xvNeAAlWS0lkLjUboUywI9BkhDCjkh2VKmUhEOsm5xhWOI9wSCZTQqVz3WbGkVEHLjTmuUpQbTsjDwLEaYd5XZ2eYa85gsaKQbRvkDboQ74Vb8SyCJrF1Jx0cy9ADY/CeRHkEy5Za1BdA2y8+drVK9/yrPgr137hT+B1Xq+aIaeXAttAdSEcFEZrdo6jSWBDzA+tmXAQSBw7MJ+4tGqQtEISNTqaRBF8SWQSttg7+kMy5iWTBUPmgwfKnHO4zOd8LuPgEX/LucbKgCCjLDmc4ziJLpFD7xJXItQvR5IHQmjSivpg3xJ3TKtfCwpdrVbV9wkpkO023yfkVFLm/MPH3/dUBKEFfN6iwOGzAYWoHwmlAO7G+4SGg40A9isXRFeTp345cjYn81AQKYBo0nEW7ITQJs9LfuGY2y0xPpue2VzzLocPc3xOF/EYl29Hbnf1nUPQKJdlp0B9sgkxPUOWrdGMWUJLg10GdhAG9WC1ngqlugOwGouk7xOCumGob/5XIYx+hc/HdTdzfurJv8Qu+3mN0kII45HqR1tBElu2STQN2pqmqHQ4NElVzuivLFFIXrGmAcZcjB31eQAudHaerp26cyNPxziXxctHjHQZRgduSEiLLXyIXIq+Ij+OYkIb6Bv9iJMCyeZXlwtOgdYvwFU+5Ic45jcg0NtEn/DXn/KG0vx3Z8Q8hYAyNMK3G9+i0OVUavJoteLYVJr5RfKKgqzNK/x0oIBmK0f2GIqtN0V2v928qWCymY45XBah9oAPwOXyBo5+WmJ5MkcE65j9NguVaUC1W64dTV2ZMFbzWfAKyfAJ3ydsSbXO6RgAD3/lj/3NQgBzlC4I6D/WoRbu8HZ35WGEj2+5o8pBMIFYwbk//3Ke0ApVaKtN4soNDuyQbWg+sa+4325O6EfRfJvHNX1cGhf772rjp2VJ09TMERIsax0bzQfgTCWw6cE1FT7WC+oLblHwRsFqv5WVZX2Fid0Y8s1L3vGD6W+87SfS33vzb7IQzmuUF8JMd1tz2LqFITvvnAMcT2xRJ1GMfke7s44qB1P6iXTCTfnCVz6H81g60SYqnu8X5uKK+sctMGU8abcSOXN6k6wCzx4Ifft9d7l9OmgnbtZBnjo7cJEOjmvM4+qmUK70OhQ5lCt+brr161rmvuvJR//lo1CbYBHUNd+Gp0CRcCOEj2bldPkhD/DdwXab7xNWpYL+oH2fMEnS7PlPezFbgPMacwhhqh1pVAdatNK3bwVa0mo1EL8G09Jj1UcwW07JNTdcJTefvkGqAQRd2ui2xMLFOVwySrOIj63X67KyfAiakNqQ6Rjj4kaH6yzndfFQNdvGuSBlTMugZV1Af5mPsi5IoS6orIuYvvq1a8WpeMK5/9tOnZCLLjounbQtV6Ah9Guu7lZn53LzlA7BXhuPwfuEdp4wf5/waYvF2wRrohSgvzxqMMIy0U7gBT6EmQaS0YSOH8nNJ66Xr153pWzKSVR7iGtt6YIxumkXgmq2dYiSWLrQxLoQOePK/DGU4PoOiDtZC1efjHMde34wlKWk2lyUpoFcfv978hVEufX0zdI8ymV6KGO3I//w4ffK8iGUHzUeOq9JfydkOmYSqQjt3xq2UJhQIPAIrab2Rkua6BPSmmUz8htP/KvSvHdnRem3KDY6p5/8+g//1JuzRupwiVlA9aSvMo3GxPi50Noz2yYIFGw9WEXPpJm1ziTSrB6Te9/9gfLN3/Tv4IfKA6d4IL6/GDgcRNB5JomjvC7ZumsfZ3ddrnFUzmEWR7kzaIJJ0CV/cFmA87ic5jNJQTxITxk3cRPZ6K3JZvesXHjsKASwI7e3b5R3vfsdsta+Tbh+PEJTmLo0PbkXCPvrFtTEFDyUU35ODPcRIYN6S8XjMjXUVw8NLSwMlivfJ7yk8k3ps5/wQhTy+YvSQrjZXXvC6z70nLen9USFsOL6uvppHCbFTzOnl7R1TWHS44hjRZYbR7KwlUprPZLl6mF5xMMfJRceukSONS6CMNYRHkZrl9vd8vNsNWnUjuIJVMlkAgrEVteYjNv9Z3Wn379TmAGPcbGPcZX1ec5f4894OHmw1eUmT6P86SbSg5C1cNbF72mYo9+Q9/zfdyHyjsQuugFcJwpB1f6fxHk1G3mxpjA/iGMaBHM+DAohNWEcot+JCGoVamGYv0kqlfBI9pKn/fF5b5KWFsJ2b/2H/vc/POsvklrs9KKuVL1gR0LYgSCvHFqWCELYbnX5fiJ6/WCcbooKW5Zbbjgpl192H3nw/R8u97z0XrLqHkN1m6F0TtVz4tmwpmXLra4R0O3+BRcJnHh9gjsWQ/rAaINh0HNC0c0EX4WCsRhRmODiZ6t/KnF2Vk44G+1Tzue/+K9y1deulKVDgdx08/Vy7/veXb52/dXSaHJaIaYo4R4Q15LiXgohxdmuIx0nhLhBhdCH5uOnyugyDq6eeeWTd+eb7+c6Sgthq3v2P7/2gz/x57AanSgJwQLuDoRQpBv3pMo1hWgZ+eUejqY5qZvxjf3l5iFprbUk67lCa8hH/2ulfhja8rAEPlpUPDjMzE7WGpny2VZXp7pG+M/qphwyHHedeShZftsBVjZRzQUy+MTGQmfUR/g76NpDeL5y7VccL8CRG8mhow0dnY6yjqytnZJDR1YRlnmE1OnMlI+6Ma4xQ6kFI8Slz2FQWyx9UBNySqK9icZ2ZUXCLtenViTshNJ0jqdPfNQvvvHyu9//OQjKNvW8xDx9wie99gM//lZvxXcSdEicJN2REPJLQuj063t/lQr3iYER1O7om9jLzWXJIieLQwgTyHMq+ooR3U47lFanJQ203Jnu3Yn4QMMuOWiU/6xuHHEx8/jrlKBR8jmru1MZ5hsKiAWEyEa4Jv7R1ymSlVpVTp9dk6MXrCI9oaxvrkl9ie9S8gtKsHTQVYC0OvyWoAowhJH98oFQU6BR/vqcHBTKHPz2PNpVXTHT2uzi3JNatakf+KwmR+Si4Juyn3zCC89rk7S8ELZPPeltn/u5t9586oSztLIEIYnmFkJCG9lCGB6TTfQYDG7i5ltzdlcTDgiYEPTgxD5fBNb2Ht7DrpNyTmu7/8ClUQUXNMr10JTTpdll/RMc2+tQ3VvCl3W565g5Gw07Aj1cRlsx/gkUAFNSjGfYNaBFkR/BuzglAR/9TpxNn3EH5U8tbvy4mJ5lZEorzkOybLgpLOsY93AQjyFjXIcwep1VefnT32EjP29RWgjXO6ee/LbP/OybT5w97aweWoVZ0UZZ57UyAlPjR8s6jsFmSdu0MNPjmMwD04SA5vNOkPLTbhPA54979iyYlL5RH3lRoZsRfKWJi8QJCp9Hy0gFkH1FPNdF/J4rnW4ojcaSLuBOwCpmoUcor3nSP5z3AkiULgRO1puWzEH50twZL4ALTAdLbxJxyGPccfF8HjI2xFYaFW4cqXhTa5LMGQCWgubkYm/VelGqo98trh2tVoWLwtmNrQaevOwtT4qvu+nq/4mARpLPU5QWQtfxeikKlttGxDGXQNnCX2AUqLkm0aywYYfvs+fjaE+hZuxAACmYxnQ1gsiJELbR3IuosdTU3dZ4NepxewsIaNJzP/Cxd/8UvLiY9bxFaSGs+LUT3KKQS8eyNDL1sMCeoShMRaHaFyGbCUwDqM8IapiCzFREtVrXAR4S909tNGrgoUA6rbY0oCGf/aQXLL5FkbszI/Cq34i76ICjhUv1++gLTIIVlnE0C4phh+9jn3ES7TlyQzY/gTiSpVw82+egKmee9LzRaGj/NOqFOhKexpn8yhPfXpr/7owoXQiu693kZlUuopCMc2gL7BgcChlHfL9h3HHx/CAIv4byPiF/zYu/EDLdiIZdlkSnOdgnrFWq2nD7ji+vefpHFwKYY56C6Fx06D4nuGUfC7O/kn8uaE2et9A+1ByYVYPuNUz6jQAWR1opiI7DKSVXvMDTKYkg4AbFiVS8mnDe9+Vv+770VW9+Jm8+7zGXBD3kHt/1AS+tSWede1C6aPNY6IyKw+moEs7N5cTz8YTWPOF+pGhFc7LmlmW04vk8tFOMS9co2OvF/ExDMd7he1k2RdOSQ/sk3Tw3p2L4UbTnyLWgmdogD4AgnRRQEt8h5MZO4BBdbF4NanL6xIY0glU5vMIP2SwwlxBeevxB76p7h9NG9ZCZ7EZlW2EiI+1LX+ROgEmDWizHOzrQJGgi0cdjQ2wSbNRjjlQ2NjalWvF1AXe9UpP2eiR3PX6Z3H7Lpjz3B189F//d2TBXISw1Vj9azY5uVLwlFPrWKR4rgHcWQSxqqVG0GyD7nivERWuW8uSPBMpGGaACAbRf5U1CkWbtkMQdX179s3+9EMAc8xbEqYfc+3v+1o3raAFRHS4qxfN0oa4VPsugRYYdRQtMxqgyK9JBQgWTv3ZucAtgpkLV98KOvrQddXsiiSO1YEVe/Iw/WQhgAfMWRvbAyx/x6jSstzK+5QJmoPBZAVyYpXdOFAdfBmBvLxdICiNtbLWz2VdMpFEPdE65WV/S19V+7vGvXQjgEOYuEFTIF7/rEU9/O1ccUeDsQECxhbaCOYkWmIxRZVak/cSodaUqlqoJhy5xwAa0vn5W+eKCC44hrC8v+Z2n7MNo0bmFHbVKl9/lwS9ZaR7tFkfpCMscVhjPZQwz/TDtFFZxnItEqMFD4UyLr7RxyoJnqSwvL+tytbW1s7K0tCLf9m3/vh9qAYOdmga3/8cH/MQb6s6xzE+WxE/rmZvB/OCUhWpEbqnHvURJCQh+uImTueZbePa9tN2AjaeMa48PCtufT5NvVspv6WPS9eFrs1J+e//+/NQAmi5F3SZuJKmXZPzADWQP4Ry+JSxuUpX2WixBuiKdNVdWG8flcd/ynPN+O4thlH6VaQSaH7vqL674xOf//h7VpcxNnA0527o9C2qJNFerzkZnQ8Ik1s8wu05V/GBZfK8haeJJEkbiZV3x+UYGtKl5Sxw9icRs/kTNypE1a+5aU3eLJuJW0gouFoagZ+yjGpctsfmQKe8151uvi04iE8VyKB7HSEf/WTmK6eHWi0yvJYJ5sWQtBMZTvM58Mb++ww2QEn05ly4ZndcD3YXOTHTz2QxLl3GZZxmX+3haFNNoj8MwxKERHvrR216jyzyQGJ/Nt5mLNHOSESsuhw1rj1MvlJackUod6XUbEvdQwl0fjXFFqm5NgqwhS9XDcvZkS+5zj38jT/pPv3DQrd4dErshhMTdrz/xhdf/6Xv+4NFSWXeP3aUJQbxZvnHiBlk60pBqPXCCapOCmLU2YwkjfqUHFVRvSNRpoTdBBjAR2fRYRuErU/DDaZ9xcGqYgf4UvtxfXYJh7DmYWw+K9xfDmo/aGIm0/mC+fqGQ6S1wnIdzNQ0WxfiKsOkkhsNYf9vNGnd9nBBaoWYjQPTjG3K5W0ER1r8IGydd+yw2AHT5RjzB+3jduLngQggbxzw5tXa7RO1UVmpHpO6tSG8zk2gdYcKKpC1fvuORj5EfeNSzFgI4BrslhES1F7ef96fv+72XX3/b55eOXlRzpNKR+pIvZ7tnZLO9rqxOpnEdD/2EWDqdnjTQTyCYjmJaLFNSSHjIc5INx6B8a54LybWPkl8nii53CR+cq6Pn1o/XLYr+1iVsuorpsyBjEsXwxPA9o65zeVecwEVDQ4YvYsDw1OZGK9kw9KPQ8Do1qoXGmT/PusPxDl+nJcBjxmnzwnuMEPIzZh31G76Prtmoa0OOHTsmjaAhnbOwXnqONINVtH5VnCfy2Ef/YPrtD3z81snkBbZgN4UwR3bfz1/zkbd86FPvephXC50s6EksmzBJOxKl/GZ5ApPUCCM/ENIDE3IduGU6oigMZg+VPhPb9MKBAJJn4szhFhT2niIRHBQghq+B0VQjckt264do4WwNZ9M07JrrbmY1lb3XYKCtkV/Hdb1c+9IxWpTEt8wjahUwu5lv1Xu1jKzZTH8obz4LxOcyEMtK44Ow0Fy34Y1FYVxzf9EcL5rp1q3VuEmy9WfemBY+zzw3DGlCs6DNc+k/OBdZba5KpxWia4H7Yg99wB7qpSrfdL+HySMf+u/Cex59JHdHXmAC9kAIFUErXPv/3v+xt/30F6/+dK254juHjtSl0oBmilqy2VmDcHXAkmDEgF+dGJhDhG31STGYvHhO9DUBtKQP5nFz5iejF4ngNgr2eNT1Tse09NaPzyiG4bl9nm0o6GfNNd5vzxmeUAEbCm+JoL/GCQEMYY7yOw+ugz4i+ZvLADOUCHifrpqraG2sy+vs4ul+qDjnffY6nqr30bXntWqjf1/Rn+fD8dG14axr47fhivdxEG7ttliOrVysG3P12olceOji7GEP/pbsm+7zzdc1neO/hNp8l2Z6gbHYKyG0uG8nXnvRldf+y/d+6jMfOnrbyW84rhc69eVA6o2K+BVHTrfOcC1Un6mZniLTk3iNZhNdgoJpBjJSWbZ9IjCXZd4is5EJi+fDzO176PPAtdeLLv3rtSZMxlBCmM8xv9cH5vN8WNoBB5lcSWKkty80fDgEF8m0QsV4eN2EM8xNf+5Arfm1O1MjT8wrQX+amcyvbSRsPVlhtuXF61b4i42HJTZCBMPyvOgStBTsufXjsyzx+xEETdNiOB57WU2ccFmq3kp2t7tcKg954EPju19076ursvomTypvwG23680LTMReC6EFF5k+IpHOD7ai0w89cfLGu9168sajm53NCsQMFlNFqpVqBsZDYpwsAUN2e103iiPul+eQ4SzTERRQy7TNZjNnGPpzsIKCm1DLIG+prCyv4DL91DTsXzeDC6ksLS2ra69vcSFBjXojY7wcJVTtiwRy5NCHTe170AVBBWmJtG9pTWeObFYqEFLkh+mi8Ia90EF+cNWRwAeL6vUg871aGscphcFBPKwPxw+CrFZleQQZhYR+jDcXAi0nuh7M3M3NTUgHL/VHmHWzXV6j35m1MzAUcIDbfZ9+fSHW69ZSoJ8JZmDK1JBehxp0IIi+h2d7Xsr40Uwkd73k8vWjyxd9vipL35ffukBJ7JcQFsGa5pdWjqCq7wGXIzNUAZsgduB4zDDsS1DNsVPDRNqE8hqPOR4DncTdZ4Xqgv58iS3/iguaadWxThsXzuIYaojnusiD4/oIxw/zOeBiWcM5UcuvMRzcDGFoe/E7ZoSeIziFwmF8XRy04bJby+c2QRxO5JAs88N0MRxbF163+eF1XgNpPASfxzTzOidYeT1/rvoRiEbBNPE+ukwvn4koda8WEq/ZsHhmxnTxOssqv8bi4/0q4LQx83NTtkNEP0uMn+qR8fCY2s6W3wJz4CCEcIEFFijA2HcLLLDAgWEhhAsscMBYCOECCxwwFkK4wAIHjIUQLrDAAWMhhAsscMBYCOECCxwwFkK4wAIHCpH/Bx9pBwh/o+NjAAAAAElFTkSuQmCC;" vertex="1" parent="1">
          <mxGeometry x="-1227.5" y="797.5" width="225" height="225" as="geometry" />
        </mxCell>
        <mxCell id="_ZCDtcRAEFlEMNslDuW7-22" style="edgeStyle=orthogonalEdgeStyle;shape=flexArrow;rounded=0;orthogonalLoop=1;jettySize=auto;html=1;entryX=0;entryY=0.5;entryDx=0;entryDy=0;" edge="1" parent="1" source="_ZCDtcRAEFlEMNslDuW7-17" target="_ZCDtcRAEFlEMNslDuW7-5">
          <mxGeometry relative="1" as="geometry" />
        </mxCell>
        <mxCell id="_ZCDtcRAEFlEMNslDuW7-17" value="" style="shape=image;verticalLabelPosition=bottom;labelBackgroundColor=default;verticalAlign=top;aspect=fixed;imageAspect=0;image=data:image/png,iVBORw0KGgoAAAANSUhEUgAAAVwAAAFdCAYAAABPStWJAAAAAXNSR0IArs4c6QAAAARnQU1BAACxjwv8YQUAAAAJcEhZcwAADsMAAA7DAcdvqGQAADXYSURBVHhe7Z0JeBXV2cdvQsISlrDIvohWQdmtFhAIRWVRK9aFtYpfrQqVxa9qhVrKpojWrZ8QrQKlKPaTVdwAPxRQlrbIKkIQRJAdAoQliSRk+87/5px0cnNvcm8yZ+4s/9/znOfOnLnJvXdmzn/eed/3vBNTUFDgI8SBxIhWSbRc/xohDoCCS6JBXF5eXrOsrKyG6enpzY4fP97ixIkTjc+cPl3nQnp6ddFfuSA/H+cmRLUI8Texqq9K1Sqxl7IvxYv35sdXrpwbGxNTEIMWG1uglvE+rFeKjc1PqF49q07t2heaNmt2Sryevqx+/bPx8fEnEhMTV+N9hFgBBZeYSZX8/PyGoiWIBnH05eTk1PzXv/71yxeef37Ipk2bmufm5sbK9/rEe2Lq179Mrvl8p06d9hnXg4G/kYtBiRUCKxeDgs8A6n3G16pVq+befvvtu578/e/ntm7derXo88XFxaVgOyFmQMElFSItLa3fF1988YtzZ8/WOnXqVO2PP/74pzt37mwkLM+4evXqliqOCohdWUJqNRBmfK+WLVueveWWW77t0KHDAWER5/7moYd+Ld9CSMRQcElZxIlzpJ5oseKWvvq2bdvuefWVV+776KOP2kEkwxVVJ6KsX6AuCMoKV4Lcs2fP/U88+cTHPXokLUpISDgg+o77/4CQIFBwSVAyMjK6r/3yy7sOHjrUZNpzz93p8xVUh8i4WWADCSa4ocB7sX86dOx4fNSoUZ82atTwfIcOHVMaN248W76FEAou8YNof7xoMW+88cbf/jBu3MBLly5V8pK4lgejICsgzEp8FZ06dTq24tNPH6xTp856sXqxsJd4EQquR8nKyuq4ZcuW/nl5eZW+2rix44wZM3rn5+fVwDa7+VOdRjDLWLkgWrRocU5YwJ//rHPnlA4dOnxbo0aN+f43Ek9AwfUY27dv/91tt976XM2aNeIuXrwIqzYoFN3yEczqNWK0gOPi4vIzMjPj5CbiASi4LkYc20YHf/jh1vPnzyd+uXZttz8+/fS9derUjqWYlh8lqOXZh6WJsbKABw4csGfKM8/Ouuyyy44J63eN2JRa+A7iBii4LkQI7E0DBwyYdezYscRDhw7VhjUrN/kHNQW3/FREcAMJFGD8TyW8CQkJOe3btz8vLpQN5GbiAii47qDWyZMnb961a9f1w+6///EzZ84kGANeZooEMYdAsVWoY4TtEF+sw/XwwAPDvnnxpZf/UqtWrbf9bySOhILrYMSxqz39tddmrlix4roDPxxo/mNmZmX0U1idT6AgQ3xBVnZ20Uw94jwouM4j9scff/zpvn37buz185+/XL16QlHgi0LrLkJZwQACPHbc2LXPPPNsL9lFHAAF10GcOXOm76RJkyauXrXqmvT0C3UhsMZBScG1P4EiWtoxK01wwcmTqTHw9fbv33/n2HHjPm3fvv1E0c3qaTaGgmtz8vLyLk9NTf3prf36vZmWdqa+7Ka4uhAIbCTHVQmy8vVinS4He8ODY1NycnJavZ6c/N4dd9zxWdcunRcbxZa4k/KILUBth4YNGxQgUFq1SpX8VldfnZacPGNpVlZWP/kWYhNo4dqLqpmZmR0effTRvy5csOA6VaqQ1qy3MIppuMfe+DdABdk6duxwftnyFaMuu+yyrWL1gGjZ/g0kKlBwbcL58+d7Js+Y8dSsWTNvQ6Ft2e2HgkvCJVB44edFX61atbLf/cc/Pujbt+9QuYlEAQpulMnJybmq9y23fL5v33eXy65yWTjEGwQKauD5EbjdCKxe+nijC3d+lIBFu2TJkhlt21y7a//+71vIbj8YRKrJLkKCAoE1NuO5E3j+wEXVvFnT/Mrx8QX33nvvztOnTz0hNxGLoIVrPdVeT06e8/jjjw9BoEP20ZIlWgm0fDmRIjpwZ1tEdnZ22+XLlr10TevWR6ZNe25IWc/uIkQnOP/QkNWANv211z7Mzc3tLTcTTdDCtYC0tLTeV15xxXLjrDBCokWgtQtg8bJcpH5o4WoEQjtq5MgN7du1/QwVu4Kd6IRYTSj/Lp6oDGu3Q/v2qSkpKVNEd+PCrcQsaOFq4pWXX14yd+7fbz137lw1nNxKbOmrJdFABdTkqp9QBgDed+ZMWkG37t1SV69e00h2ExOg4JqI2Jc1jh49etvDDz00bdeunT+huBInooSYaWTmQ8E1j/i+ffrs/uGHA83Vo2souMRpBFq9KpsBTyNetWrVUzVr1vxffwcpFxTcCiL2X52vNm4c8fDDD01IS0tLkN2E2Jpg7oTSXA5MIzMH7rwKcOjQoSGDBw/+csCAe6fBVyu7CbE94dx94T3qfSqNDJMmaicmXlqwYMFK0V0V20j40MItByiZ+OGHHz45ZvSoMbKryBqgG4E4jWDWLlDncrDtqNGAiTuHjxyl0RYBFNwIEZZsr6FDh87c+c2OqyiuxA2EElwQ7BxX72dQLXK4s8Kn2py//W1u2zbXroHYyj5CHA9ENbCpfv8bDBjF2ThTbexTT/1TGG/t5CYSAlq4YXDx4sXrXnjhhWmzZ828FevqpAt2QhLiFoziqs71UNYwXAzXXHPNqR3ffMPHupcCBbcM0tPTu/3shhs+xjPEZBchngIiW5ZxgffQxVA23DkhEBei2uvXr5/Qrm2bdRRb4mXCvZODi6Fpk8YFcDEMGjhgn/g7uhgCoIUbnGrt2rY9dPZsGkt6ESIJ5k4IFGP1HubtBoc7I4AzZ870u6lXrxSKLSHFgbiqJrv8AmsUYrUN1i4pCQXXwFtvvvnu9T+9bpnxcTeEkPAxii9EF0+YgIvhzv53HBRdzQu3eBe6FARiH9T6+5w50ydNmvhA4C0SISQ0SmBDjRuji6Fv3z6HP/r4E08bM54X3Ozs7Da/vPPOD1HdC+sUXEIiA6Ja2rgxiq7Xfbqe/vGHDh4c2r5du/XfcCIDIeUGYgtRDdbkW/yoiRKox7BmzZq3RVfrwi3ewbMW7r59+x7s26f3TGHh8pEihFSQQHEFwaxe9T5Yu2PHjT32zDPPNvNv8AieE1xxEjTc9NVXD95zz93Pyy5CiCaUwCrxNQqzF10MXhPcyo+NGbNq6dL3u5fmcyKEmENpggu8Vm3MM4Kbm5v7k2uuuWZzdtbFRIotIfYAAgxLF/7dlN3fTqxZs+ZUucmVeEJwxW+s06dPn827U3ZdKbsIITZAWbyFols/8/CRIzX9G1yK6wU3Ly+vec0aNX6oV69usRkyhBDrgcBiHKpX1YdXL/h0Xf3jxAFt3K9fvy8gtrKLEGIzILxoXpgO7FrBFZZts4Rq1Y7CjaAOqNxECIkSxnEIy1Y12VU0FRi5uv/85z+/kN2uwZUuBTwGp3///m/v/35fC9lFCLERRpEFSoiN/W50MbhOcC9lZ19bq1atXXQjEGJ/lMAGWr54daPguurHXLp0qdUtvXt/SrElxBkYLVuj+KK50afrKsFtUL/+zh8O7Pd8CThC3AJ8usqvu2LFit2y27G4wqWQk5Nz9U29eq06QLElxHXA8oV7AVbvpZwcR9+9ukJwf3LllecuXcquZfQDEUKch3IrAKO7Aa9u8Ok6+svDZ3tdp04nsjhdlxDXgLFsHM9q3Q0+XUcLbpfOndempp5sKFcJIQ4nmOFktHqVP/faa1pfTE9P/5PsdgyOdCnk5uZe0ebaa7dkZmbUkV2EEJdRlnuhUaOG+T8cPOSoetaOtHBHjBix4OLFH2vLVUKIy1FCq4QX7oUTJ046Tr8c9YWFNV7jualTP175f5/eEOzWgxDiHjDGjeMcootmFF2n4SjB3Z2SMmzmzLdup9gS4m2UBsCfizZ16tT9YjURfXbGMT7cixcvdmx19VXbKLaEeBOjTxdAC4w+3fkL5h+56667bV0/xRGCm5mZ2TmpR/fPT5486erixISQ0JQluMDuebq2dynAb/un8eNfOnXqVI3AHU4I8Q6Bd7dGPXCKP9f2gvvXv/515uLFi5KwTHcCISQUThBdOwtu7OzZs99+buqzQyG0FFtCiNKCQD1QfWpixJQpkw+K7qsKt9oH2/pwly9b9tKIEcOfDNyxhBACjC4FpRPoU/7c9Rs2fHrDDTfc7l+xCbYU3AsXLvRo367tl7m5uY5KWyPWoAZUabhh3j0pm1BxHbsG0WwnuOJK1fBXQ4euXLdubQfsTFq4BBhFdvCQwb6kpCRfx46dfK1atZK9Pt/evXt9X3+93Tdl8uSi91N43U0wwYVmKEuXglsGo0aO3PDRRx/eqHYaBZco8YTQTp8+w1enjr+Ehjpxg54fGzdu9CUnz/AtmL/Av07hdTdG4VWagb7DR47aSnBt9WW2bNnypBJbrFNsCcQWYrlu/XrfvHnvKrEFODdCnh9dunTxvz/59WT/utFCJu7GKL5qJtonn3y8T6xG/QEFtrFwMzIyuvbo3u0z5NvKLuJxlNju3JViFNqImTnzLd/oUaNp5bqYUBYuXtXF9vv9+5c3bdr0Dv9KlLCF4IrvkDh48OB1G9avay+7iMcxS2wVw4bd73cvUHTdTzDxPXMmrQDHPtouBlu4FGbMmDGTYksCmTR5siliC+BewICja8HdGMXWiF2OfdQt3JRdux7t16/v6/TXkkCOHjsul8wBgbSkHj1o5bqYYIILbVH9nrZwhdjXGjp06GSKLTECSwTWrdkgkEYr191AS+ysJ9EU3Jp9+vTZdvr0qQahbgOI91C+2+HDR8gec9Eh5MR+GEUX+qKEWE39HTFi+EWxqX/hO6wjaoL73XffDdz//T5b164k0UGnKCohp5Xrbd6e+3aVNWtWT5KrlhEtH251cZVJr1evLic3kCKUCJ5MTTUtWBYMZix4h1B3z+pOymqfblQs3FdfffVtii0JBmaT6RRbMHr0GLlEvEq0fPmWW7gpKSm/vf22W5NzcnIqyS5C/GAAYEYZglu6adqkcZGVQ9yP0dJVRh5yc62utWC5hfvMlCmP5uXlRc13TOyJEj8rxBa8v/QDuUS8SjQutpYKX7cbbzy8YcN6TnAgQbEyg4ApYgQgawHtgQeG5YtV7dpkmeBeuHAhCSlgWKbflhhRoqcrFSwUTBHzDkbNgXvB6GLA+bdwwUJfVlaW9qwFqwQ35u9z5oy5ePFivFwnpBgIllnNwIGD5BLxAqEMPeVaGDVq5J3+BY1YEjRLTU294/qfXvcRfrC6stDKJQpYGFYFywJhipi3MFq2QOkQAmh41R1Es8LCjbmuU6f56ofhlWJLFBBbWLdCbPVf+YPAFDECcMG14qKrW3BjFi1cmOzzFVSX64SUQIheVMQWMHjmbQL9ubrRKrgFBQWJ48ePHypXCSkGRA5iJ0QPdzxRu+th8Mw7qDvsaN1paxXcSRMnzs/MzNA7bYg4GjuInQqe0cr1FsH8uU2bNC5AcRuZJta1cIt5aAua7dy5c1S/vn0KHyhFSABK3HTXTQgXBs+8R6gAGvpxfn67Z8+Gli1bJvk3moQuC7fWm2++SVcCKRUr6iaEC4Nn3qMst8LEiRO6y0XT0GLhnjt3rlf7dm1XR8NHQpwBLIh169cXyFQwW5wnrK9AgLJwoV+XcnJMPTd1WLiVmzRuvIpiS0KhRC3awbJAGDwjEFtoF6oZyi5TMV1wv9q48fE6dWprDcYR52NHccPUYqaIeRujoRjo4zUDU4VRfNnGL7zwwgNylZASKOvW6roJ4XLzLbfIJeI1ILBGkdXhWjJVcLdu3Xrfxo3/biNXCQmKnUVt+vQZcol4DVi3ul2hpgpuj+7dX5SLhITEzhkByJpA9gTdCgSoh07KvNwKp4iZJri7du0aqR6bI7sIKYEMlsk1e8IUMRKoYyjfeODAgT/L1XJjmuAuWbLkF3KRkKDAanRCJgDrKxAjypc7bdpz1/sXKoApebiZmZmdu3bpvCYtLS1BdhFSDIhXw4YNCg4fOSp77JMOFoyZM9/yjR41WkvghNgfZeEqn65Z5RtNsXDnzJnzBMWWlMXESdoL6psG6ysQI2ZdeCts4Yq/r9uieTP/Wak7wkeciRItu9RNCBfWV/A2sHKVpimLV9yhRdfCTU5OfsOKdAribOxUNyFcGDzzNtA0CG1gAK0iVEhwxReqv2b1aj6Fl5SJE8WLwTNvY6bQKiokuKdPn+6yZcvma+QqISWAWEG0dKaCbdy4US6ZD+srEAUsXlUvd968d9JFV8T6WSEfbscOHU7i0edGXwchRiC4ya8nYyovTjTTz5GzZ8/62rVt4zt67LjsMR9WEfMmgRau0jjVf/jI0ZXi5VYsh0u5LVxMdEhLO1NfrhJSAiVSsm6ClgvyokUL/Z+j08plfQVvA6ENNChxzm3fvr2zXA2b8gpu1aeffnqM+hK0bkkodIvVFHnLn5ysrwYC6yt4k2BCa+TVV1+pLRfDplyCe+LEiX7f7k65Uq4SEhKdwTJYtbA0ANK34F7QAesrEABXgnIn4M5tzerV/v5IKJfgbtiwoXdmZmZluUpIUHQHy5RVq3yrcC/ogiliRKGs3pMnUyO+sy9P0KxS1SpVcnRVRCfuANagDJbJHnOBNduwQYMiscXnYZnBM6ILZd0qwcV030in+kZs4U6cMGEZxZaUhhIlnUXGA61ZfB4+lylixM5EJLhC2Zt8+OGH18lVQkJiVbAsEJ3BM1VfgRBQnjudiAT3+337+u/Zs4epYKRMdEb2VbAs2AnP4BmxMxEJ7rZt2zrSnUBKA2Kku25CKCtWCTCDZ0QHwdLE1BMhvvrqqzzZVSoRBc0uq1cvq0qVylXkKiElgOCuW79eW3ZCYLAsEGX5MnhGdKOCaDgXwg2ehW3h5uXlNbtw4QLFloREiZDOVLCyrFd8Pr4Hg2dEJ4EZC+EStuA+NmbMAl7RSVnoFqNQwbJAdAbPkH2hhJ2QSHQxbMFdvnx5O7lISAmU+OiM5JcWLAtk0cJFBWfPnoUVEr7PLAJYX4EYgR9XLpZKWIKblZXViTPLSFlEK1gWiBLkxYsX+V91wPoKRAG3As45BNBkV0jCEtyvt2+/lcEyUhY6I/gIlkXyuBsMgsmTJsG/piWrhili3iZYxkI450JYgnvo0KHmcpGQoEAIoxksCwTfBwNAZ/AsKSlJLhEvogJnkRBOWlhM7cTE7OrVE+LlOiHFgLDprJsAypOKhffDCp03713ZYz5MESORpIeVaeFmpKd3rVmzRpxcJaQYSmx0im0kwbJAdM48A0wRI4pwzs8yBbd169afRZprRryF7oh9eVO81AB47LEi37LpGQusr+BtInUrlOlSQLoDp/OSUMDyPJmaqi07oayZZeEiZ57hZDf9XB427P6IAnrEHQQT28NHjpbfpXD+/PmbaN2SUEBsdaeCmVEXAd9z5sy3sKjlXGZ9BaKAgdq0SeOQVmypFu6qVaumPjDs/vFylZBiQMh01k0AZgalWF+BmEmghQvjFH14EsSlnJygF/dSLdzc3FwGy0hQlLjoFNuKBMsCwf9hfQViBRDd2bNnBa0eVprgVn/l5ZcHyGVCSqBbZMyuh8D6CkQ3ygW7du3aoBZuSJeC6K9drWrVNAbMSCBKVJwQLAtEp1uBwTNvEcylgFc86wznQLAAWkgL9+LFi1dRbEkonBAsCwQXChk80wLrKxCg7nQ2bdp0SXYVEVJwx44d+z9ykZAS6I7Mh1uGMVKefeYZWCWqmQrrKxAj27dvKxEDCyW4MbNnzeomlwkpBq7gTgmWGcH/QwRZ/H/cuWm5e2N9Be8CF4PRzbBu3Tq59B+CCu7Zs2f7MP+WBANC6LRgWSAMnhEzgEaWppNrVq+WS/8hqOB+/tlnvzTbuiDOR1mdOusmRFqGMVLwf1lfgZhJMNENddENJrhxqampdeUyIcXQXTdB5xN3jej8HNZXIKEokRYm1Lpxu7Ztvzl//lw92UWIH1yxdaaCAStnbDFFjJhFsBQxnMeBM85KWLhCgOP3799PC5cUAyeP7lQwXcGyYOBzdM48Y30FEowSgnv06NGecpGQYugWEd3BskB0fh6yOEL58Yh3KSG47/3v/w7ghAdiRFmdOlPBVLDMSnR/HoNn3ibYnVoJwX3ppZdulYuEFKFbPFQQyyqfp/ocnTPPVDYHrVyiKBE0Y8FxYkSJhZuCZQr1eQyekYoSqq6COLdKD5oREoibgmVG8Hn4XAbPiFUUE9zs7KwOpc2cIN7EbcGyQHQHz1hfgSiKCe6hQ4e78taHKJTVaUWwLFrnHT4Xn69z5hnrK7gfGKrGJrtLUExwd+zY0V4uEuLHqmBZtNH5PVhfwbs0b9Y0v3J8vPLv1ikmuGdOn64tF4nHUdatzroJQFcZxkjR/T2YIkYETYsJbkFBAf23pAjddROiFSwLRFmfOoNnrK/gbWbPnpUrXmoaBTf+/IUL1eUyIdqfYBDtYFkgOr8Pi5N7i8DauMKYhda2KBJc0VFn65YtV8pV4mEgCrpTwaIdLAuG7uAZU8S8BwJoEF75UMkFRYIrNiRu3bq1uVwlHke3ONglWKZQwq/ze7G+gjfBMV+9apV/uUhwc3Nzqxw6dIhBM4+jfKo6U8GAXYJlgTB4RszAmB6Gxzop94LRpRBjp9s7Ej10i4JdgmWBKOtTZ/CMKWLew3ieFwkuKC1hl7gfJQK6I+p2C5YFovv76c7+IPalmOAS4sVgWSAMnhGzUcZMkeCmpaVdLReJh/FasCwQdSF47DF9+4H1FbxLkeCuXLnyDrlIPArExqvBMiPYDyqqrAvWV/Aes2fPyisS3Beef/6XcpF4EFhbXg2WBQPfU3dxcuwHWrneAYkJRYJ75MiRRLlIPIYSQd11E+weLAtk3bp1ckkPTBHzHkpwKzFDwdvojpyrYJmT0B08Y30F7+EX3IyMjJv9a8Sz6K6bYPdgWSDK7aEzeMb6Ct4Cd0x+wd25c+eNtHC9CQa77lQwAHdF8uvJ/mUnCYzu4BlTxLyFX3Bzc3NYQ8HDWDXoIbrr1q93TLBIfU+dwTPWV/AWfsHdu2dvDf8a8RQY5BjsulPBjOCzdu5KcdStNOsrELPwC26Tpk0q+deI54jGYIf7Yt68d/2ie+ZMWoGdhVdZn7rrKwBaue7HL7gH9h9gloLHUIM7mpFyiO70GdP9553dxUZ3ShsuPsTdrFm9ulBw8/L/MwGCeAcrgmVlAevuZGqq7f2YDJ6RioDzG1BoPYxdBjlE/+ix40V+XbsJr7oYMHhGKopfcAvy+fBIL4FBjcFtZbAsHOBisGvqGPYXg2ekotDC9Sh2Hdx2Th3D92FxclIR/IIbExtTgANN3I+yblVk3I6o1DE7ig+Lk5OKUGTh8qrqHZwwqO3o18UFQHfwTPcUaxJdCi3cmJii56cT96JEy0mD2m5+XXwHncEzXGjURYa4D/pwPYYdUsEixW5+Xd3BM6aIuRe/4MbGFD7Cl7gfpw5mu0wJVqKvM3jGFDH3QgvXI2DwYhDbLRUsEmCZqynB+D3RFCTdwTOmiLkT+nA9hFsGcbT9urhwWVWcnFauO8BxvOnmmwsFt1Xr1j/GxtKt4FbUoHXTEwbsMCVYZ1F1FTwj7kK6FAqOF74St+LEYFlZ4PdEM3WMwTMSKX7BvfbaNntp4bobNw/eaLgYGDwj5cEvuHXr1t3uXyOuA4PVimCZTuEJh2iljjF4RiLBL7hVqlT5xr9GXIkVg/aeu+/yDRt2v1yLDip1zCrRxefoDp6xvoK7kD5c3yW6FNyHsm51102AdYvPgvg0bdJYqwCVRTT8urqfSMz6Cu4gKSmpSHCJS7FisKrbamWJtWvbJuouBiv9urqDZ6yv4B6KBLd169an5CJxEVYEy2DZKpToJvXoobXmQDhY4ddV/1vnBUaliOm+cBD9FAnuwIEDv5KLxAVgcGKQ6g6WKVGF8CjU8uhRo23j19UtWLqDZ0wRcz4dOnT8j+D2SEraLBeJS4DPSDehbqchumh28evqnhKsO3jGFDHnI45hbJHgNmvWbL9cJA4HgxKD06pgmbJog6FEws1+XfX7dQfPmCLmfIoEV1gBh+UicQFWDM5wb6OV6Lrdr6s7eMb6Cs4Ex0tdlIsEt2rVqmd5IJ2POoZW1E2I5OkH6oSzi1/XmDpmBkrArQieEedSJLgK5uM6HwxKDE6dwFI1XrnDAe9Fg78TohtNvy7Q4ddl8IwEYhwjRYIrhJZi6xKsGJQVvX2G6NrFrwsXAzBDdBk8I4HgWKE0IzBauAVxcXH5WKDwOhMcWAxGDEqdhBMsKw38nRINO/h1sb/MKPWo9geDZyQURgs349prr02Vq8Sh2ClYVhZKoOzg14ULxqwpwbqDZ6yv4DxUimaR4FaqVOnULb17p8hV4jAw+DAIdaeCATMfFY7vjGYnv25FUseUEOq22llfwVlg0gMwuhQyr2jZ8oRcJg7EikFYnmBZOCjRtYNf14zUsXXr1sklPbC+grNo1aqV/9UouL5qCQkF+fn5MXKVOAwnBMtKQwmcXfy6FZkSrDt4plLEyntBINYijhe0tnsxwa1Vs2YGD6DzwDHD4LN7sCwc1P+2i1+3PKlj6jc89pjeCyBTxOxPwHjJKSa4Xbp23YJXWrnOw4rBpzvHVIETFE35daNNefy6+P5m+rqDwRQxZ2Bw9V0oJrj169ffIBeJQ1BXUN3WLYAA4rOsQokuit840a+L9+l2jTBFzFEcKya4cXFxu+UicRBWDLpo+VSVwOERPk706+oOnrG+gr25lJMTI+6QlMfgQkxBQfE5DlWrVMmvV68uXQoOQA0yJO3rnsoLKxOfZ6WFa0T9VtzaW5H6VhZwdcD6BqH2ifrOsIx13oGo7xKtY0NCc/TY8WJaWszCBSNHjVorF4kDgLWlW2ytCJaVhfpsOwTTgNGve+ZMWtCZmeo7s76CN1EXXCMlLNyzZ8/2bdyo0ae0cu0PDqhu6wnYyYJSJzG+C27vdV9sygKpX8gdLuuChFlsOon2HQgpCY4HXApy1U8JCzcxMfFbuciaCjZGDS4rgmW6o+2RgN+Mht9vh0kSEPyypgSjj8EzZ2K2BpYQ3JiYmPxatWplU2ztj1XBMiXudkKJrh0mSYCyUsdYX8HdQC/D0cxggptx6223FdVUoPDaDyWAVgSPdAtFRVAXAbv4dUOljql13dY46yvYnxKCKzjfr18//wQIYl+sGFx2CJaVBb4bmsrXjXbxG5U6Fii6QHfwjPUVzKUixiaOfcOGDUr8fTDBLahZs0ZO4MlC7IWbZpaZgRI4O/t1dfvC8bmR5AgTvaii40aCCa6va9cb/y0Xic3AYMKg8lqwLByU6NrRrwvw3XR/L6aImQdKHJhd5qBEWpikWtUqVTJxAgPWVrAPGLRWpIJBGOAbVeeAk1AWHi5MEL1oA4sbM+XwvbA/mSLmPpT7QWkl9n9gShgIauEKLl555ZVpFFp7oQaRFdatnYNlZYF9hGY3v6663dft8mCKmH0JJbi+/1u58r9xchB7YcVgckKwLBzw/fE77OLXhbUN0dXtG7fiEfmkOIHuh1BjJ6TgNmvWbBlTwuyDuvhZMZicFCwrCyW6dvLr4vlWLE7uHqCTRq3EVO9bevcOqp2hfLggof8dd2zdvn1bK7oWog8Gj1U+STf6AJX42MWvqxtY9LjIuOkY2o1Ag1TpJAQ3Kzs7qDEb0sIV/Dh6zJgP1D+htRt9rIhAwwp0m9gC/B40+HUxSSLafl3dwG+M30sr11rK2t+lCa6vRo0a2fgHFNvoogSQwTJzgOjawa+rGwbPrEdd2ENRquBed911a+SiHwpv9GCwzBzUgMDvtItfVxesr2A9cCdMnDRJrvlKuGJLFdyEhIQv4uLi8uUqiQJKAK2om+CmYFlZKOG1Sx0GXbC+grXAd/vII8OVrpYwUEsVXDBo8KBveYWMLlYNGqfNLDML5dd1I6yvYB3h6GSZgjt37ttd8cpMhejBYJk+1O9VkyTc5tdliph+oI3h6mOZgivI6NSp0zG5TCwEgwSDhcEyvSj3Ava3G/26rK9gH8IR3II/jh+/UC4Ti0GSvG68ECwLByW8bvPrMkVMD5FYtopwBNfXtm3bE6EelEf0oASQwTLrwX53m1+XKWJ6UXejZRGW4LZs2fKTxMTELLnK9DCLsGqQeDVYVhpKdO1Q/MYMWF9BL9DEnj17lqmLYQlupUqVUhISEnJgPlNs9aNu/awYJF4NloWDug1v2KCB4/26DJ7pQ+1TQzpYSMISXDBixPB/82BZBwYHBoluvBwsCweILhr8uk4XXQbPzAFGp9HwxPKgweEZR2EL7thxfxguF4kFWDE4GCyLDKcH0xg800e4we2wBVeo+EE8Ph3LkUbmSPgoAbQiFYzBsvBRlq7T/boMnpmLGq/huBNA2IILlq9YPgsfEGhSE3NhsMy+KAvRqcVvWF/BfII9LDIUEQlu69bXbGVtBX2oq6UVqWAMlpUfJVhOnSTB+goVw5h/i+eWvfPOvPA9BfI1LBITExd363ZjKq+O+rBqMDBYVjHUhcqJfl3WVzCH8uhgRIIrSH/y90+tNSo8MRcGy5wD9h8aXDNO8usyRcwcyuNWjVRwff369RuiPoi+XPNQAshgmTPB8XOSX5cpYtEhYsEFc9+eO5dTfc2HwTLngoslRNcpfl2miFWcevXqRnyXXy7BvfPOX36EmWdylVQQZd0yWOZs1D51il+XKWLlBwbn5ClT9LsUgBDbT39xxy/2nzyZSj+uCWCgMljmDnAs0VTxGzv7dVlfoXwog2XAgIGyJ3zKJbiCrKlTn3tTLpMKgIOHZkXkmMEya4Ho2tmvy+BZ+UHurdh/EetneQXXd/nll7/WvHnz83K1XBE7UohVdRMYLLMOZelCzOzs12XwLHKgdZHk3hopt+CCTZs3P4ITypi14N9AIsKqk57BMutRdxN29esyeBYZ2E/hFqoJRoUENzExcVeHjh2Py1USITh4ONmtSAVjsCx6YJ+j2dWvy+BZ+EQ6syyQCgku6uTe2f+O3bw6lh+rTnYGy6KPEl27+XU7duwkl0hpmJEKG1NQULH/kZube32N6tU3KcuJM9DCBxcqccWUa/rA4IYfkdatPVAGSvLryZakAoYDZsrxDqh0ILhZ2dkVMlIr9McgLi5uy+DBg76llRsZ2F8IllkBg2X2AqKGZie/LgvalI5ZF6MKCy6YOWv2mKpVq+bCukXgjMGz8GCwzNtgACu/LrE/EydNkkvlxxTBrVKlypdjx439wmjlUnRDo6xbBsuIEl3c0julDoPXwPhp2LBBwSOPDK9waVpTBFeQ++ijI9+iyIZPuI/kqCgMltkfiC4G9T133xW1fF3eBYUGuiat2zh/RwWocNDMSI/u3U5v3rylrrKmGEAribI2jx7Tn03HYJmzwLkBohFMg4VNSqKs28NHjmK1wgaqWRaun9VrvuhduXLlPLlKQiCLXmi/G2CwzFmoC6PVwTRcmJXYk+Ig71aILXTSFK00VXCF2O6aOnXqch684Kj9Up6iF+WBt4nOA6KLpvy6VkyS4IU5ODp0zFTBFeQMHDToI/VECGYslETWTYCrRau7hcEyZ4PjhuOne5IEBB3izvOkJDq0y2zB9TVu3HhOkyaN82jlBseqVDAGy5yPEl2dxW8ee4zFa4Khy1gxXXAFBd/t+74nLdviqANoRSqY8snRanE+6hjq8OtCxGndhsaMvNtAdAiuLz4+fusLf37hE1q5xWGwjJQHCCKamX5diC1EnJREGSuPPDJc9piHFsEVZD3wwH/9n1wmAl0HMBgMlrkTnEMQg4YNGlTIxQBLWYkt/icpDu7O31/6AQyjrYU95mFqHm4g48aN3fDa/7x2o/GgejE3F4MEwTL4b7/+ervsNR9UfYJ1y9tE92M8p8J1U0Gk4dtXFhwpCfbNkKFDUGAcq91E+zcWzEKr4ApqX3XVVQeysy4mynXPCq6VcDC5H+M5BeHFzEU8o8z45BC4Hvbu3eu/COOuR/0Nz4/gmFENrCx0C27sv/71r9dv6tVrhDrInH1GiHkEXsyNYmrcRpEtGzcILohv3KjRuTNnziRgihwFlxB9QGQhruqVhIfaX0ePHdeqT1rVXJLz/f79v1JpYnhlyhghelAiS7GNHJlFpBUrBNeXkJDw0Yzk5EWBtz+EEBJt4EqQ5RfdIbiCgt/85jfJQniLnidDK5cQYhcWL3kfL2v8KxqxSnDxwMl1b82cuQZWLv24hBA7AOsWjz2XqXWv+Ds1YkXQrBjIzf3Lq3/pxgAaISSawPhD+UW5agmWC25GRsagFs2bz6tePSFedvmh+BJCrELFk6wWXMtcCooaNWos/PiTT+YygEYIiSaYUSYXLcNyC1cSXzsxMTMrKytOpa/QwiWEWAGMPTMfmxMJllu4kpyjx47dh0ery3VCCLEMWXrxvH/FQqIluL7q1at/Ou4P4w7RtUAIsQroDVwJqNyXm5v7quy2jGi5FBQ1b+r1830bNvyzAUx8dNC1QAjRAcTW6iBZIFGzcCXp7y/9YLKaBEGxJYTowg6TraItuCgn99fFS5Z8cPJkKsWWEKIFWLcDBw2MusZE26WgaDR40KB1S5cuvYquBUKImUBskQ21c1eKemJ21LCL4Pry8vK6tmje/HOUcWSqGCHEDFRQ/mRqaoEQ2yNisYW/I0pE3aWgqFSp0r+3f/21+Y/JJIR4mtffeB1ie1oYl3fLrqhhGwtX8eKLf94zccLEq+vVqxvDYBohpLxY8QSHSLHVlwFjx47r+etf/9cOdStACCGRArG1YxF221m4QFi0N9SoXn1jbm5uLINohJBIgLEG3djxzU4EyWjhlkVsbOzmb/fseYVFygkhkQCxhW6goLgQ212y2zbYUnBBixYtnv5k2SfvIT8X1i3FlxASDjOSZ6Cg+AWx+EBhj32wpUvBQP1//OPdhQ/++sFedC0QQkoD1m20p+6WhW0tXMmp++67f8jQoUN2q5lotHQJIYEov61ctS12t3D9XLp06Z6fXHnFYoguIo9KdGntEkLsHCQLxBGCC4S4dk6oVu3fEFm6FwghAGIL1q1fX9ClSxfoQiV/h02xu0uhCGHVfnX4yOFxcXFx+WonE0K8C3QAd7uYSSbEFtN26xVusS+OsXAlNbZs2TL/xq5dfwErlxYuId7FjjPJysJRX1aQcf3119/x6l9e/ZpWLiHeBWI7aPAgueYcnCa4fkaPHnPPqNGjzlJ0CfEeGPcQ23femSd7nIMjBVew/5VXXq33+6d+fwJXOnTAl8OUMULcDcQWzySTYpvi73QQThVcP9OmPd/ziSefOElLlxD3A+PKILZLRLseC07CaUGzoPzshuvPffPNzlosXE6I+4BBhbtX6UZwtJHo6C+v2LR5yy033tj1FC1dQtyJU322gbjCwpX0bHl5i9UnTpyMpaVLiDuAEYUU0MNHjmL1W9HaYMGpuMLClaw98MPB3j17Jp3gE4AJcT7w2aIYjRBb6BSao8UWuElwfTExMV+s/OzzobBw6V4gxJlg7Do1z7YsXCW4ki+PHjvev0eP7idx0JgqRoizMATIXDd23Si4YNnnq1b/buCggTFwL1B0CbE/sGzRDAGy9f4NLsJNQbMS5Ofn3zVlyuQZz097vllgrUwG1AixF7gjdVpthEhx94+Ljf1wypRnkn5136+KVRij2BJiL5Rl63ZcbeEaqPPss89uffaZZ1pixY6PTybEiyhDSM4ggxjZup5tRXG1hWvg7IQJE/rMfXvuefhzjdYuISQ6qHGIerbSZ7vA3+FivGLhKuJ27NjxXuef/exeuBVo6RISHeCvxavbfbaBeOrHCnI7dOjw8Jm0tCcRRKOlS4j1YNzB2Ply7VrZ4x28ZuEWISzcBzt2aJ/83Xf7qtWrV5dBNEIsAGILY0c+8BGPxWlRuMUbeM3CLSI2Nvbv3+zcNeDPL764U02QYL4uIXqA0KIhOCbFdpPo7le41Tt41sI1cMVLL724YsKfJrRSfl0IL1PHCKk4xiD1jOQZvkceGe5ZIw9QcAupv3v37pev69RpGISWD6gkxBxw9wgjZuKkSRDbHNFVpXCLN6HgGjh48OCankk9emI6sMpgoPASUj4C/LUwc28TbYt/o0fxtHkfyOWXX37TwUOHf/f4E4+nQnRVHQb6dgkJHwgtLFv4a1FaUYgtdKaBaJ4WW0ALtySwaKvOnj0rfeSjIytBbGHt0tIlpGyUvxaTGR55ZDgWadQZoOCGpsnx48dn3HD9T+/B1ZqpY4SUToALIUN0YfrYKP9G4odXn9Aca9y48f1Hjx0fgqIaEF00uY0QIoHQokkXAsQW4+SXov23/w2kCApu6VwUbcE778y7f/mK5dvgWsCJRb8uIYXACIFVa6iHAE1BAZo1ouWig/wHuhTC57Ls7Oy/PPzwQ/cvWrjIv9PoZiBeRflqYdW+9tp0WLX5gnuFIfKhfwMJCgU3cu5csWLFn+++667WWGH6GPEasGoNubW8S44ACm75aJabm/vwb37z4MT57833p44xk4G4HeVOQ0xDWrXopuBGAAW3YgxYtmzZtN+OGH4VTkZau8SNKKHF+T1h4sSY4cNHQDQ2iNZHtCy8h4QHBbfiNM/JyRk1cuSjj897Z148Oii8xC2ozBzDgx1p0VYACq55dEpJSVl6+223Nj9x4qT/pKSbgTgVo1W75P2lBZ07d0Ze7S7RuvnfQMoFr1bmsb1NmzZdfzh46IHZf5uNk5MpZMSRwKrFOYvqXpiaK8QWaV6JolFsKwgtXD3EZ2VlLXjiicf7zfnbnGrooJuB2B2j+0AGxWA41EIfMQcKrl767t+//9mf90z6GaxdQDcDsRtKaHFuLl7yvq9Lly7ZYvUt0RaK9k9sI+ZAwbWGJ//+9znTJk6YEE/hJXbBKLQypxbrrn5MebSh4FrH9Tk5Ob+aP/+9EX8YN666UXgJsRJ17mFKrhRarH4qGmaJwbIlmqDgWgss2qrp6em7R40a2QKTJgq7KbxEPyqIi3PtpptvZppXFKDgRgcI7b1ZWVn3//a3I/obhZf1GYjZGF0HEFoZEEsVXYtEG4NtxBoouNEFz3e67dy5c/PHjBldRRXFARgc9PGSihBo0Rqm444WDWJ7RrR8dBBroODah9HC4u29cOGCPuP/+MdqgT5eii8JlyDBMKzCov1AtN9ihUQHCq69qCzaFaL9avbsWeOnTJ4caxReii4pjRBCe060h0TbLtoPonHARxEKrn1pKtqzS5e+3+exMWOaKuGlj5cYUSILMGFh1KjRyKOFm+Ar0d4Q7V1sI/aAgmt/Won2i82bN0+bPv21KgsXIBe9EFq93iWE0GKVWQc2hoLrLIZkZmb+bsmSxe2f/sMfEoy3kIDi626MImtwG+AxNt/LhmeI4ZXYFAqu84Cft7to923atOm/ZsyYXklZvRBcJb7EPRgvrMg2kNZsjuj6m2gjsY04Awqu83k5IyPjtg8+WNp85cqVNQJdDkZoAdsfVVlO+ewBXAZJSUm+AQMG5tepUydOdhMHQsF1B/Db3Sxa6/T09Kfmz3+vxeRJk2ICb0EpuPYmmMtAiCxyZ2HN/lm03aK9h+3EmVBw3Ulj0ebt2LGj3bZtW2v9afz4qkaLCRitXwqxtQSzYoES2Q4dOsJlcF50IXfW/7BS4g4ouO4GtXh7iXZ1VlZW0rvvzrt77dq1sUa3A6D4WgOE1iiy2O/wyUp3ASxZBMDgoycuhYLrPe4X7Y3NmzfHI81szerVQS0tBQU4cpQFC4LtW4js6NFj8NgauAqqFm4hXoCC612aiTZMtMsyMjL6z5//3k+E9RtTmgBTfMvG6IcFAVZsjLBiMSlhtWhrRcOtxh7RiEeg4BKA21hVeHrJ2bNn+y5evCh23bp1vmACDCAkXhdg7BejNQsCBFYVi4HI4rHiKBrzDTqIN6HgklDggYF3iVZLWMDdU1JS2nz99faYQBEOFF0UtXabEAcTVmAUVwS6WrVqVSAEFhW4Nou2V7RToj0nGiF+KLikLCCeeJBggn/N5xsi2u+EFdx87969PiXCX6xZ4z+RjNZwoPAq14TdCGbBAyWy6nsHiKuyXuGHxdMSxosGsT0uGiFBoeCSitJbtP6i1RatgbCGf7Jnz56mW7duqQYhBqs+/zwmMEIfCRA8/G24r5GCvwMQVIUSVlmfAIPkgmgHREMubLpoK0VbLlqWaISEBQWXmAnS0CC8NUXDjKhGosFveZto8cIqjvnuu+984pzzW747dnyNF58SZgB3BYQPrxVB/Q/jK4CQAoipQlqrGAh5oh0TbZ9oW0X7SLQ00QCeZIvc2PJdNQgRUHCJlbQRDXUgLhetrmiJouGpFypgp1wQeIVgI2UKDe/BbDqcrAhA4RUNfXif+nsIJhryWS+JBusT78f7cOuPhr/DKyxWiOlY0QixBAousSsQUWRPoMWLBhFWQqtOWvThfaokIcQVDaILUYXoohFiA3y+/wecynryCS+OQAAAAABJRU5ErkJggg==;" vertex="1" parent="1">
          <mxGeometry x="-1570" y="824.76" width="170" height="170.48" as="geometry" />
        </mxCell>
        <mxCell id="_ZCDtcRAEFlEMNslDuW7-19" style="edgeStyle=orthogonalEdgeStyle;shape=flexArrow;rounded=0;orthogonalLoop=1;jettySize=auto;html=1;" edge="1" parent="1" source="_ZCDtcRAEFlEMNslDuW7-18" target="_ZCDtcRAEFlEMNslDuW7-17">
          <mxGeometry relative="1" as="geometry" />
        </mxCell>
        <mxCell id="_ZCDtcRAEFlEMNslDuW7-18" value="" style="shape=actor;whiteSpace=wrap;html=1;" vertex="1" parent="1">
          <mxGeometry x="-1940" y="880" width="40" height="60" as="geometry" />
        </mxCell>
      </root>
    </mxGraphModel>
  </diagram>
  <diagram id="JGiKFFnYYHBX3nrFUvJi" name="KUBERNETES-2">
    <mxGraphModel dx="1058" dy="774" grid="1" gridSize="10" guides="1" tooltips="1" connect="1" arrows="1" fold="1" page="1" pageScale="1" pageWidth="827" pageHeight="1169" math="0" shadow="0">
      <root>
        <mxCell id="C0QaUcKfEWQfDM-AZH-M-0" />
        <mxCell id="C0QaUcKfEWQfDM-AZH-M-1" parent="C0QaUcKfEWQfDM-AZH-M-0" />
        <mxCell id="-YWg6Kdr_iVYWv-zQhvt-22" value="" style="rounded=1;whiteSpace=wrap;html=1;strokeWidth=2;fillWeight=4;hachureGap=8;hachureAngle=45;fillColor=#dae8fc;sketch=1;strokeColor=#6c8ebf;" parent="C0QaUcKfEWQfDM-AZH-M-1" vertex="1">
          <mxGeometry x="330" y="620" width="276" height="100" as="geometry" />
        </mxCell>
        <mxCell id="-YWg6Kdr_iVYWv-zQhvt-0" style="edgeStyle=none;rounded=0;orthogonalLoop=1;jettySize=auto;html=1;exitX=0;exitY=1;exitDx=0;exitDy=0;entryX=0.5;entryY=0;entryDx=0;entryDy=0;strokeWidth=2;" parent="C0QaUcKfEWQfDM-AZH-M-1" source="-YWg6Kdr_iVYWv-zQhvt-2" target="-YWg6Kdr_iVYWv-zQhvt-6" edge="1">
          <mxGeometry relative="1" as="geometry" />
        </mxCell>
        <mxCell id="-YWg6Kdr_iVYWv-zQhvt-1" style="edgeStyle=none;rounded=0;orthogonalLoop=1;jettySize=auto;html=1;exitX=1;exitY=1;exitDx=0;exitDy=0;entryX=0.5;entryY=0;entryDx=0;entryDy=0;strokeWidth=2;" parent="C0QaUcKfEWQfDM-AZH-M-1" source="-YWg6Kdr_iVYWv-zQhvt-2" target="-YWg6Kdr_iVYWv-zQhvt-8" edge="1">
          <mxGeometry relative="1" as="geometry" />
        </mxCell>
        <mxCell id="-YWg6Kdr_iVYWv-zQhvt-2" value="USERSPACE" style="ellipse;whiteSpace=wrap;html=1;aspect=fixed;fontStyle=1" parent="C0QaUcKfEWQfDM-AZH-M-1" vertex="1">
          <mxGeometry x="336" y="190" width="50" height="50" as="geometry" />
        </mxCell>
        <mxCell id="-YWg6Kdr_iVYWv-zQhvt-3" style="edgeStyle=none;rounded=0;orthogonalLoop=1;jettySize=auto;html=1;exitX=0.5;exitY=1;exitDx=0;exitDy=0;entryX=0.5;entryY=0;entryDx=0;entryDy=0;strokeWidth=2;" parent="C0QaUcKfEWQfDM-AZH-M-1" source="-YWg6Kdr_iVYWv-zQhvt-4" target="-YWg6Kdr_iVYWv-zQhvt-2" edge="1">
          <mxGeometry relative="1" as="geometry" />
        </mxCell>
        <mxCell id="-YWg6Kdr_iVYWv-zQhvt-4" value="&lt;div&gt;KERNEL&lt;/div&gt;&lt;div&gt;SPACE&lt;br&gt;&lt;/div&gt;" style="ellipse;whiteSpace=wrap;html=1;aspect=fixed;fontStyle=1" parent="C0QaUcKfEWQfDM-AZH-M-1" vertex="1">
          <mxGeometry x="328" y="74" width="66" height="66" as="geometry" />
        </mxCell>
        <mxCell id="-YWg6Kdr_iVYWv-zQhvt-5" style="edgeStyle=none;rounded=0;orthogonalLoop=1;jettySize=auto;html=1;exitX=0.5;exitY=1;exitDx=0;exitDy=0;entryX=0.5;entryY=0;entryDx=0;entryDy=0;dashed=1;strokeWidth=2;" parent="C0QaUcKfEWQfDM-AZH-M-1" source="-YWg6Kdr_iVYWv-zQhvt-6" target="-YWg6Kdr_iVYWv-zQhvt-9" edge="1">
          <mxGeometry relative="1" as="geometry" />
        </mxCell>
        <mxCell id="-YWg6Kdr_iVYWv-zQhvt-6" value="APP" style="ellipse;whiteSpace=wrap;html=1;aspect=fixed;fontStyle=1" parent="C0QaUcKfEWQfDM-AZH-M-1" vertex="1">
          <mxGeometry x="296" y="300" width="50" height="50" as="geometry" />
        </mxCell>
        <mxCell id="-YWg6Kdr_iVYWv-zQhvt-7" style="edgeStyle=none;rounded=0;orthogonalLoop=1;jettySize=auto;html=1;exitX=0.5;exitY=1;exitDx=0;exitDy=0;entryX=0.5;entryY=0;entryDx=0;entryDy=0;dashed=1;strokeWidth=2;" parent="C0QaUcKfEWQfDM-AZH-M-1" source="-YWg6Kdr_iVYWv-zQhvt-8" target="-YWg6Kdr_iVYWv-zQhvt-10" edge="1">
          <mxGeometry relative="1" as="geometry" />
        </mxCell>
        <mxCell id="-YWg6Kdr_iVYWv-zQhvt-8" value="APP" style="ellipse;whiteSpace=wrap;html=1;aspect=fixed;fontStyle=1" parent="C0QaUcKfEWQfDM-AZH-M-1" vertex="1">
          <mxGeometry x="380" y="300" width="50" height="50" as="geometry" />
        </mxCell>
        <mxCell id="-YWg6Kdr_iVYWv-zQhvt-9" value="SUB" style="ellipse;whiteSpace=wrap;html=1;aspect=fixed;fontStyle=1" parent="C0QaUcKfEWQfDM-AZH-M-1" vertex="1">
          <mxGeometry x="296" y="400" width="50" height="50" as="geometry" />
        </mxCell>
        <mxCell id="-YWg6Kdr_iVYWv-zQhvt-10" value="SUB" style="ellipse;whiteSpace=wrap;html=1;aspect=fixed;fontStyle=1" parent="C0QaUcKfEWQfDM-AZH-M-1" vertex="1">
          <mxGeometry x="380" y="400" width="50" height="50" as="geometry" />
        </mxCell>
        <mxCell id="-YWg6Kdr_iVYWv-zQhvt-11" value="PRGRAM1" style="text;html=1;strokeColor=none;fillColor=none;align=center;verticalAlign=middle;whiteSpace=wrap;rounded=0;" parent="C0QaUcKfEWQfDM-AZH-M-1" vertex="1">
          <mxGeometry x="336" y="350" width="40" height="20" as="geometry" />
        </mxCell>
        <mxCell id="-YWg6Kdr_iVYWv-zQhvt-12" value="PRGRAM2" style="text;html=1;strokeColor=none;fillColor=none;align=center;verticalAlign=middle;whiteSpace=wrap;rounded=0;" parent="C0QaUcKfEWQfDM-AZH-M-1" vertex="1">
          <mxGeometry x="420" y="350" width="40" height="20" as="geometry" />
        </mxCell>
        <mxCell id="-YWg6Kdr_iVYWv-zQhvt-13" value="" style="endArrow=classic;html=1;strokeWidth=1;exitX=1;exitY=0.5;exitDx=0;exitDy=0;" parent="C0QaUcKfEWQfDM-AZH-M-1" source="-YWg6Kdr_iVYWv-zQhvt-8" edge="1">
          <mxGeometry width="50" height="50" relative="1" as="geometry">
            <mxPoint x="526" y="450" as="sourcePoint" />
            <mxPoint x="496" y="325" as="targetPoint" />
          </mxGeometry>
        </mxCell>
        <mxCell id="-YWg6Kdr_iVYWv-zQhvt-14" value="&lt;div align=&quot;left&quot;&gt;&lt;b&gt;C-GROUP&lt;/b&gt;&lt;/div&gt;&lt;div align=&quot;left&quot;&gt;- CUP&lt;/div&gt;&lt;div align=&quot;left&quot;&gt;- MEM&lt;/div&gt;&lt;div align=&quot;left&quot;&gt;- DISK&lt;/div&gt;&lt;div align=&quot;left&quot;&gt;&amp;nbsp;- NET&lt;br&gt;&lt;/div&gt;" style="text;html=1;strokeColor=none;fillColor=none;align=left;verticalAlign=middle;whiteSpace=wrap;rounded=0;" parent="C0QaUcKfEWQfDM-AZH-M-1" vertex="1">
          <mxGeometry x="516" y="340" width="90" height="20" as="geometry" />
        </mxCell>
        <mxCell id="-YWg6Kdr_iVYWv-zQhvt-24" style="edgeStyle=none;rounded=0;orthogonalLoop=1;jettySize=auto;html=1;exitX=1;exitY=0.5;exitDx=0;exitDy=0;entryX=0;entryY=0.5;entryDx=0;entryDy=0;fontSize=15;fontColor=#CC0000;strokeWidth=1;" parent="C0QaUcKfEWQfDM-AZH-M-1" source="-YWg6Kdr_iVYWv-zQhvt-17" target="-YWg6Kdr_iVYWv-zQhvt-18" edge="1">
          <mxGeometry relative="1" as="geometry" />
        </mxCell>
        <mxCell id="-YWg6Kdr_iVYWv-zQhvt-17" value="PODMAN" style="rounded=0;whiteSpace=wrap;html=1;" parent="C0QaUcKfEWQfDM-AZH-M-1" vertex="1">
          <mxGeometry x="60" y="648" width="80" height="40" as="geometry" />
        </mxCell>
        <mxCell id="-YWg6Kdr_iVYWv-zQhvt-26" style="edgeStyle=orthogonalEdgeStyle;rounded=0;orthogonalLoop=1;jettySize=auto;html=1;exitX=0.5;exitY=0;exitDx=0;exitDy=0;entryX=0.5;entryY=0;entryDx=0;entryDy=0;fontSize=15;fontColor=#CC0000;startArrow=classic;startFill=1;strokeWidth=1;" parent="C0QaUcKfEWQfDM-AZH-M-1" source="-YWg6Kdr_iVYWv-zQhvt-18" target="-YWg6Kdr_iVYWv-zQhvt-20" edge="1">
          <mxGeometry relative="1" as="geometry">
            <Array as="points">
              <mxPoint x="213" y="600" />
              <mxPoint x="510" y="600" />
            </Array>
          </mxGeometry>
        </mxCell>
        <mxCell id="-YWg6Kdr_iVYWv-zQhvt-18" value="RUNC" style="rounded=0;whiteSpace=wrap;html=1;" parent="C0QaUcKfEWQfDM-AZH-M-1" vertex="1">
          <mxGeometry x="173" y="648" width="80" height="40" as="geometry" />
        </mxCell>
        <mxCell id="-YWg6Kdr_iVYWv-zQhvt-25" style="edgeStyle=none;rounded=0;orthogonalLoop=1;jettySize=auto;html=1;exitX=1;exitY=0.5;exitDx=0;exitDy=0;entryX=0;entryY=0.5;entryDx=0;entryDy=0;fontSize=15;fontColor=#CC0000;strokeWidth=1;startArrow=classic;startFill=1;" parent="C0QaUcKfEWQfDM-AZH-M-1" source="-YWg6Kdr_iVYWv-zQhvt-19" target="-YWg6Kdr_iVYWv-zQhvt-20" edge="1">
          <mxGeometry relative="1" as="geometry" />
        </mxCell>
        <mxCell id="-YWg6Kdr_iVYWv-zQhvt-19" value="&lt;div&gt;&lt;font color=&quot;#FF0000&quot;&gt;APP&lt;/font&gt;&lt;br&gt;&lt;/div&gt;&lt;div&gt;CONTAINER&lt;br&gt;&lt;/div&gt;" style="rounded=0;whiteSpace=wrap;html=1;" parent="C0QaUcKfEWQfDM-AZH-M-1" vertex="1">
          <mxGeometry x="350" y="670" width="80" height="40" as="geometry" />
        </mxCell>
        <mxCell id="-YWg6Kdr_iVYWv-zQhvt-20" value="KERNEL" style="rounded=0;whiteSpace=wrap;html=1;" parent="C0QaUcKfEWQfDM-AZH-M-1" vertex="1">
          <mxGeometry x="470" y="670" width="80" height="40" as="geometry" />
        </mxCell>
        <mxCell id="-YWg6Kdr_iVYWv-zQhvt-23" value="&lt;div style=&quot;font-size: 15px;&quot; align=&quot;left&quot;&gt;&lt;b style=&quot;font-size: 15px;&quot;&gt;CONTAINER HOST&lt;/b&gt;&lt;/div&gt;" style="text;html=1;strokeColor=none;fillColor=none;align=left;verticalAlign=middle;whiteSpace=wrap;rounded=0;strokeWidth=1;fontSize=15;fontColor=#CC0000;" parent="C0QaUcKfEWQfDM-AZH-M-1" vertex="1">
          <mxGeometry x="350" y="632" width="140" height="30" as="geometry" />
        </mxCell>
        <mxCell id="-YWg6Kdr_iVYWv-zQhvt-27" value="RUNTIME" style="text;html=1;strokeColor=none;fillColor=none;align=center;verticalAlign=middle;whiteSpace=wrap;rounded=0;fontSize=15;fontColor=#CC0000;" parent="C0QaUcKfEWQfDM-AZH-M-1" vertex="1">
          <mxGeometry x="62" y="698" width="76" height="20" as="geometry" />
        </mxCell>
        <mxCell id="-YWg6Kdr_iVYWv-zQhvt-31" value="OCI" style="text;html=1;strokeColor=none;fillColor=none;align=center;verticalAlign=middle;whiteSpace=wrap;rounded=0;fontSize=15;fontColor=#CC0000;" parent="C0QaUcKfEWQfDM-AZH-M-1" vertex="1">
          <mxGeometry x="173" y="698" width="76" height="20" as="geometry" />
        </mxCell>
      </root>
    </mxGraphModel>
  </diagram>
  <diagram id="Al3ejMa-1rzvFuNp3e_7" name="KUBERNETES-3">
    <mxGraphModel dx="1428" dy="965" grid="1" gridSize="10" guides="1" tooltips="1" connect="1" arrows="1" fold="1" page="1" pageScale="1" pageWidth="827" pageHeight="1169" math="0" shadow="0">
      <root>
        <mxCell id="APeQ7llEEAEyZt4ls1jC-0" />
        <mxCell id="APeQ7llEEAEyZt4ls1jC-1" parent="APeQ7llEEAEyZt4ls1jC-0" />
        <mxCell id="APeQ7llEEAEyZt4ls1jC-27" value="" style="rounded=0;whiteSpace=wrap;html=1;fontSize=12;fontColor=#333333;strokeWidth=1;fillColor=#f5f5f5;strokeColor=#666666;" parent="APeQ7llEEAEyZt4ls1jC-1" vertex="1">
          <mxGeometry x="520" y="680" width="200" height="160" as="geometry" />
        </mxCell>
        <mxCell id="APeQ7llEEAEyZt4ls1jC-26" value="" style="rounded=0;whiteSpace=wrap;html=1;fontSize=12;fontColor=#333333;strokeWidth=1;fillColor=#f5f5f5;strokeColor=#666666;" parent="APeQ7llEEAEyZt4ls1jC-1" vertex="1">
          <mxGeometry x="80" y="680" width="290" height="240" as="geometry" />
        </mxCell>
        <mxCell id="o_xk51Az2PSGA68INuz--0" style="edgeStyle=orthogonalEdgeStyle;rounded=0;orthogonalLoop=1;jettySize=auto;html=1;exitX=0.5;exitY=0;exitDx=0;exitDy=0;entryX=0.5;entryY=1;entryDx=0;entryDy=0;" parent="APeQ7llEEAEyZt4ls1jC-1" source="APeQ7llEEAEyZt4ls1jC-4" target="APeQ7llEEAEyZt4ls1jC-14" edge="1">
          <mxGeometry relative="1" as="geometry" />
        </mxCell>
        <mxCell id="APeQ7llEEAEyZt4ls1jC-4" value="SERVER" style="label;whiteSpace=wrap;html=1;image=img/clipart/Gear_128x128.png;fontSize=15;strokeWidth=1;fillColor=#eeeeee;strokeColor=#36393d;" parent="APeQ7llEEAEyZt4ls1jC-1" vertex="1">
          <mxGeometry x="120" y="525" width="140" height="60" as="geometry" />
        </mxCell>
        <mxCell id="o_xk51Az2PSGA68INuz--6" style="edgeStyle=orthogonalEdgeStyle;rounded=0;orthogonalLoop=1;jettySize=auto;html=1;exitX=0.5;exitY=0;exitDx=0;exitDy=0;entryX=0.5;entryY=1;entryDx=0;entryDy=0;" parent="APeQ7llEEAEyZt4ls1jC-1" source="APeQ7llEEAEyZt4ls1jC-5" target="APeQ7llEEAEyZt4ls1jC-8" edge="1">
          <mxGeometry relative="1" as="geometry" />
        </mxCell>
        <mxCell id="APeQ7llEEAEyZt4ls1jC-5" value="SERVER" style="label;whiteSpace=wrap;html=1;image=img/clipart/Gear_128x128.png;fontSize=15;strokeWidth=1;fillColor=#eeeeee;strokeColor=#36393d;" parent="APeQ7llEEAEyZt4ls1jC-1" vertex="1">
          <mxGeometry x="340" y="525" width="140" height="60" as="geometry" />
        </mxCell>
        <mxCell id="o_xk51Az2PSGA68INuz--11" style="edgeStyle=orthogonalEdgeStyle;rounded=0;orthogonalLoop=1;jettySize=auto;html=1;exitX=0.5;exitY=0;exitDx=0;exitDy=0;entryX=0.5;entryY=1;entryDx=0;entryDy=0;" parent="APeQ7llEEAEyZt4ls1jC-1" source="APeQ7llEEAEyZt4ls1jC-6" target="APeQ7llEEAEyZt4ls1jC-15" edge="1">
          <mxGeometry relative="1" as="geometry" />
        </mxCell>
        <mxCell id="APeQ7llEEAEyZt4ls1jC-6" value="SERVER" style="label;whiteSpace=wrap;html=1;image=img/clipart/Gear_128x128.png;fontSize=15;strokeWidth=1;fillColor=#eeeeee;strokeColor=#36393d;" parent="APeQ7llEEAEyZt4ls1jC-1" vertex="1">
          <mxGeometry x="610" y="525" width="140" height="60" as="geometry" />
        </mxCell>
        <mxCell id="o_xk51Az2PSGA68INuz--7" style="edgeStyle=orthogonalEdgeStyle;rounded=0;orthogonalLoop=1;jettySize=auto;html=1;exitX=0.5;exitY=0;exitDx=0;exitDy=0;entryX=0.5;entryY=1;entryDx=0;entryDy=0;fillColor=#f5f5f5;strokeColor=#666666;" parent="APeQ7llEEAEyZt4ls1jC-1" source="APeQ7llEEAEyZt4ls1jC-8" target="APeQ7llEEAEyZt4ls1jC-16" edge="1">
          <mxGeometry relative="1" as="geometry" />
        </mxCell>
        <mxCell id="APeQ7llEEAEyZt4ls1jC-8" value="HOST OS" style="rounded=0;whiteSpace=wrap;html=1;fontSize=13;strokeWidth=1;fillColor=#d5e8d4;strokeColor=#82b366;fontStyle=1" parent="APeQ7llEEAEyZt4ls1jC-1" vertex="1">
          <mxGeometry x="340" y="470" width="140" height="30" as="geometry" />
        </mxCell>
        <mxCell id="o_xk51Az2PSGA68INuz--2" style="edgeStyle=orthogonalEdgeStyle;rounded=0;orthogonalLoop=1;jettySize=auto;html=1;exitX=0.5;exitY=0;exitDx=0;exitDy=0;entryX=0.5;entryY=1;entryDx=0;entryDy=0;fillColor=#f5f5f5;strokeColor=#666666;" parent="APeQ7llEEAEyZt4ls1jC-1" source="APeQ7llEEAEyZt4ls1jC-10" target="APeQ7llEEAEyZt4ls1jC-11" edge="1">
          <mxGeometry relative="1" as="geometry" />
        </mxCell>
        <mxCell id="APeQ7llEEAEyZt4ls1jC-10" value="GUEST OS" style="rounded=0;whiteSpace=wrap;html=1;fontSize=12;strokeWidth=1;fillColor=#f5f5f5;strokeColor=#666666;fontColor=#333333;" parent="APeQ7llEEAEyZt4ls1jC-1" vertex="1">
          <mxGeometry x="120" y="390" width="140" height="30" as="geometry" />
        </mxCell>
        <mxCell id="o_xk51Az2PSGA68INuz--3" style="edgeStyle=orthogonalEdgeStyle;rounded=0;orthogonalLoop=1;jettySize=auto;html=1;exitX=0.5;exitY=0;exitDx=0;exitDy=0;entryX=0.5;entryY=1;entryDx=0;entryDy=0;fillColor=#f5f5f5;strokeColor=#666666;" parent="APeQ7llEEAEyZt4ls1jC-1" source="APeQ7llEEAEyZt4ls1jC-11" target="APeQ7llEEAEyZt4ls1jC-20" edge="1">
          <mxGeometry relative="1" as="geometry" />
        </mxCell>
        <mxCell id="APeQ7llEEAEyZt4ls1jC-11" value="BIN/LIB" style="rounded=0;whiteSpace=wrap;html=1;fontSize=12;strokeWidth=1;fillColor=#f5f5f5;strokeColor=#666666;fontColor=#333333;" parent="APeQ7llEEAEyZt4ls1jC-1" vertex="1">
          <mxGeometry x="120" y="340" width="140" height="30" as="geometry" />
        </mxCell>
        <mxCell id="APeQ7llEEAEyZt4ls1jC-12" value="APPLICATIONS" style="rounded=0;whiteSpace=wrap;html=1;fontSize=12;strokeWidth=1;fillColor=#dae8fc;strokeColor=#6c8ebf;fontStyle=1" parent="APeQ7llEEAEyZt4ls1jC-1" vertex="1">
          <mxGeometry x="340" y="230" width="140" height="30" as="geometry" />
        </mxCell>
        <mxCell id="o_xk51Az2PSGA68INuz--1" style="edgeStyle=orthogonalEdgeStyle;rounded=0;orthogonalLoop=1;jettySize=auto;html=1;exitX=0.5;exitY=0;exitDx=0;exitDy=0;entryX=0.5;entryY=1;entryDx=0;entryDy=0;fillColor=#f5f5f5;strokeColor=#666666;" parent="APeQ7llEEAEyZt4ls1jC-1" source="APeQ7llEEAEyZt4ls1jC-14" target="APeQ7llEEAEyZt4ls1jC-10" edge="1">
          <mxGeometry relative="1" as="geometry" />
        </mxCell>
        <mxCell id="APeQ7llEEAEyZt4ls1jC-14" value="&lt;div style=&quot;font-size: 14px;&quot;&gt;TYPE 1&lt;/div&gt;&lt;div style=&quot;font-size: 14px;&quot;&gt;HYPERVISOR&lt;br style=&quot;font-size: 14px;&quot;&gt;&lt;/div&gt;" style="rounded=0;whiteSpace=wrap;html=1;fontSize=14;strokeWidth=1;fillColor=#e1d5e7;strokeColor=#9673a6;" parent="APeQ7llEEAEyZt4ls1jC-1" vertex="1">
          <mxGeometry x="120" y="440" width="140" height="60" as="geometry" />
        </mxCell>
        <mxCell id="o_xk51Az2PSGA68INuz--13" style="edgeStyle=orthogonalEdgeStyle;rounded=0;orthogonalLoop=1;jettySize=auto;html=1;exitX=0.5;exitY=0;exitDx=0;exitDy=0;entryX=0.5;entryY=1;entryDx=0;entryDy=0;fillColor=#f5f5f5;strokeColor=#666666;" parent="APeQ7llEEAEyZt4ls1jC-1" source="APeQ7llEEAEyZt4ls1jC-15" target="APeQ7llEEAEyZt4ls1jC-17" edge="1">
          <mxGeometry relative="1" as="geometry" />
        </mxCell>
        <mxCell id="APeQ7llEEAEyZt4ls1jC-15" value="LINUX OS" style="rounded=0;whiteSpace=wrap;html=1;fontSize=13;strokeWidth=1;fillColor=#d5e8d4;strokeColor=#82b366;fontStyle=1" parent="APeQ7llEEAEyZt4ls1jC-1" vertex="1">
          <mxGeometry x="610" y="470" width="140" height="30" as="geometry" />
        </mxCell>
        <mxCell id="o_xk51Az2PSGA68INuz--8" style="edgeStyle=orthogonalEdgeStyle;rounded=0;orthogonalLoop=1;jettySize=auto;html=1;exitX=0.5;exitY=0;exitDx=0;exitDy=0;entryX=0.5;entryY=1;entryDx=0;entryDy=0;fillColor=#f5f5f5;strokeColor=#666666;" parent="APeQ7llEEAEyZt4ls1jC-1" source="APeQ7llEEAEyZt4ls1jC-16" target="APeQ7llEEAEyZt4ls1jC-19" edge="1">
          <mxGeometry relative="1" as="geometry" />
        </mxCell>
        <mxCell id="APeQ7llEEAEyZt4ls1jC-16" value="&lt;div style=&quot;font-size: 14px;&quot;&gt;TYPE 2&lt;br style=&quot;font-size: 14px;&quot;&gt;&lt;/div&gt;&lt;div style=&quot;font-size: 14px;&quot;&gt;HYPERVISOR&lt;br style=&quot;font-size: 14px;&quot;&gt;&lt;/div&gt;" style="rounded=0;whiteSpace=wrap;html=1;fontSize=14;strokeWidth=1;fillColor=#e1d5e7;strokeColor=#9673a6;" parent="APeQ7llEEAEyZt4ls1jC-1" vertex="1">
          <mxGeometry x="340" y="390" width="140" height="60" as="geometry" />
        </mxCell>
        <mxCell id="o_xk51Az2PSGA68INuz--14" style="edgeStyle=orthogonalEdgeStyle;rounded=0;orthogonalLoop=1;jettySize=auto;html=1;exitX=0.5;exitY=0;exitDx=0;exitDy=0;fillColor=#f5f5f5;strokeColor=#666666;" parent="APeQ7llEEAEyZt4ls1jC-1" source="APeQ7llEEAEyZt4ls1jC-17" target="APeQ7llEEAEyZt4ls1jC-21" edge="1">
          <mxGeometry relative="1" as="geometry" />
        </mxCell>
        <mxCell id="APeQ7llEEAEyZt4ls1jC-17" value="CONTAINER RUNTIME" style="rounded=0;whiteSpace=wrap;html=1;fontSize=12;strokeWidth=1;fillColor=#e1d5e7;strokeColor=#9673a6;" parent="APeQ7llEEAEyZt4ls1jC-1" vertex="1">
          <mxGeometry x="610" y="400" width="140" height="40" as="geometry" />
        </mxCell>
        <mxCell id="o_xk51Az2PSGA68INuz--10" style="edgeStyle=orthogonalEdgeStyle;rounded=0;orthogonalLoop=1;jettySize=auto;html=1;exitX=0.5;exitY=0;exitDx=0;exitDy=0;entryX=0.5;entryY=1;entryDx=0;entryDy=0;fillColor=#f5f5f5;strokeColor=#666666;" parent="APeQ7llEEAEyZt4ls1jC-1" source="APeQ7llEEAEyZt4ls1jC-18" target="APeQ7llEEAEyZt4ls1jC-12" edge="1">
          <mxGeometry relative="1" as="geometry" />
        </mxCell>
        <mxCell id="APeQ7llEEAEyZt4ls1jC-18" value="BIN/LIB" style="rounded=0;whiteSpace=wrap;html=1;fontSize=12;strokeWidth=1;fillColor=#f5f5f5;strokeColor=#666666;fontColor=#333333;" parent="APeQ7llEEAEyZt4ls1jC-1" vertex="1">
          <mxGeometry x="340" y="290" width="140" height="30" as="geometry" />
        </mxCell>
        <mxCell id="o_xk51Az2PSGA68INuz--9" style="edgeStyle=orthogonalEdgeStyle;rounded=0;orthogonalLoop=1;jettySize=auto;html=1;exitX=0.5;exitY=0;exitDx=0;exitDy=0;entryX=0.5;entryY=1;entryDx=0;entryDy=0;fillColor=#f5f5f5;strokeColor=#666666;" parent="APeQ7llEEAEyZt4ls1jC-1" source="APeQ7llEEAEyZt4ls1jC-19" target="APeQ7llEEAEyZt4ls1jC-18" edge="1">
          <mxGeometry relative="1" as="geometry" />
        </mxCell>
        <mxCell id="APeQ7llEEAEyZt4ls1jC-19" value="GUEST OS" style="rounded=0;whiteSpace=wrap;html=1;fontSize=12;strokeWidth=1;fillColor=#f5f5f5;strokeColor=#666666;fontColor=#333333;" parent="APeQ7llEEAEyZt4ls1jC-1" vertex="1">
          <mxGeometry x="340" y="340" width="140" height="30" as="geometry" />
        </mxCell>
        <mxCell id="APeQ7llEEAEyZt4ls1jC-20" value="APPLICATIONS" style="rounded=0;whiteSpace=wrap;html=1;fontSize=12;strokeWidth=1;fillColor=#dae8fc;strokeColor=#6c8ebf;fontStyle=1" parent="APeQ7llEEAEyZt4ls1jC-1" vertex="1">
          <mxGeometry x="120" y="290" width="140" height="30" as="geometry" />
        </mxCell>
        <mxCell id="APeQ7llEEAEyZt4ls1jC-21" value="APPLICATIONS" style="rounded=0;whiteSpace=wrap;html=1;fontSize=12;strokeWidth=1;fillColor=#dae8fc;strokeColor=#6c8ebf;fontStyle=1" parent="APeQ7llEEAEyZt4ls1jC-1" vertex="1">
          <mxGeometry x="610" y="340" width="140" height="30" as="geometry" />
        </mxCell>
        <mxCell id="APeQ7llEEAEyZt4ls1jC-23" value="POD" style="rounded=0;whiteSpace=wrap;html=1;fontSize=12;strokeWidth=1;" parent="APeQ7llEEAEyZt4ls1jC-1" vertex="1">
          <mxGeometry x="110" y="730" width="90" height="60" as="geometry" />
        </mxCell>
        <mxCell id="APeQ7llEEAEyZt4ls1jC-31" style="edgeStyle=orthogonalEdgeStyle;rounded=0;orthogonalLoop=1;jettySize=auto;html=1;exitX=1;exitY=0.5;exitDx=0;exitDy=0;entryX=0;entryY=0.5;entryDx=0;entryDy=0;fontSize=12;fontColor=#000000;startArrow=classic;startFill=1;strokeWidth=1;" parent="APeQ7llEEAEyZt4ls1jC-1" source="APeQ7llEEAEyZt4ls1jC-24" target="APeQ7llEEAEyZt4ls1jC-30" edge="1">
          <mxGeometry relative="1" as="geometry" />
        </mxCell>
        <mxCell id="APeQ7llEEAEyZt4ls1jC-24" value="kubelet" style="rounded=0;whiteSpace=wrap;html=1;fontSize=12;strokeWidth=1;" parent="APeQ7llEEAEyZt4ls1jC-1" vertex="1">
          <mxGeometry x="250" y="730" width="90" height="60" as="geometry" />
        </mxCell>
        <mxCell id="APeQ7llEEAEyZt4ls1jC-29" style="edgeStyle=orthogonalEdgeStyle;rounded=0;orthogonalLoop=1;jettySize=auto;html=1;exitX=0.5;exitY=0;exitDx=0;exitDy=0;entryX=0;entryY=0.5;entryDx=0;entryDy=0;fontSize=12;fontColor=#000000;startArrow=classic;startFill=1;strokeWidth=1;" parent="APeQ7llEEAEyZt4ls1jC-1" source="APeQ7llEEAEyZt4ls1jC-25" target="APeQ7llEEAEyZt4ls1jC-24" edge="1">
          <mxGeometry relative="1" as="geometry" />
        </mxCell>
        <mxCell id="APeQ7llEEAEyZt4ls1jC-38" style="edgeStyle=orthogonalEdgeStyle;rounded=0;orthogonalLoop=1;jettySize=auto;html=1;exitX=0;exitY=0.5;exitDx=0;exitDy=0;entryX=0;entryY=0.5;entryDx=0;entryDy=0;fontSize=12;fontColor=#000000;startArrow=classic;startFill=1;strokeWidth=1;" parent="APeQ7llEEAEyZt4ls1jC-1" source="APeQ7llEEAEyZt4ls1jC-25" target="APeQ7llEEAEyZt4ls1jC-23" edge="1">
          <mxGeometry relative="1" as="geometry" />
        </mxCell>
        <mxCell id="APeQ7llEEAEyZt4ls1jC-25" value="runtime" style="rounded=0;whiteSpace=wrap;html=1;fontSize=12;strokeWidth=1;" parent="APeQ7llEEAEyZt4ls1jC-1" vertex="1">
          <mxGeometry x="110" y="880" width="230" height="30" as="geometry" />
        </mxCell>
        <mxCell id="APeQ7llEEAEyZt4ls1jC-35" style="edgeStyle=orthogonalEdgeStyle;rounded=0;orthogonalLoop=1;jettySize=auto;html=1;exitX=1;exitY=0.5;exitDx=0;exitDy=0;entryX=0;entryY=0.5;entryDx=0;entryDy=0;fontSize=12;fontColor=#000000;startArrow=classic;startFill=1;strokeWidth=1;" parent="APeQ7llEEAEyZt4ls1jC-1" source="APeQ7llEEAEyZt4ls1jC-30" target="APeQ7llEEAEyZt4ls1jC-33" edge="1">
          <mxGeometry relative="1" as="geometry" />
        </mxCell>
        <mxCell id="APeQ7llEEAEyZt4ls1jC-36" style="edgeStyle=orthogonalEdgeStyle;rounded=0;orthogonalLoop=1;jettySize=auto;html=1;exitX=0.5;exitY=0;exitDx=0;exitDy=0;entryX=0;entryY=0.5;entryDx=0;entryDy=0;fontSize=12;fontColor=#000000;startArrow=classic;startFill=1;strokeWidth=1;" parent="APeQ7llEEAEyZt4ls1jC-1" source="APeQ7llEEAEyZt4ls1jC-30" target="APeQ7llEEAEyZt4ls1jC-32" edge="1">
          <mxGeometry relative="1" as="geometry" />
        </mxCell>
        <mxCell id="APeQ7llEEAEyZt4ls1jC-30" value="API" style="rounded=0;whiteSpace=wrap;html=1;fontSize=12;strokeWidth=1;" parent="APeQ7llEEAEyZt4ls1jC-1" vertex="1">
          <mxGeometry x="560" y="730" width="120" height="60" as="geometry" />
        </mxCell>
        <mxCell id="APeQ7llEEAEyZt4ls1jC-32" value="kubelet" style="rounded=0;whiteSpace=wrap;html=1;fontSize=12;strokeWidth=1;" parent="APeQ7llEEAEyZt4ls1jC-1" vertex="1">
          <mxGeometry x="820" y="680" width="120" height="60" as="geometry" />
        </mxCell>
        <mxCell id="APeQ7llEEAEyZt4ls1jC-33" value="etcd" style="rounded=0;whiteSpace=wrap;html=1;fontSize=12;strokeWidth=1;" parent="APeQ7llEEAEyZt4ls1jC-1" vertex="1">
          <mxGeometry x="820" y="780" width="120" height="60" as="geometry" />
        </mxCell>
        <mxCell id="APeQ7llEEAEyZt4ls1jC-46" style="edgeStyle=orthogonalEdgeStyle;curved=1;rounded=0;orthogonalLoop=1;jettySize=auto;html=1;exitX=1;exitY=1;exitDx=0;exitDy=0;entryX=0.5;entryY=0;entryDx=0;entryDy=0;fontSize=16;fontColor=#000000;startArrow=classic;startFill=1;strokeWidth=1;" parent="APeQ7llEEAEyZt4ls1jC-1" source="APeQ7llEEAEyZt4ls1jC-39" target="APeQ7llEEAEyZt4ls1jC-43" edge="1">
          <mxGeometry relative="1" as="geometry" />
        </mxCell>
        <mxCell id="APeQ7llEEAEyZt4ls1jC-47" style="edgeStyle=orthogonalEdgeStyle;curved=1;rounded=0;orthogonalLoop=1;jettySize=auto;html=1;exitX=0;exitY=1;exitDx=0;exitDy=0;fontSize=16;fontColor=#000000;startArrow=classic;startFill=1;strokeWidth=1;" parent="APeQ7llEEAEyZt4ls1jC-1" source="APeQ7llEEAEyZt4ls1jC-39" edge="1">
          <mxGeometry relative="1" as="geometry">
            <mxPoint x="1000" y="495" as="targetPoint" />
          </mxGeometry>
        </mxCell>
        <mxCell id="APeQ7llEEAEyZt4ls1jC-48" style="edgeStyle=orthogonalEdgeStyle;curved=1;rounded=0;orthogonalLoop=1;jettySize=auto;html=1;exitX=1;exitY=0.5;exitDx=0;exitDy=0;fontSize=17;fontColor=#000000;startArrow=classic;startFill=1;strokeWidth=1;dashed=1;" parent="APeQ7llEEAEyZt4ls1jC-1" source="APeQ7llEEAEyZt4ls1jC-39" target="APeQ7llEEAEyZt4ls1jC-40" edge="1">
          <mxGeometry relative="1" as="geometry" />
        </mxCell>
        <mxCell id="APeQ7llEEAEyZt4ls1jC-39" value="container" style="ellipse;whiteSpace=wrap;html=1;aspect=fixed;fontSize=17;fontColor=#000000;strokeWidth=1;fontStyle=1" parent="APeQ7llEEAEyZt4ls1jC-1" vertex="1">
          <mxGeometry x="1020" y="365" width="100" height="100" as="geometry" />
        </mxCell>
        <mxCell id="APeQ7llEEAEyZt4ls1jC-40" value="&lt;div style=&quot;font-size: 16px;&quot;&gt;P&lt;/div&gt;&lt;div style=&quot;font-size: 16px;&quot;&gt;O&lt;/div&gt;&lt;div style=&quot;font-size: 16px;&quot;&gt;D&lt;br style=&quot;font-size: 16px;&quot;&gt;&lt;/div&gt;" style="rounded=0;whiteSpace=wrap;html=1;fontSize=16;fontColor=#000000;strokeWidth=1;fontStyle=1" parent="APeQ7llEEAEyZt4ls1jC-1" vertex="1">
          <mxGeometry x="1250" y="310" width="40" height="210" as="geometry" />
        </mxCell>
        <mxCell id="APeQ7llEEAEyZt4ls1jC-42" value="&lt;div&gt;runtime&lt;/div&gt;&lt;div&gt;(library)&lt;br&gt;&lt;/div&gt;" style="text;html=1;strokeColor=none;fillColor=none;align=center;verticalAlign=middle;whiteSpace=wrap;rounded=0;fontSize=16;fontColor=#000000;" parent="APeQ7llEEAEyZt4ls1jC-1" vertex="1">
          <mxGeometry x="980" y="505" width="40" height="20" as="geometry" />
        </mxCell>
        <mxCell id="APeQ7llEEAEyZt4ls1jC-43" value="application" style="text;html=1;strokeColor=none;fillColor=none;align=center;verticalAlign=middle;whiteSpace=wrap;rounded=0;fontSize=16;fontColor=#000000;" parent="APeQ7llEEAEyZt4ls1jC-1" vertex="1">
          <mxGeometry x="1130" y="500" width="40" height="20" as="geometry" />
        </mxCell>
        <mxCell id="APeQ7llEEAEyZt4ls1jC-49" value="&lt;h1&gt;Function&lt;/h1&gt;&lt;p&gt;- namespace&lt;br&gt;- c-group&lt;/p&gt;" style="text;html=1;strokeColor=none;fillColor=none;spacing=5;spacingTop=-20;whiteSpace=wrap;overflow=hidden;rounded=0;fontSize=17;fontColor=#000000;" parent="APeQ7llEEAEyZt4ls1jC-1" vertex="1">
          <mxGeometry x="1310" y="305" width="190" height="120" as="geometry" />
        </mxCell>
        <mxCell id="APeQ7llEEAEyZt4ls1jC-50" value="&lt;div align=&quot;left&quot;&gt;mnt&lt;/div&gt;&lt;div align=&quot;left&quot;&gt;uts&lt;/div&gt;&lt;div align=&quot;left&quot;&gt;pid&lt;/div&gt;&lt;div align=&quot;left&quot;&gt;net&lt;br&gt;&lt;/div&gt;" style="text;html=1;strokeColor=none;fillColor=none;align=left;verticalAlign=middle;whiteSpace=wrap;rounded=0;fontSize=17;fontColor=#000000;" parent="APeQ7llEEAEyZt4ls1jC-1" vertex="1">
          <mxGeometry x="1489" y="395" width="40" height="100" as="geometry" />
        </mxCell>
        <mxCell id="APeQ7llEEAEyZt4ls1jC-51" value="" style="endArrow=classic;html=1;dashed=1;fontSize=17;fontColor=#000000;strokeWidth=1;" parent="APeQ7llEEAEyZt4ls1jC-1" edge="1">
          <mxGeometry width="50" height="50" relative="1" as="geometry">
            <mxPoint x="1421" y="397" as="sourcePoint" />
            <mxPoint x="1481" y="427" as="targetPoint" />
          </mxGeometry>
        </mxCell>
        <mxCell id="APeQ7llEEAEyZt4ls1jC-52" value="" style="rounded=1;whiteSpace=wrap;html=1;strokeWidth=2;fillWeight=4;hachureGap=8;hachureAngle=45;sketch=1;fontSize=17;fillColor=#f5f5f5;strokeColor=#666666;fontColor=#333333;" parent="APeQ7llEEAEyZt4ls1jC-1" vertex="1">
          <mxGeometry x="1160" y="680" width="270" height="270" as="geometry" />
        </mxCell>
        <mxCell id="APeQ7llEEAEyZt4ls1jC-56" value="" style="edgeStyle=none;rounded=0;orthogonalLoop=1;jettySize=auto;html=1;dashed=1;fontSize=17;fontColor=#000000;startArrow=classic;startFill=1;strokeWidth=1;" parent="APeQ7llEEAEyZt4ls1jC-1" source="APeQ7llEEAEyZt4ls1jC-53" target="APeQ7llEEAEyZt4ls1jC-55" edge="1">
          <mxGeometry relative="1" as="geometry" />
        </mxCell>
        <mxCell id="APeQ7llEEAEyZt4ls1jC-53" value="networking" style="rounded=0;whiteSpace=wrap;html=1;fontSize=17;fontColor=#000000;strokeWidth=1;" parent="APeQ7llEEAEyZt4ls1jC-1" vertex="1">
          <mxGeometry x="1190" y="730" width="220" height="40" as="geometry" />
        </mxCell>
        <mxCell id="APeQ7llEEAEyZt4ls1jC-54" value="kubernetes" style="rounded=0;whiteSpace=wrap;html=1;fontSize=17;fontColor=#000000;strokeWidth=1;" parent="APeQ7llEEAEyZt4ls1jC-1" vertex="1">
          <mxGeometry x="1190" y="800" width="220" height="40" as="geometry" />
        </mxCell>
        <mxCell id="APeQ7llEEAEyZt4ls1jC-55" value="runtime" style="rounded=0;whiteSpace=wrap;html=1;fontSize=17;fontColor=#000000;strokeWidth=1;" parent="APeQ7llEEAEyZt4ls1jC-1" vertex="1">
          <mxGeometry x="1190" y="870" width="220" height="40" as="geometry" />
        </mxCell>
        <mxCell id="o_xk51Az2PSGA68INuz--15" value="&lt;span style=&quot;background-color: rgb(212 , 225 , 245)&quot;&gt;하드웨어 기반&lt;/span&gt;" style="text;html=1;strokeColor=none;fillColor=none;align=center;verticalAlign=middle;whiteSpace=wrap;rounded=0;fontStyle=1;" parent="APeQ7llEEAEyZt4ls1jC-1" vertex="1">
          <mxGeometry x="70" y="445" width="100" height="25" as="geometry" />
        </mxCell>
        <mxCell id="o_xk51Az2PSGA68INuz--17" value="&lt;span style=&quot;background-color: rgb(212 , 225 , 245)&quot;&gt;소프트웨어 기반&lt;/span&gt;" style="text;html=1;strokeColor=none;fillColor=none;align=center;verticalAlign=middle;whiteSpace=wrap;rounded=0;fontStyle=1;" parent="APeQ7llEEAEyZt4ls1jC-1" vertex="1">
          <mxGeometry x="280" y="392.5" width="100" height="25" as="geometry" />
        </mxCell>
        <mxCell id="Tq0A7EssSrAvvOzJ8fCq-0" value="" style="endArrow=none;dashed=1;html=1;fontColor=#000000;" parent="APeQ7llEEAEyZt4ls1jC-1" edge="1">
          <mxGeometry width="50" height="50" relative="1" as="geometry">
            <mxPoint x="120" y="1080" as="sourcePoint" />
            <mxPoint x="1630" y="1080" as="targetPoint" />
          </mxGeometry>
        </mxCell>
        <mxCell id="Tq0A7EssSrAvvOzJ8fCq-1" value="rkt" style="text;html=1;strokeColor=none;fillColor=none;align=center;verticalAlign=middle;whiteSpace=wrap;rounded=0;fontColor=#000000;fontSize=17;fontStyle=1" parent="APeQ7llEEAEyZt4ls1jC-1" vertex="1">
          <mxGeometry x="160" y="1050" width="40" height="20" as="geometry" />
        </mxCell>
        <mxCell id="Tq0A7EssSrAvvOzJ8fCq-2" value="RUNC" style="text;html=1;strokeColor=none;fillColor=none;align=center;verticalAlign=middle;whiteSpace=wrap;rounded=0;fontColor=#000000;fontSize=17;fontStyle=1" parent="APeQ7llEEAEyZt4ls1jC-1" vertex="1">
          <mxGeometry x="960" y="1050" width="100" height="20" as="geometry" />
        </mxCell>
        <mxCell id="Tq0A7EssSrAvvOzJ8fCq-4" value="docker(old)" style="text;html=1;strokeColor=none;fillColor=none;align=center;verticalAlign=middle;whiteSpace=wrap;rounded=0;fontColor=#000000;fontSize=17;fontStyle=1" parent="APeQ7llEEAEyZt4ls1jC-1" vertex="1">
          <mxGeometry x="420" y="1050" width="100" height="20" as="geometry" />
        </mxCell>
        <mxCell id="Tq0A7EssSrAvvOzJ8fCq-5" value="docker(current)" style="text;html=1;strokeColor=none;fillColor=none;align=center;verticalAlign=middle;whiteSpace=wrap;rounded=0;fontColor=#000000;fontSize=17;fontStyle=1" parent="APeQ7llEEAEyZt4ls1jC-1" vertex="1">
          <mxGeometry x="710" y="1050" width="100" height="20" as="geometry" />
        </mxCell>
        <mxCell id="Tq0A7EssSrAvvOzJ8fCq-6" value="Podman" style="text;html=1;strokeColor=none;fillColor=none;align=center;verticalAlign=middle;whiteSpace=wrap;rounded=0;fontColor=#000000;fontSize=17;fontStyle=1" parent="APeQ7llEEAEyZt4ls1jC-1" vertex="1">
          <mxGeometry x="1191" y="1050" width="100" height="20" as="geometry" />
        </mxCell>
        <mxCell id="Tq0A7EssSrAvvOzJ8fCq-10" style="edgeStyle=orthogonalEdgeStyle;rounded=0;orthogonalLoop=1;jettySize=auto;html=1;exitX=0;exitY=0.5;exitDx=0;exitDy=0;entryX=0;entryY=0.5;entryDx=0;entryDy=0;fontSize=12;fontColor=#000000;" parent="APeQ7llEEAEyZt4ls1jC-1" source="Tq0A7EssSrAvvOzJ8fCq-7" target="Tq0A7EssSrAvvOzJ8fCq-8" edge="1">
          <mxGeometry relative="1" as="geometry" />
        </mxCell>
        <mxCell id="Tq0A7EssSrAvvOzJ8fCq-7" value="systemd" style="rounded=0;whiteSpace=wrap;html=1;fontSize=12;fontColor=#333333;fontStyle=1;fillColor=#f5f5f5;strokeColor=#666666;" parent="APeQ7llEEAEyZt4ls1jC-1" vertex="1">
          <mxGeometry x="160" y="1100" width="120" height="40" as="geometry" />
        </mxCell>
        <mxCell id="Tq0A7EssSrAvvOzJ8fCq-12" style="edgeStyle=orthogonalEdgeStyle;rounded=0;orthogonalLoop=1;jettySize=auto;html=1;exitX=0.5;exitY=1;exitDx=0;exitDy=0;entryX=0.5;entryY=0;entryDx=0;entryDy=0;fontSize=12;fontColor=#000000;" parent="APeQ7llEEAEyZt4ls1jC-1" source="Tq0A7EssSrAvvOzJ8fCq-8" target="Tq0A7EssSrAvvOzJ8fCq-9" edge="1">
          <mxGeometry relative="1" as="geometry" />
        </mxCell>
        <mxCell id="Tq0A7EssSrAvvOzJ8fCq-8" value="rkt" style="rounded=0;whiteSpace=wrap;html=1;fontSize=12;fontColor=#000000;" parent="APeQ7llEEAEyZt4ls1jC-1" vertex="1">
          <mxGeometry x="230" y="1160" width="120" height="40" as="geometry" />
        </mxCell>
        <mxCell id="Tq0A7EssSrAvvOzJ8fCq-9" value="application" style="rounded=0;whiteSpace=wrap;html=1;fontSize=12;fillColor=#dae8fc;strokeColor=#6c8ebf;" parent="APeQ7llEEAEyZt4ls1jC-1" vertex="1">
          <mxGeometry x="250" y="1220" width="120" height="40" as="geometry" />
        </mxCell>
        <mxCell id="lVQvzAmhJl_leXtWsRuN-35" style="edgeStyle=orthogonalEdgeStyle;rounded=0;orthogonalLoop=1;jettySize=auto;html=1;exitX=0.5;exitY=1;exitDx=0;exitDy=0;entryX=0.433;entryY=0.05;entryDx=0;entryDy=0;entryPerimeter=0;fontSize=12;" parent="APeQ7llEEAEyZt4ls1jC-1" source="Tq0A7EssSrAvvOzJ8fCq-13" target="Tq0A7EssSrAvvOzJ8fCq-14" edge="1">
          <mxGeometry relative="1" as="geometry" />
        </mxCell>
        <mxCell id="Tq0A7EssSrAvvOzJ8fCq-13" value="systemd" style="rounded=0;whiteSpace=wrap;html=1;fontSize=12;fontColor=#333333;fontStyle=1;fillColor=#f5f5f5;strokeColor=#666666;" parent="APeQ7llEEAEyZt4ls1jC-1" vertex="1">
          <mxGeometry x="420" y="1100" width="120" height="40" as="geometry" />
        </mxCell>
        <mxCell id="lVQvzAmhJl_leXtWsRuN-36" style="edgeStyle=orthogonalEdgeStyle;rounded=0;orthogonalLoop=1;jettySize=auto;html=1;exitX=0.5;exitY=1;exitDx=0;exitDy=0;entryX=0.5;entryY=0;entryDx=0;entryDy=0;fontSize=12;" parent="APeQ7llEEAEyZt4ls1jC-1" source="Tq0A7EssSrAvvOzJ8fCq-14" target="Tq0A7EssSrAvvOzJ8fCq-15" edge="1">
          <mxGeometry relative="1" as="geometry" />
        </mxCell>
        <mxCell id="Tq0A7EssSrAvvOzJ8fCq-14" value="docker run" style="rounded=0;whiteSpace=wrap;html=1;fontSize=12;fontColor=#000000;" parent="APeQ7llEEAEyZt4ls1jC-1" vertex="1">
          <mxGeometry x="450" y="1160" width="120" height="40" as="geometry" />
        </mxCell>
        <mxCell id="lVQvzAmhJl_leXtWsRuN-37" style="edgeStyle=orthogonalEdgeStyle;rounded=0;orthogonalLoop=1;jettySize=auto;html=1;exitX=0.5;exitY=1;exitDx=0;exitDy=0;entryX=0.5;entryY=0;entryDx=0;entryDy=0;fontSize=12;" parent="APeQ7llEEAEyZt4ls1jC-1" source="Tq0A7EssSrAvvOzJ8fCq-15" target="Tq0A7EssSrAvvOzJ8fCq-16" edge="1">
          <mxGeometry relative="1" as="geometry" />
        </mxCell>
        <mxCell id="Tq0A7EssSrAvvOzJ8fCq-15" value="docker daemon" style="rounded=0;whiteSpace=wrap;html=1;fontSize=12;fontColor=#000000;" parent="APeQ7llEEAEyZt4ls1jC-1" vertex="1">
          <mxGeometry x="480" y="1220" width="120" height="40" as="geometry" />
        </mxCell>
        <mxCell id="Tq0A7EssSrAvvOzJ8fCq-16" value="application" style="rounded=0;whiteSpace=wrap;html=1;fontSize=12;fillColor=#dae8fc;strokeColor=#6c8ebf;" parent="APeQ7llEEAEyZt4ls1jC-1" vertex="1">
          <mxGeometry x="500" y="1280" width="120" height="40" as="geometry" />
        </mxCell>
        <mxCell id="lVQvzAmhJl_leXtWsRuN-15" style="edgeStyle=orthogonalEdgeStyle;rounded=0;orthogonalLoop=1;jettySize=auto;html=1;exitX=0.5;exitY=1;exitDx=0;exitDy=0;entryX=0.5;entryY=0;entryDx=0;entryDy=0;fontSize=12;" parent="APeQ7llEEAEyZt4ls1jC-1" source="Tq0A7EssSrAvvOzJ8fCq-17" target="lVQvzAmhJl_leXtWsRuN-12" edge="1">
          <mxGeometry relative="1" as="geometry" />
        </mxCell>
        <mxCell id="Tq0A7EssSrAvvOzJ8fCq-17" value="systemd" style="rounded=0;whiteSpace=wrap;html=1;fontSize=12;fontColor=#333333;fontStyle=1;fillColor=#f5f5f5;strokeColor=#666666;" parent="APeQ7llEEAEyZt4ls1jC-1" vertex="1">
          <mxGeometry x="950" y="1100" width="120" height="40" as="geometry" />
        </mxCell>
        <mxCell id="lVQvzAmhJl_leXtWsRuN-39" style="edgeStyle=orthogonalEdgeStyle;rounded=0;orthogonalLoop=1;jettySize=auto;html=1;exitX=0.5;exitY=1;exitDx=0;exitDy=0;entryX=0.5;entryY=0;entryDx=0;entryDy=0;fontSize=12;" parent="APeQ7llEEAEyZt4ls1jC-1" source="Tq0A7EssSrAvvOzJ8fCq-18" target="Tq0A7EssSrAvvOzJ8fCq-19" edge="1">
          <mxGeometry relative="1" as="geometry" />
        </mxCell>
        <mxCell id="Tq0A7EssSrAvvOzJ8fCq-18" value="docker run" style="rounded=0;whiteSpace=wrap;html=1;fontSize=12;fontColor=#000000;" parent="APeQ7llEEAEyZt4ls1jC-1" vertex="1">
          <mxGeometry x="720" y="1160" width="120" height="40" as="geometry" />
        </mxCell>
        <mxCell id="lVQvzAmhJl_leXtWsRuN-40" style="edgeStyle=orthogonalEdgeStyle;rounded=0;orthogonalLoop=1;jettySize=auto;html=1;exitX=0.5;exitY=1;exitDx=0;exitDy=0;entryX=0.5;entryY=0;entryDx=0;entryDy=0;fontSize=12;" parent="APeQ7llEEAEyZt4ls1jC-1" source="Tq0A7EssSrAvvOzJ8fCq-19" target="Tq0A7EssSrAvvOzJ8fCq-20" edge="1">
          <mxGeometry relative="1" as="geometry" />
        </mxCell>
        <mxCell id="Tq0A7EssSrAvvOzJ8fCq-19" value="docker engine" style="rounded=0;whiteSpace=wrap;html=1;fontSize=12;fontColor=#000000;" parent="APeQ7llEEAEyZt4ls1jC-1" vertex="1">
          <mxGeometry x="740" y="1220" width="120" height="40" as="geometry" />
        </mxCell>
        <mxCell id="lVQvzAmhJl_leXtWsRuN-43" style="edgeStyle=orthogonalEdgeStyle;rounded=0;orthogonalLoop=1;jettySize=auto;html=1;exitX=0.5;exitY=1;exitDx=0;exitDy=0;entryX=0.5;entryY=0;entryDx=0;entryDy=0;fontSize=12;" parent="APeQ7llEEAEyZt4ls1jC-1" source="Tq0A7EssSrAvvOzJ8fCq-20" target="Tq0A7EssSrAvvOzJ8fCq-21" edge="1">
          <mxGeometry relative="1" as="geometry" />
        </mxCell>
        <mxCell id="Tq0A7EssSrAvvOzJ8fCq-20" value="containered" style="rounded=0;whiteSpace=wrap;html=1;fontSize=12;fontColor=#000000;" parent="APeQ7llEEAEyZt4ls1jC-1" vertex="1">
          <mxGeometry x="750" y="1280" width="120" height="40" as="geometry" />
        </mxCell>
        <mxCell id="lVQvzAmhJl_leXtWsRuN-44" style="edgeStyle=orthogonalEdgeStyle;rounded=0;orthogonalLoop=1;jettySize=auto;html=1;exitX=0.5;exitY=1;exitDx=0;exitDy=0;entryX=0.5;entryY=0;entryDx=0;entryDy=0;fontSize=12;" parent="APeQ7llEEAEyZt4ls1jC-1" source="Tq0A7EssSrAvvOzJ8fCq-21" target="Tq0A7EssSrAvvOzJ8fCq-22" edge="1">
          <mxGeometry relative="1" as="geometry" />
        </mxCell>
        <mxCell id="Tq0A7EssSrAvvOzJ8fCq-21" value="runc" style="rounded=0;whiteSpace=wrap;html=1;fontSize=12;fontColor=#000000;" parent="APeQ7llEEAEyZt4ls1jC-1" vertex="1">
          <mxGeometry x="770" y="1340" width="120" height="40" as="geometry" />
        </mxCell>
        <mxCell id="Tq0A7EssSrAvvOzJ8fCq-22" value="application" style="rounded=0;whiteSpace=wrap;html=1;fontSize=12;fillColor=#dae8fc;strokeColor=#6c8ebf;" parent="APeQ7llEEAEyZt4ls1jC-1" vertex="1">
          <mxGeometry x="790" y="1400" width="120" height="40" as="geometry" />
        </mxCell>
        <mxCell id="lVQvzAmhJl_leXtWsRuN-5" style="edgeStyle=orthogonalEdgeStyle;rounded=0;orthogonalLoop=1;jettySize=auto;html=1;exitX=0.5;exitY=1;exitDx=0;exitDy=0;entryX=0.5;entryY=0;entryDx=0;entryDy=0;fontSize=12;" parent="APeQ7llEEAEyZt4ls1jC-1" source="Tq0A7EssSrAvvOzJ8fCq-23" target="lVQvzAmhJl_leXtWsRuN-0" edge="1">
          <mxGeometry relative="1" as="geometry" />
        </mxCell>
        <mxCell id="lVQvzAmhJl_leXtWsRuN-7" style="edgeStyle=orthogonalEdgeStyle;rounded=0;orthogonalLoop=1;jettySize=auto;html=1;exitX=0;exitY=0.5;exitDx=0;exitDy=0;entryX=0;entryY=0.5;entryDx=0;entryDy=0;fontSize=12;" parent="APeQ7llEEAEyZt4ls1jC-1" source="Tq0A7EssSrAvvOzJ8fCq-23" target="lVQvzAmhJl_leXtWsRuN-0" edge="1">
          <mxGeometry relative="1" as="geometry" />
        </mxCell>
        <mxCell id="lVQvzAmhJl_leXtWsRuN-8" style="edgeStyle=orthogonalEdgeStyle;rounded=0;orthogonalLoop=1;jettySize=auto;html=1;exitX=0;exitY=0.5;exitDx=0;exitDy=0;entryX=0;entryY=0.5;entryDx=0;entryDy=0;fontSize=12;" parent="APeQ7llEEAEyZt4ls1jC-1" source="Tq0A7EssSrAvvOzJ8fCq-23" target="lVQvzAmhJl_leXtWsRuN-2" edge="1">
          <mxGeometry relative="1" as="geometry">
            <Array as="points">
              <mxPoint x="1140" y="1120" />
              <mxPoint x="1140" y="1300" />
            </Array>
          </mxGeometry>
        </mxCell>
        <mxCell id="Tq0A7EssSrAvvOzJ8fCq-23" value="systemd" style="rounded=0;whiteSpace=wrap;html=1;fontSize=12;fontColor=#333333;fontStyle=1;fillColor=#f5f5f5;strokeColor=#666666;" parent="APeQ7llEEAEyZt4ls1jC-1" vertex="1">
          <mxGeometry x="1180" y="1100" width="120" height="40" as="geometry" />
        </mxCell>
        <mxCell id="lVQvzAmhJl_leXtWsRuN-6" style="edgeStyle=orthogonalEdgeStyle;rounded=0;orthogonalLoop=1;jettySize=auto;html=1;exitX=0.5;exitY=1;exitDx=0;exitDy=0;entryX=0.442;entryY=-0.05;entryDx=0;entryDy=0;entryPerimeter=0;fontSize=12;" parent="APeQ7llEEAEyZt4ls1jC-1" source="lVQvzAmhJl_leXtWsRuN-0" target="lVQvzAmhJl_leXtWsRuN-1" edge="1">
          <mxGeometry relative="1" as="geometry" />
        </mxCell>
        <mxCell id="lVQvzAmhJl_leXtWsRuN-0" value="conmon" style="rounded=0;whiteSpace=wrap;html=1;fontSize=12;fontColor=#000000;" parent="APeQ7llEEAEyZt4ls1jC-1" vertex="1">
          <mxGeometry x="1210" y="1160" width="120" height="40" as="geometry" />
        </mxCell>
        <mxCell id="lVQvzAmhJl_leXtWsRuN-1" value="&lt;div style=&quot;font-size: 12px;&quot;&gt;infra&lt;/div&gt;&lt;div style=&quot;font-size: 12px;&quot;&gt;Container&lt;br style=&quot;font-size: 12px;&quot;&gt;&lt;/div&gt;" style="rounded=0;whiteSpace=wrap;html=1;fontSize=12;fontColor=#000000;" parent="APeQ7llEEAEyZt4ls1jC-1" vertex="1">
          <mxGeometry x="1240" y="1220" width="120" height="40" as="geometry" />
        </mxCell>
        <mxCell id="lVQvzAmhJl_leXtWsRuN-9" style="edgeStyle=orthogonalEdgeStyle;rounded=0;orthogonalLoop=1;jettySize=auto;html=1;exitX=0.5;exitY=1;exitDx=0;exitDy=0;entryX=0.5;entryY=0;entryDx=0;entryDy=0;fontSize=12;" parent="APeQ7llEEAEyZt4ls1jC-1" source="lVQvzAmhJl_leXtWsRuN-2" target="lVQvzAmhJl_leXtWsRuN-3" edge="1">
          <mxGeometry relative="1" as="geometry" />
        </mxCell>
        <mxCell id="lVQvzAmhJl_leXtWsRuN-2" value="conmon" style="rounded=0;whiteSpace=wrap;html=1;fontSize=12;fontColor=#000000;" parent="APeQ7llEEAEyZt4ls1jC-1" vertex="1">
          <mxGeometry x="1210" y="1280" width="120" height="40" as="geometry" />
        </mxCell>
        <mxCell id="lVQvzAmhJl_leXtWsRuN-10" style="edgeStyle=orthogonalEdgeStyle;rounded=0;orthogonalLoop=1;jettySize=auto;html=1;exitX=0.5;exitY=1;exitDx=0;exitDy=0;entryX=0.5;entryY=0;entryDx=0;entryDy=0;fontSize=12;" parent="APeQ7llEEAEyZt4ls1jC-1" source="lVQvzAmhJl_leXtWsRuN-3" target="lVQvzAmhJl_leXtWsRuN-4" edge="1">
          <mxGeometry relative="1" as="geometry" />
        </mxCell>
        <mxCell id="lVQvzAmhJl_leXtWsRuN-3" value="&lt;div style=&quot;font-size: 12px;&quot;&gt;Container A&lt;/div&gt;&lt;div style=&quot;font-size: 12px;&quot;&gt;(runc)&lt;br style=&quot;font-size: 12px;&quot;&gt;&lt;/div&gt;" style="rounded=0;whiteSpace=wrap;html=1;fontSize=12;fontColor=#000000;" parent="APeQ7llEEAEyZt4ls1jC-1" vertex="1">
          <mxGeometry x="1240" y="1340" width="120" height="40" as="geometry" />
        </mxCell>
        <mxCell id="lVQvzAmhJl_leXtWsRuN-4" value="&lt;div style=&quot;font-size: 12px;&quot;&gt;Container B&lt;/div&gt;&lt;div style=&quot;font-size: 12px;&quot;&gt;(runc)&lt;br style=&quot;font-size: 12px;&quot;&gt;&lt;/div&gt;" style="rounded=0;whiteSpace=wrap;html=1;fontSize=12;fillColor=#d5e8d4;strokeColor=#82b366;" parent="APeQ7llEEAEyZt4ls1jC-1" vertex="1">
          <mxGeometry x="1240" y="1400" width="120" height="40" as="geometry" />
        </mxCell>
        <mxCell id="lVQvzAmhJl_leXtWsRuN-38" style="edgeStyle=orthogonalEdgeStyle;rounded=0;orthogonalLoop=1;jettySize=auto;html=1;exitX=0.5;exitY=1;exitDx=0;exitDy=0;entryX=0.425;entryY=0;entryDx=0;entryDy=0;entryPerimeter=0;fontSize=12;" parent="APeQ7llEEAEyZt4ls1jC-1" source="lVQvzAmhJl_leXtWsRuN-11" target="Tq0A7EssSrAvvOzJ8fCq-18" edge="1">
          <mxGeometry relative="1" as="geometry" />
        </mxCell>
        <mxCell id="lVQvzAmhJl_leXtWsRuN-11" value="systemd" style="rounded=0;whiteSpace=wrap;html=1;fontSize=12;fontColor=#333333;fontStyle=1;fillColor=#f5f5f5;strokeColor=#666666;" parent="APeQ7llEEAEyZt4ls1jC-1" vertex="1">
          <mxGeometry x="700" y="1100" width="120" height="40" as="geometry" />
        </mxCell>
        <mxCell id="lVQvzAmhJl_leXtWsRuN-14" style="edgeStyle=orthogonalEdgeStyle;rounded=0;orthogonalLoop=1;jettySize=auto;html=1;exitX=0.5;exitY=1;exitDx=0;exitDy=0;entryX=0.5;entryY=0;entryDx=0;entryDy=0;fontSize=12;" parent="APeQ7llEEAEyZt4ls1jC-1" source="lVQvzAmhJl_leXtWsRuN-12" target="lVQvzAmhJl_leXtWsRuN-13" edge="1">
          <mxGeometry relative="1" as="geometry" />
        </mxCell>
        <mxCell id="lVQvzAmhJl_leXtWsRuN-12" value="runc" style="rounded=0;whiteSpace=wrap;html=1;fontSize=12;fontColor=#000000;" parent="APeQ7llEEAEyZt4ls1jC-1" vertex="1">
          <mxGeometry x="980" y="1170" width="120" height="40" as="geometry" />
        </mxCell>
        <mxCell id="lVQvzAmhJl_leXtWsRuN-13" value="container" style="rounded=0;whiteSpace=wrap;html=1;fontSize=12;fillColor=#d5e8d4;strokeColor=#82b366;" parent="APeQ7llEEAEyZt4ls1jC-1" vertex="1">
          <mxGeometry x="980" y="1400" width="120" height="40" as="geometry" />
        </mxCell>
        <mxCell id="lVQvzAmhJl_leXtWsRuN-16" value="CRI-O" style="text;html=1;strokeColor=none;fillColor=none;align=center;verticalAlign=middle;whiteSpace=wrap;rounded=0;fontColor=#000000;fontSize=17;fontStyle=1" parent="APeQ7llEEAEyZt4ls1jC-1" vertex="1">
          <mxGeometry x="1420" y="1050" width="100" height="20" as="geometry" />
        </mxCell>
        <mxCell id="lVQvzAmhJl_leXtWsRuN-28" style="edgeStyle=orthogonalEdgeStyle;rounded=0;orthogonalLoop=1;jettySize=auto;html=1;exitX=0.5;exitY=1;exitDx=0;exitDy=0;fontSize=12;" parent="APeQ7llEEAEyZt4ls1jC-1" source="lVQvzAmhJl_leXtWsRuN-19" target="lVQvzAmhJl_leXtWsRuN-20" edge="1">
          <mxGeometry relative="1" as="geometry" />
        </mxCell>
        <mxCell id="lVQvzAmhJl_leXtWsRuN-19" value="systemd" style="rounded=0;whiteSpace=wrap;html=1;fontSize=12;fontColor=#333333;fontStyle=1;fillColor=#f5f5f5;strokeColor=#666666;" parent="APeQ7llEEAEyZt4ls1jC-1" vertex="1">
          <mxGeometry x="1410" y="1100" width="120" height="40" as="geometry" />
        </mxCell>
        <mxCell id="lVQvzAmhJl_leXtWsRuN-29" style="edgeStyle=orthogonalEdgeStyle;rounded=0;orthogonalLoop=1;jettySize=auto;html=1;exitX=0.5;exitY=1;exitDx=0;exitDy=0;entryX=0.5;entryY=0;entryDx=0;entryDy=0;fontSize=12;" parent="APeQ7llEEAEyZt4ls1jC-1" source="lVQvzAmhJl_leXtWsRuN-20" target="lVQvzAmhJl_leXtWsRuN-21" edge="1">
          <mxGeometry relative="1" as="geometry" />
        </mxCell>
        <mxCell id="lVQvzAmhJl_leXtWsRuN-20" value="runc" style="rounded=0;whiteSpace=wrap;html=1;fontSize=12;fontColor=#000000;" parent="APeQ7llEEAEyZt4ls1jC-1" vertex="1">
          <mxGeometry x="1410" y="1180" width="120" height="40" as="geometry" />
        </mxCell>
        <mxCell id="lVQvzAmhJl_leXtWsRuN-34" style="edgeStyle=orthogonalEdgeStyle;rounded=0;orthogonalLoop=1;jettySize=auto;html=1;exitX=0.5;exitY=1;exitDx=0;exitDy=0;entryX=0.5;entryY=0;entryDx=0;entryDy=0;fontSize=12;" parent="APeQ7llEEAEyZt4ls1jC-1" source="lVQvzAmhJl_leXtWsRuN-21" target="lVQvzAmhJl_leXtWsRuN-22" edge="1">
          <mxGeometry relative="1" as="geometry" />
        </mxCell>
        <mxCell id="lVQvzAmhJl_leXtWsRuN-21" value="OCI Spec" style="rounded=0;whiteSpace=wrap;html=1;fontSize=12;fontColor=#000000;" parent="APeQ7llEEAEyZt4ls1jC-1" vertex="1">
          <mxGeometry x="1440" y="1250" width="120" height="40" as="geometry" />
        </mxCell>
        <mxCell id="lVQvzAmhJl_leXtWsRuN-31" style="edgeStyle=orthogonalEdgeStyle;rounded=0;orthogonalLoop=1;jettySize=auto;html=1;exitX=0.5;exitY=1;exitDx=0;exitDy=0;entryX=0.5;entryY=0;entryDx=0;entryDy=0;fontSize=12;" parent="APeQ7llEEAEyZt4ls1jC-1" source="lVQvzAmhJl_leXtWsRuN-22" target="lVQvzAmhJl_leXtWsRuN-25" edge="1">
          <mxGeometry relative="1" as="geometry" />
        </mxCell>
        <mxCell id="lVQvzAmhJl_leXtWsRuN-22" value="CRI-O" style="rounded=0;whiteSpace=wrap;html=1;fontSize=12;fontColor=#000000;" parent="APeQ7llEEAEyZt4ls1jC-1" vertex="1">
          <mxGeometry x="1480" y="1330" width="120" height="40" as="geometry" />
        </mxCell>
        <mxCell id="lVQvzAmhJl_leXtWsRuN-27" value="" style="edgeStyle=orthogonalEdgeStyle;rounded=0;orthogonalLoop=1;jettySize=auto;html=1;fontSize=12;" parent="APeQ7llEEAEyZt4ls1jC-1" source="lVQvzAmhJl_leXtWsRuN-25" target="lVQvzAmhJl_leXtWsRuN-26" edge="1">
          <mxGeometry relative="1" as="geometry" />
        </mxCell>
        <mxCell id="lVQvzAmhJl_leXtWsRuN-25" value="kubernetes" style="rounded=0;whiteSpace=wrap;html=1;fontSize=12;fontColor=#000000;" parent="APeQ7llEEAEyZt4ls1jC-1" vertex="1">
          <mxGeometry x="1480" y="1400" width="120" height="40" as="geometry" />
        </mxCell>
        <mxCell id="lVQvzAmhJl_leXtWsRuN-48" style="edgeStyle=orthogonalEdgeStyle;rounded=0;orthogonalLoop=1;jettySize=auto;html=1;exitX=0.5;exitY=1;exitDx=0;exitDy=0;entryX=0.5;entryY=0;entryDx=0;entryDy=0;fontSize=12;" parent="APeQ7llEEAEyZt4ls1jC-1" source="lVQvzAmhJl_leXtWsRuN-26" target="lVQvzAmhJl_leXtWsRuN-45" edge="1">
          <mxGeometry relative="1" as="geometry" />
        </mxCell>
        <mxCell id="lVQvzAmhJl_leXtWsRuN-26" value="openshift" style="rounded=0;whiteSpace=wrap;html=1;fontSize=12;fontColor=#000000;" parent="APeQ7llEEAEyZt4ls1jC-1" vertex="1">
          <mxGeometry x="1480" y="1470" width="120" height="40" as="geometry" />
        </mxCell>
        <mxCell id="lVQvzAmhJl_leXtWsRuN-45" value="container" style="rounded=0;whiteSpace=wrap;html=1;fontSize=12;fillColor=#d5e8d4;strokeColor=#82b366;" parent="APeQ7llEEAEyZt4ls1jC-1" vertex="1">
          <mxGeometry x="1480" y="1540" width="120" height="40" as="geometry" />
        </mxCell>
      </root>
    </mxGraphModel>
  </diagram>
  <diagram id="M0TkJWx3dKyhN_6SS6zS" name="KUBERNETES-4">
    <mxGraphModel dx="1428" dy="965" grid="1" gridSize="10" guides="1" tooltips="1" connect="1" arrows="1" fold="1" page="1" pageScale="1" pageWidth="827" pageHeight="1169" math="0" shadow="0">
      <root>
        <mxCell id="cTaFEgAVj7jLWrlAwl5F-0" />
        <mxCell id="cTaFEgAVj7jLWrlAwl5F-1" parent="cTaFEgAVj7jLWrlAwl5F-0" />
        <mxCell id="3MlAlHUWxYamsKUBgkU1-0" value="" style="rounded=0;whiteSpace=wrap;html=1;fontSize=12;fontColor=#333333;strokeWidth=1;fillColor=#f5f5f5;strokeColor=#666666;" parent="cTaFEgAVj7jLWrlAwl5F-1" vertex="1">
          <mxGeometry x="510" y="110" width="200" height="140" as="geometry" />
        </mxCell>
        <mxCell id="3MlAlHUWxYamsKUBgkU1-1" value="" style="rounded=0;whiteSpace=wrap;html=1;fontSize=12;fontColor=#333333;strokeWidth=1;fillColor=#f5f5f5;strokeColor=#666666;" parent="cTaFEgAVj7jLWrlAwl5F-1" vertex="1">
          <mxGeometry x="70" y="100" width="290" height="240" as="geometry" />
        </mxCell>
        <mxCell id="3MlAlHUWxYamsKUBgkU1-2" value="POD" style="rounded=0;whiteSpace=wrap;html=1;fontSize=12;strokeWidth=1;" parent="cTaFEgAVj7jLWrlAwl5F-1" vertex="1">
          <mxGeometry x="100" y="150" width="90" height="60" as="geometry" />
        </mxCell>
        <mxCell id="3MlAlHUWxYamsKUBgkU1-3" style="edgeStyle=orthogonalEdgeStyle;rounded=0;orthogonalLoop=1;jettySize=auto;html=1;exitX=1;exitY=0.5;exitDx=0;exitDy=0;entryX=0;entryY=0.5;entryDx=0;entryDy=0;fontSize=12;fontColor=#000000;startArrow=classic;startFill=1;strokeWidth=1;" parent="cTaFEgAVj7jLWrlAwl5F-1" source="3MlAlHUWxYamsKUBgkU1-4" target="3MlAlHUWxYamsKUBgkU1-10" edge="1">
          <mxGeometry relative="1" as="geometry" />
        </mxCell>
        <mxCell id="3MlAlHUWxYamsKUBgkU1-4" value="kubelet" style="rounded=0;whiteSpace=wrap;html=1;fontSize=12;strokeWidth=1;" parent="cTaFEgAVj7jLWrlAwl5F-1" vertex="1">
          <mxGeometry x="240" y="150" width="90" height="60" as="geometry" />
        </mxCell>
        <mxCell id="3MlAlHUWxYamsKUBgkU1-5" style="edgeStyle=orthogonalEdgeStyle;rounded=0;orthogonalLoop=1;jettySize=auto;html=1;exitX=0.5;exitY=0;exitDx=0;exitDy=0;entryX=0;entryY=0.5;entryDx=0;entryDy=0;fontSize=12;fontColor=#000000;startArrow=classic;startFill=1;strokeWidth=1;" parent="cTaFEgAVj7jLWrlAwl5F-1" source="3MlAlHUWxYamsKUBgkU1-7" target="3MlAlHUWxYamsKUBgkU1-4" edge="1">
          <mxGeometry relative="1" as="geometry" />
        </mxCell>
        <mxCell id="3MlAlHUWxYamsKUBgkU1-6" style="edgeStyle=orthogonalEdgeStyle;rounded=0;orthogonalLoop=1;jettySize=auto;html=1;exitX=0;exitY=0.5;exitDx=0;exitDy=0;entryX=0;entryY=0.5;entryDx=0;entryDy=0;fontSize=12;fontColor=#000000;startArrow=classic;startFill=1;strokeWidth=1;" parent="cTaFEgAVj7jLWrlAwl5F-1" source="3MlAlHUWxYamsKUBgkU1-7" target="3MlAlHUWxYamsKUBgkU1-2" edge="1">
          <mxGeometry relative="1" as="geometry" />
        </mxCell>
        <mxCell id="3MlAlHUWxYamsKUBgkU1-7" value="runtime" style="rounded=0;whiteSpace=wrap;html=1;fontSize=12;strokeWidth=1;" parent="cTaFEgAVj7jLWrlAwl5F-1" vertex="1">
          <mxGeometry x="100" y="230" width="230" height="30" as="geometry" />
        </mxCell>
        <mxCell id="3MlAlHUWxYamsKUBgkU1-8" style="edgeStyle=orthogonalEdgeStyle;rounded=0;orthogonalLoop=1;jettySize=auto;html=1;entryX=0;entryY=0.5;entryDx=0;entryDy=0;fontSize=12;fontColor=#000000;startArrow=classic;startFill=1;strokeWidth=1;exitX=0.5;exitY=1;exitDx=0;exitDy=0;" parent="cTaFEgAVj7jLWrlAwl5F-1" source="3MlAlHUWxYamsKUBgkU1-10" target="3MlAlHUWxYamsKUBgkU1-12" edge="1">
          <mxGeometry relative="1" as="geometry">
            <mxPoint x="600" y="220" as="sourcePoint" />
          </mxGeometry>
        </mxCell>
        <mxCell id="3MlAlHUWxYamsKUBgkU1-9" style="edgeStyle=orthogonalEdgeStyle;rounded=0;orthogonalLoop=1;jettySize=auto;html=1;exitX=0.5;exitY=0;exitDx=0;exitDy=0;entryX=0;entryY=0.5;entryDx=0;entryDy=0;fontSize=12;fontColor=#000000;startArrow=classic;startFill=1;strokeWidth=1;" parent="cTaFEgAVj7jLWrlAwl5F-1" source="3MlAlHUWxYamsKUBgkU1-10" target="3MlAlHUWxYamsKUBgkU1-11" edge="1">
          <mxGeometry relative="1" as="geometry">
            <Array as="points">
              <mxPoint x="610" y="130" />
            </Array>
          </mxGeometry>
        </mxCell>
        <mxCell id="3MlAlHUWxYamsKUBgkU1-10" value="API" style="rounded=0;whiteSpace=wrap;html=1;fontSize=12;strokeWidth=1;" parent="cTaFEgAVj7jLWrlAwl5F-1" vertex="1">
          <mxGeometry x="550" y="150" width="120" height="60" as="geometry" />
        </mxCell>
        <mxCell id="3MlAlHUWxYamsKUBgkU1-11" value="kubelet" style="rounded=0;whiteSpace=wrap;html=1;fontSize=12;strokeWidth=1;" parent="cTaFEgAVj7jLWrlAwl5F-1" vertex="1">
          <mxGeometry x="800" y="110" width="120" height="40" as="geometry" />
        </mxCell>
        <mxCell id="3MlAlHUWxYamsKUBgkU1-12" value="etcd" style="rounded=0;whiteSpace=wrap;html=1;fontSize=12;strokeWidth=1;" parent="cTaFEgAVj7jLWrlAwl5F-1" vertex="1">
          <mxGeometry x="800" y="210" width="120" height="40" as="geometry" />
        </mxCell>
        <mxCell id="3MlAlHUWxYamsKUBgkU1-15" style="edgeStyle=orthogonalEdgeStyle;rounded=0;orthogonalLoop=1;jettySize=auto;html=1;exitX=1;exitY=0.5;exitDx=0;exitDy=0;entryX=0.5;entryY=1;entryDx=0;entryDy=0;dashed=1;fontSize=17;fontColor=#000000;startArrow=classic;startFill=1;strokeWidth=1;" parent="cTaFEgAVj7jLWrlAwl5F-1" source="3MlAlHUWxYamsKUBgkU1-13" target="3MlAlHUWxYamsKUBgkU1-7" edge="1">
          <mxGeometry relative="1" as="geometry" />
        </mxCell>
        <mxCell id="3MlAlHUWxYamsKUBgkU1-13" value="&lt;font style=&quot;font-size: 14px&quot;&gt;APP&lt;/font&gt;" style="ellipse;whiteSpace=wrap;html=1;aspect=fixed;fontSize=17;fontColor=#000000;strokeWidth=1;" parent="cTaFEgAVj7jLWrlAwl5F-1" vertex="1">
          <mxGeometry x="100" y="280" width="50" height="50" as="geometry" />
        </mxCell>
        <mxCell id="3MlAlHUWxYamsKUBgkU1-17" value="" style="rounded=0;whiteSpace=wrap;html=1;fontSize=12;fontColor=#333333;strokeWidth=1;fillColor=#f5f5f5;strokeColor=#666666;" parent="cTaFEgAVj7jLWrlAwl5F-1" vertex="1">
          <mxGeometry x="1260" y="80" width="200" height="190" as="geometry" />
        </mxCell>
        <mxCell id="3MlAlHUWxYamsKUBgkU1-24" style="edgeStyle=none;rounded=0;orthogonalLoop=1;jettySize=auto;html=1;exitX=0.5;exitY=1;exitDx=0;exitDy=0;entryX=0.5;entryY=0;entryDx=0;entryDy=0;dashed=1;fontSize=17;fontColor=#000000;startArrow=classic;startFill=1;strokeWidth=1;" parent="cTaFEgAVj7jLWrlAwl5F-1" source="3MlAlHUWxYamsKUBgkU1-21" target="3MlAlHUWxYamsKUBgkU1-23" edge="1">
          <mxGeometry relative="1" as="geometry" />
        </mxCell>
        <mxCell id="3MlAlHUWxYamsKUBgkU1-21" value="&lt;div&gt;Service IP(VIP)&lt;/div&gt;" style="rounded=0;whiteSpace=wrap;html=1;fontSize=17;fontColor=#000000;strokeWidth=1;" parent="cTaFEgAVj7jLWrlAwl5F-1" vertex="1">
          <mxGeometry x="1280" y="100" width="160" height="30" as="geometry" />
        </mxCell>
        <mxCell id="3MlAlHUWxYamsKUBgkU1-22" value="&lt;div&gt;iptables/nftables&lt;/div&gt;" style="rounded=0;whiteSpace=wrap;html=1;fontSize=17;fontColor=#000000;strokeWidth=1;" parent="cTaFEgAVj7jLWrlAwl5F-1" vertex="1">
          <mxGeometry x="1280" y="160" width="160" height="30" as="geometry" />
        </mxCell>
        <mxCell id="3MlAlHUWxYamsKUBgkU1-23" value="kube-proxy" style="rounded=0;whiteSpace=wrap;html=1;fontSize=17;fontColor=#000000;strokeWidth=1;" parent="cTaFEgAVj7jLWrlAwl5F-1" vertex="1">
          <mxGeometry x="1280" y="220" width="160" height="30" as="geometry" />
        </mxCell>
        <mxCell id="3MlAlHUWxYamsKUBgkU1-37" style="edgeStyle=orthogonalEdgeStyle;rounded=0;orthogonalLoop=1;jettySize=auto;html=1;exitX=1;exitY=0.5;exitDx=0;exitDy=0;entryX=1;entryY=0.5;entryDx=0;entryDy=0;dashed=1;fontSize=12;fontColor=#000000;startArrow=classic;startFill=1;strokeWidth=1;" parent="cTaFEgAVj7jLWrlAwl5F-1" source="3MlAlHUWxYamsKUBgkU1-27" target="3MlAlHUWxYamsKUBgkU1-28" edge="1">
          <mxGeometry relative="1" as="geometry" />
        </mxCell>
        <mxCell id="3MlAlHUWxYamsKUBgkU1-42" style="edgeStyle=orthogonalEdgeStyle;rounded=0;orthogonalLoop=1;jettySize=auto;html=1;exitX=0.5;exitY=0;exitDx=0;exitDy=0;dashed=1;fontSize=12;fontColor=#000000;startArrow=classic;startFill=1;strokeWidth=1;" parent="cTaFEgAVj7jLWrlAwl5F-1" source="3MlAlHUWxYamsKUBgkU1-27" target="3MlAlHUWxYamsKUBgkU1-39" edge="1">
          <mxGeometry relative="1" as="geometry" />
        </mxCell>
        <mxCell id="3MlAlHUWxYamsKUBgkU1-27" value="API_SERVER" style="rounded=0;whiteSpace=wrap;html=1;fontSize=12;fontColor=#000000;strokeWidth=1;" parent="cTaFEgAVj7jLWrlAwl5F-1" vertex="1">
          <mxGeometry x="60" y="810" width="160" height="40" as="geometry" />
        </mxCell>
        <mxCell id="3MlAlHUWxYamsKUBgkU1-28" value="ETCD" style="rounded=0;whiteSpace=wrap;html=1;fontSize=12;fontColor=#000000;strokeWidth=1;" parent="cTaFEgAVj7jLWrlAwl5F-1" vertex="1">
          <mxGeometry x="60" y="870" width="160" height="40" as="geometry" />
        </mxCell>
        <mxCell id="3MlAlHUWxYamsKUBgkU1-30" value="KUBELET" style="rounded=0;whiteSpace=wrap;html=1;fontSize=12;fontColor=#000000;strokeWidth=1;" parent="cTaFEgAVj7jLWrlAwl5F-1" vertex="1">
          <mxGeometry x="300" y="730" width="160" height="40" as="geometry" />
        </mxCell>
        <mxCell id="3MlAlHUWxYamsKUBgkU1-31" style="edgeStyle=none;rounded=0;orthogonalLoop=1;jettySize=auto;html=1;exitX=0.75;exitY=0;exitDx=0;exitDy=0;dashed=1;fontSize=12;fontColor=#000000;startArrow=classic;startFill=1;strokeWidth=1;" parent="cTaFEgAVj7jLWrlAwl5F-1" source="3MlAlHUWxYamsKUBgkU1-27" target="3MlAlHUWxYamsKUBgkU1-27" edge="1">
          <mxGeometry relative="1" as="geometry" />
        </mxCell>
        <mxCell id="3MlAlHUWxYamsKUBgkU1-32" value="RUNTIME" style="rounded=0;whiteSpace=wrap;html=1;fontSize=12;fontColor=#000000;strokeWidth=1;" parent="cTaFEgAVj7jLWrlAwl5F-1" vertex="1">
          <mxGeometry x="540" y="630" width="160" height="40" as="geometry" />
        </mxCell>
        <mxCell id="3MlAlHUWxYamsKUBgkU1-33" value="" style="rounded=0;whiteSpace=wrap;html=1;fontSize=12;fontColor=#000000;strokeWidth=1;labelPosition=left;verticalLabelPosition=top;align=left;verticalAlign=bottom;" parent="cTaFEgAVj7jLWrlAwl5F-1" vertex="1">
          <mxGeometry x="540" y="710" width="160" height="200" as="geometry" />
        </mxCell>
        <mxCell id="3MlAlHUWxYamsKUBgkU1-34" value="APP" style="ellipse;whiteSpace=wrap;html=1;aspect=fixed;fontSize=12;fontColor=#333333;strokeWidth=1;fillColor=#f5f5f5;strokeColor=#666666;" parent="cTaFEgAVj7jLWrlAwl5F-1" vertex="1">
          <mxGeometry x="570" y="790" width="100" height="100" as="geometry" />
        </mxCell>
        <mxCell id="3MlAlHUWxYamsKUBgkU1-35" value="POD" style="text;html=1;strokeColor=none;fillColor=none;align=center;verticalAlign=middle;whiteSpace=wrap;rounded=0;fontSize=12;fontColor=#000000;" parent="cTaFEgAVj7jLWrlAwl5F-1" vertex="1">
          <mxGeometry x="540" y="720" width="40" height="20" as="geometry" />
        </mxCell>
        <mxCell id="3MlAlHUWxYamsKUBgkU1-39" value="API" style="rhombus;whiteSpace=wrap;html=1;fontSize=12;fontColor=#000000;strokeWidth=1;align=center;" parent="cTaFEgAVj7jLWrlAwl5F-1" vertex="1">
          <mxGeometry x="100" y="710" width="80" height="80" as="geometry" />
        </mxCell>
        <mxCell id="3MlAlHUWxYamsKUBgkU1-44" value="" style="endArrow=classic;html=1;dashed=1;fontSize=12;fontColor=#000000;strokeWidth=1;entryX=0;entryY=0.5;entryDx=0;entryDy=0;" parent="cTaFEgAVj7jLWrlAwl5F-1" source="3MlAlHUWxYamsKUBgkU1-39" target="3MlAlHUWxYamsKUBgkU1-69" edge="1">
          <mxGeometry width="50" height="50" relative="1" as="geometry">
            <mxPoint x="140" y="720" as="sourcePoint" />
            <mxPoint x="290" y="650" as="targetPoint" />
          </mxGeometry>
        </mxCell>
        <mxCell id="3MlAlHUWxYamsKUBgkU1-45" value="" style="endArrow=classic;html=1;dashed=1;fontSize=12;fontColor=#000000;strokeWidth=1;entryX=0;entryY=0.5;entryDx=0;entryDy=0;exitX=1;exitY=0.5;exitDx=0;exitDy=0;" parent="cTaFEgAVj7jLWrlAwl5F-1" source="3MlAlHUWxYamsKUBgkU1-39" target="3MlAlHUWxYamsKUBgkU1-30" edge="1">
          <mxGeometry width="50" height="50" relative="1" as="geometry">
            <mxPoint x="270" y="630" as="sourcePoint" />
            <mxPoint x="320" y="580" as="targetPoint" />
          </mxGeometry>
        </mxCell>
        <mxCell id="3MlAlHUWxYamsKUBgkU1-46" value="" style="endArrow=classic;html=1;dashed=1;fontSize=12;fontColor=#000000;strokeWidth=1;exitX=1;exitY=0.5;exitDx=0;exitDy=0;" parent="cTaFEgAVj7jLWrlAwl5F-1" source="3MlAlHUWxYamsKUBgkU1-30" edge="1">
          <mxGeometry width="50" height="50" relative="1" as="geometry">
            <mxPoint x="490" y="700" as="sourcePoint" />
            <mxPoint x="540" y="650" as="targetPoint" />
          </mxGeometry>
        </mxCell>
        <mxCell id="3MlAlHUWxYamsKUBgkU1-47" value="" style="endArrow=classic;html=1;dashed=1;fontSize=12;fontColor=#000000;strokeWidth=1;" parent="cTaFEgAVj7jLWrlAwl5F-1" source="3MlAlHUWxYamsKUBgkU1-32" edge="1">
          <mxGeometry width="50" height="50" relative="1" as="geometry">
            <mxPoint x="270" y="630" as="sourcePoint" />
            <mxPoint x="620" y="710" as="targetPoint" />
          </mxGeometry>
        </mxCell>
        <mxCell id="3MlAlHUWxYamsKUBgkU1-48" value="" style="endArrow=classic;html=1;dashed=1;fontSize=12;fontColor=#000000;strokeWidth=1;exitX=0.75;exitY=1;exitDx=0;exitDy=0;" parent="cTaFEgAVj7jLWrlAwl5F-1" source="3MlAlHUWxYamsKUBgkU1-32" edge="1">
          <mxGeometry width="50" height="50" relative="1" as="geometry">
            <mxPoint x="270" y="630" as="sourcePoint" />
            <mxPoint x="660" y="810" as="targetPoint" />
          </mxGeometry>
        </mxCell>
        <mxCell id="3MlAlHUWxYamsKUBgkU1-50" style="edgeStyle=orthogonalEdgeStyle;rounded=0;orthogonalLoop=1;jettySize=auto;html=1;exitX=1;exitY=0.5;exitDx=0;exitDy=0;entryX=1;entryY=0.5;entryDx=0;entryDy=0;dashed=1;fontSize=12;fontColor=#000000;startArrow=classic;startFill=1;strokeWidth=1;" parent="cTaFEgAVj7jLWrlAwl5F-1" source="3MlAlHUWxYamsKUBgkU1-52" target="3MlAlHUWxYamsKUBgkU1-53" edge="1">
          <mxGeometry relative="1" as="geometry" />
        </mxCell>
        <mxCell id="3MlAlHUWxYamsKUBgkU1-51" style="edgeStyle=orthogonalEdgeStyle;rounded=0;orthogonalLoop=1;jettySize=auto;html=1;exitX=0.5;exitY=0;exitDx=0;exitDy=0;dashed=1;fontSize=12;fontColor=#000000;startArrow=classic;startFill=1;strokeWidth=1;" parent="cTaFEgAVj7jLWrlAwl5F-1" source="3MlAlHUWxYamsKUBgkU1-52" target="3MlAlHUWxYamsKUBgkU1-60" edge="1">
          <mxGeometry relative="1" as="geometry" />
        </mxCell>
        <mxCell id="3MlAlHUWxYamsKUBgkU1-52" value="API_SERVER" style="rounded=0;whiteSpace=wrap;html=1;fontSize=12;fontColor=#000000;strokeWidth=1;" parent="cTaFEgAVj7jLWrlAwl5F-1" vertex="1">
          <mxGeometry x="870" y="810" width="160" height="40" as="geometry" />
        </mxCell>
        <mxCell id="3MlAlHUWxYamsKUBgkU1-53" value="ETCD" style="rounded=0;whiteSpace=wrap;html=1;fontSize=12;fontColor=#000000;strokeWidth=1;" parent="cTaFEgAVj7jLWrlAwl5F-1" vertex="1">
          <mxGeometry x="870" y="870" width="160" height="40" as="geometry" />
        </mxCell>
        <mxCell id="3MlAlHUWxYamsKUBgkU1-54" value="KUBELET" style="rounded=0;whiteSpace=wrap;html=1;fontSize=12;fontColor=#000000;strokeWidth=1;" parent="cTaFEgAVj7jLWrlAwl5F-1" vertex="1">
          <mxGeometry x="1100" y="700" width="160" height="40" as="geometry" />
        </mxCell>
        <mxCell id="3MlAlHUWxYamsKUBgkU1-55" style="edgeStyle=none;rounded=0;orthogonalLoop=1;jettySize=auto;html=1;exitX=0.75;exitY=0;exitDx=0;exitDy=0;dashed=1;fontSize=12;fontColor=#000000;startArrow=classic;startFill=1;strokeWidth=1;" parent="cTaFEgAVj7jLWrlAwl5F-1" source="3MlAlHUWxYamsKUBgkU1-52" target="3MlAlHUWxYamsKUBgkU1-52" edge="1">
          <mxGeometry relative="1" as="geometry" />
        </mxCell>
        <mxCell id="3MlAlHUWxYamsKUBgkU1-56" value="RUNTIME" style="rounded=0;whiteSpace=wrap;html=1;fontSize=12;fontColor=#000000;strokeWidth=1;" parent="cTaFEgAVj7jLWrlAwl5F-1" vertex="1">
          <mxGeometry x="1350" y="630" width="160" height="40" as="geometry" />
        </mxCell>
        <mxCell id="3MlAlHUWxYamsKUBgkU1-57" value="" style="rounded=0;whiteSpace=wrap;html=1;fontSize=12;fontColor=#000000;strokeWidth=1;labelPosition=left;verticalLabelPosition=top;align=left;verticalAlign=bottom;" parent="cTaFEgAVj7jLWrlAwl5F-1" vertex="1">
          <mxGeometry x="1350" y="710" width="160" height="200" as="geometry" />
        </mxCell>
        <mxCell id="3MlAlHUWxYamsKUBgkU1-58" value="APP" style="ellipse;whiteSpace=wrap;html=1;aspect=fixed;fontSize=12;fontColor=#333333;strokeWidth=1;fillColor=#f5f5f5;strokeColor=#666666;" parent="cTaFEgAVj7jLWrlAwl5F-1" vertex="1">
          <mxGeometry x="1380" y="790" width="100" height="100" as="geometry" />
        </mxCell>
        <mxCell id="3MlAlHUWxYamsKUBgkU1-59" value="POD" style="text;html=1;strokeColor=none;fillColor=none;align=center;verticalAlign=middle;whiteSpace=wrap;rounded=0;fontSize=12;fontColor=#000000;" parent="cTaFEgAVj7jLWrlAwl5F-1" vertex="1">
          <mxGeometry x="1350" y="720" width="40" height="20" as="geometry" />
        </mxCell>
        <mxCell id="3MlAlHUWxYamsKUBgkU1-60" value="API" style="rhombus;whiteSpace=wrap;html=1;fontSize=12;fontColor=#000000;strokeWidth=1;align=center;" parent="cTaFEgAVj7jLWrlAwl5F-1" vertex="1">
          <mxGeometry x="910" y="710" width="80" height="80" as="geometry" />
        </mxCell>
        <mxCell id="3MlAlHUWxYamsKUBgkU1-61" value="" style="endArrow=classic;html=1;dashed=1;fontSize=12;fontColor=#000000;strokeWidth=1;entryX=0;entryY=0.5;entryDx=0;entryDy=0;" parent="cTaFEgAVj7jLWrlAwl5F-1" source="3MlAlHUWxYamsKUBgkU1-60" target="3MlAlHUWxYamsKUBgkU1-71" edge="1">
          <mxGeometry width="50" height="50" relative="1" as="geometry">
            <mxPoint x="950" y="720" as="sourcePoint" />
            <mxPoint x="1100" y="650" as="targetPoint" />
          </mxGeometry>
        </mxCell>
        <mxCell id="3MlAlHUWxYamsKUBgkU1-62" value="" style="endArrow=classic;html=1;dashed=1;fontSize=12;fontColor=#000000;strokeWidth=1;entryX=0;entryY=0.5;entryDx=0;entryDy=0;exitX=1;exitY=0.5;exitDx=0;exitDy=0;" parent="cTaFEgAVj7jLWrlAwl5F-1" source="3MlAlHUWxYamsKUBgkU1-60" target="3MlAlHUWxYamsKUBgkU1-54" edge="1">
          <mxGeometry width="50" height="50" relative="1" as="geometry">
            <mxPoint x="1080" y="630" as="sourcePoint" />
            <mxPoint x="1130" y="580" as="targetPoint" />
          </mxGeometry>
        </mxCell>
        <mxCell id="3MlAlHUWxYamsKUBgkU1-63" value="" style="endArrow=classic;html=1;dashed=1;fontSize=12;fontColor=#000000;strokeWidth=1;exitX=1;exitY=0.5;exitDx=0;exitDy=0;" parent="cTaFEgAVj7jLWrlAwl5F-1" source="3MlAlHUWxYamsKUBgkU1-54" edge="1">
          <mxGeometry width="50" height="50" relative="1" as="geometry">
            <mxPoint x="1300" y="700" as="sourcePoint" />
            <mxPoint x="1350" y="650" as="targetPoint" />
          </mxGeometry>
        </mxCell>
        <mxCell id="3MlAlHUWxYamsKUBgkU1-64" value="" style="endArrow=classic;html=1;dashed=1;fontSize=12;fontColor=#000000;strokeWidth=1;" parent="cTaFEgAVj7jLWrlAwl5F-1" source="3MlAlHUWxYamsKUBgkU1-56" edge="1">
          <mxGeometry width="50" height="50" relative="1" as="geometry">
            <mxPoint x="1080" y="630" as="sourcePoint" />
            <mxPoint x="1430" y="710" as="targetPoint" />
          </mxGeometry>
        </mxCell>
        <mxCell id="3MlAlHUWxYamsKUBgkU1-65" value="" style="endArrow=classic;html=1;dashed=1;fontSize=12;fontColor=#000000;strokeWidth=1;exitX=0.75;exitY=1;exitDx=0;exitDy=0;" parent="cTaFEgAVj7jLWrlAwl5F-1" source="3MlAlHUWxYamsKUBgkU1-56" edge="1">
          <mxGeometry width="50" height="50" relative="1" as="geometry">
            <mxPoint x="1080" y="630" as="sourcePoint" />
            <mxPoint x="1470" y="810" as="targetPoint" />
          </mxGeometry>
        </mxCell>
        <mxCell id="3MlAlHUWxYamsKUBgkU1-66" value="KUBE-SCHEDULER" style="rounded=0;whiteSpace=wrap;html=1;fontSize=12;fontColor=#000000;strokeWidth=1;" parent="cTaFEgAVj7jLWrlAwl5F-1" vertex="1">
          <mxGeometry x="1100" y="810" width="160" height="40" as="geometry" />
        </mxCell>
        <mxCell id="3MlAlHUWxYamsKUBgkU1-68" value="" style="endArrow=classic;startArrow=classic;html=1;dashed=1;fontSize=12;fontColor=#000000;strokeWidth=1;exitX=1;exitY=0;exitDx=0;exitDy=0;entryX=0;entryY=0;entryDx=0;entryDy=0;" parent="cTaFEgAVj7jLWrlAwl5F-1" source="3MlAlHUWxYamsKUBgkU1-52" target="3MlAlHUWxYamsKUBgkU1-66" edge="1">
          <mxGeometry width="50" height="50" relative="1" as="geometry">
            <mxPoint x="1320" y="780" as="sourcePoint" />
            <mxPoint x="1370" y="730" as="targetPoint" />
          </mxGeometry>
        </mxCell>
        <mxCell id="3MlAlHUWxYamsKUBgkU1-69" value="KUBE-PROXY" style="rhombus;whiteSpace=wrap;html=1;fontSize=12;fontColor=#000000;strokeWidth=1;align=center;" parent="cTaFEgAVj7jLWrlAwl5F-1" vertex="1">
          <mxGeometry x="330" y="584.5" width="100" height="100" as="geometry" />
        </mxCell>
        <mxCell id="3MlAlHUWxYamsKUBgkU1-70" value="" style="endArrow=classic;html=1;dashed=1;fontSize=12;fontColor=#000000;strokeWidth=1;exitX=0.5;exitY=1;exitDx=0;exitDy=0;" parent="cTaFEgAVj7jLWrlAwl5F-1" source="3MlAlHUWxYamsKUBgkU1-69" target="3MlAlHUWxYamsKUBgkU1-30" edge="1">
          <mxGeometry width="50" height="50" relative="1" as="geometry">
            <mxPoint x="400" y="750" as="sourcePoint" />
            <mxPoint x="450" y="700" as="targetPoint" />
          </mxGeometry>
        </mxCell>
        <mxCell id="3MlAlHUWxYamsKUBgkU1-71" value="KUBE-PROXY" style="rhombus;whiteSpace=wrap;html=1;fontSize=12;fontColor=#000000;strokeWidth=1;align=center;" parent="cTaFEgAVj7jLWrlAwl5F-1" vertex="1">
          <mxGeometry x="1130" y="570" width="100" height="100" as="geometry" />
        </mxCell>
        <mxCell id="3MlAlHUWxYamsKUBgkU1-72" value="" style="endArrow=classic;html=1;dashed=1;fontSize=12;fontColor=#000000;strokeWidth=1;exitX=0.5;exitY=1;exitDx=0;exitDy=0;entryX=0.5;entryY=0;entryDx=0;entryDy=0;" parent="cTaFEgAVj7jLWrlAwl5F-1" source="3MlAlHUWxYamsKUBgkU1-71" target="3MlAlHUWxYamsKUBgkU1-54" edge="1">
          <mxGeometry width="50" height="50" relative="1" as="geometry">
            <mxPoint x="1270" y="750" as="sourcePoint" />
            <mxPoint x="1320" y="700" as="targetPoint" />
          </mxGeometry>
        </mxCell>
        <mxCell id="L61sEQ5OF_pDlJMFQon1-0" style="edgeStyle=orthogonalEdgeStyle;rounded=0;orthogonalLoop=1;jettySize=auto;html=1;exitX=1;exitY=0.5;exitDx=0;exitDy=0;entryX=1;entryY=0.5;entryDx=0;entryDy=0;dashed=1;fontSize=12;fontColor=#000000;startArrow=classic;startFill=1;strokeWidth=1;" edge="1" parent="cTaFEgAVj7jLWrlAwl5F-1" source="L61sEQ5OF_pDlJMFQon1-2" target="L61sEQ5OF_pDlJMFQon1-3">
          <mxGeometry relative="1" as="geometry" />
        </mxCell>
        <mxCell id="L61sEQ5OF_pDlJMFQon1-1" style="edgeStyle=orthogonalEdgeStyle;rounded=0;orthogonalLoop=1;jettySize=auto;html=1;exitX=0.5;exitY=0;exitDx=0;exitDy=0;dashed=1;fontSize=12;fontColor=#000000;startArrow=classic;startFill=1;strokeWidth=1;" edge="1" parent="cTaFEgAVj7jLWrlAwl5F-1" source="L61sEQ5OF_pDlJMFQon1-2" target="L61sEQ5OF_pDlJMFQon1-10">
          <mxGeometry relative="1" as="geometry" />
        </mxCell>
        <mxCell id="L61sEQ5OF_pDlJMFQon1-21" style="edgeStyle=orthogonalEdgeStyle;rounded=0;orthogonalLoop=1;jettySize=auto;html=1;exitX=0;exitY=0.5;exitDx=0;exitDy=0;entryX=0;entryY=0.5;entryDx=0;entryDy=0;dashed=1;dashPattern=1 1;startArrow=classic;startFill=1;" edge="1" parent="cTaFEgAVj7jLWrlAwl5F-1" source="L61sEQ5OF_pDlJMFQon1-2" target="L61sEQ5OF_pDlJMFQon1-20">
          <mxGeometry relative="1" as="geometry" />
        </mxCell>
        <mxCell id="L61sEQ5OF_pDlJMFQon1-2" value="API_SERVER" style="rounded=0;whiteSpace=wrap;html=1;fontSize=12;fontColor=#000000;strokeWidth=1;" vertex="1" parent="cTaFEgAVj7jLWrlAwl5F-1">
          <mxGeometry x="870" y="1280" width="160" height="40" as="geometry" />
        </mxCell>
        <mxCell id="L61sEQ5OF_pDlJMFQon1-3" value="ETCD" style="rounded=0;whiteSpace=wrap;html=1;fontSize=12;fontColor=#000000;strokeWidth=1;" vertex="1" parent="cTaFEgAVj7jLWrlAwl5F-1">
          <mxGeometry x="960" y="1340" width="70" height="40" as="geometry" />
        </mxCell>
        <mxCell id="L61sEQ5OF_pDlJMFQon1-4" value="KUBELET" style="rounded=0;whiteSpace=wrap;html=1;fontSize=12;fontColor=#000000;strokeWidth=1;" vertex="1" parent="cTaFEgAVj7jLWrlAwl5F-1">
          <mxGeometry x="1100" y="1170" width="160" height="40" as="geometry" />
        </mxCell>
        <mxCell id="L61sEQ5OF_pDlJMFQon1-5" style="edgeStyle=none;rounded=0;orthogonalLoop=1;jettySize=auto;html=1;exitX=0.75;exitY=0;exitDx=0;exitDy=0;dashed=1;fontSize=12;fontColor=#000000;startArrow=classic;startFill=1;strokeWidth=1;" edge="1" parent="cTaFEgAVj7jLWrlAwl5F-1" source="L61sEQ5OF_pDlJMFQon1-2" target="L61sEQ5OF_pDlJMFQon1-2">
          <mxGeometry relative="1" as="geometry" />
        </mxCell>
        <mxCell id="L61sEQ5OF_pDlJMFQon1-6" value="RUNTIME" style="rounded=0;whiteSpace=wrap;html=1;fontSize=12;fontColor=#000000;strokeWidth=1;" vertex="1" parent="cTaFEgAVj7jLWrlAwl5F-1">
          <mxGeometry x="1350" y="1100" width="160" height="40" as="geometry" />
        </mxCell>
        <mxCell id="L61sEQ5OF_pDlJMFQon1-7" value="" style="rounded=0;whiteSpace=wrap;html=1;fontSize=12;fontColor=#000000;strokeWidth=1;labelPosition=left;verticalLabelPosition=top;align=left;verticalAlign=bottom;" vertex="1" parent="cTaFEgAVj7jLWrlAwl5F-1">
          <mxGeometry x="1350" y="1180" width="160" height="200" as="geometry" />
        </mxCell>
        <mxCell id="L61sEQ5OF_pDlJMFQon1-8" value="APP" style="ellipse;whiteSpace=wrap;html=1;aspect=fixed;fontSize=12;fontColor=#333333;strokeWidth=1;fillColor=#f5f5f5;strokeColor=#666666;" vertex="1" parent="cTaFEgAVj7jLWrlAwl5F-1">
          <mxGeometry x="1380" y="1260" width="100" height="100" as="geometry" />
        </mxCell>
        <mxCell id="L61sEQ5OF_pDlJMFQon1-9" value="POD" style="text;html=1;strokeColor=none;fillColor=none;align=center;verticalAlign=middle;whiteSpace=wrap;rounded=0;fontSize=12;fontColor=#000000;" vertex="1" parent="cTaFEgAVj7jLWrlAwl5F-1">
          <mxGeometry x="1350" y="1190" width="40" height="20" as="geometry" />
        </mxCell>
        <mxCell id="L61sEQ5OF_pDlJMFQon1-10" value="API" style="rhombus;whiteSpace=wrap;html=1;fontSize=12;fontColor=#000000;strokeWidth=1;align=center;" vertex="1" parent="cTaFEgAVj7jLWrlAwl5F-1">
          <mxGeometry x="910" y="1180" width="80" height="80" as="geometry" />
        </mxCell>
        <mxCell id="L61sEQ5OF_pDlJMFQon1-11" value="" style="endArrow=classic;html=1;dashed=1;fontSize=12;fontColor=#000000;strokeWidth=1;entryX=0;entryY=0.5;entryDx=0;entryDy=0;" edge="1" parent="cTaFEgAVj7jLWrlAwl5F-1" source="L61sEQ5OF_pDlJMFQon1-10" target="L61sEQ5OF_pDlJMFQon1-18">
          <mxGeometry width="50" height="50" relative="1" as="geometry">
            <mxPoint x="950" y="1190" as="sourcePoint" />
            <mxPoint x="1100" y="1120" as="targetPoint" />
          </mxGeometry>
        </mxCell>
        <mxCell id="L61sEQ5OF_pDlJMFQon1-12" value="" style="endArrow=classic;html=1;dashed=1;fontSize=12;fontColor=#000000;strokeWidth=1;entryX=0;entryY=0.5;entryDx=0;entryDy=0;exitX=1;exitY=0.5;exitDx=0;exitDy=0;" edge="1" parent="cTaFEgAVj7jLWrlAwl5F-1" source="L61sEQ5OF_pDlJMFQon1-10" target="L61sEQ5OF_pDlJMFQon1-4">
          <mxGeometry width="50" height="50" relative="1" as="geometry">
            <mxPoint x="1080" y="1100" as="sourcePoint" />
            <mxPoint x="1130" y="1050" as="targetPoint" />
          </mxGeometry>
        </mxCell>
        <mxCell id="L61sEQ5OF_pDlJMFQon1-13" value="" style="endArrow=classic;html=1;dashed=1;fontSize=12;fontColor=#000000;strokeWidth=1;exitX=1;exitY=0.5;exitDx=0;exitDy=0;" edge="1" parent="cTaFEgAVj7jLWrlAwl5F-1" source="L61sEQ5OF_pDlJMFQon1-4">
          <mxGeometry width="50" height="50" relative="1" as="geometry">
            <mxPoint x="1300" y="1170" as="sourcePoint" />
            <mxPoint x="1350" y="1120" as="targetPoint" />
          </mxGeometry>
        </mxCell>
        <mxCell id="L61sEQ5OF_pDlJMFQon1-14" value="" style="endArrow=classic;html=1;dashed=1;fontSize=12;fontColor=#000000;strokeWidth=1;" edge="1" parent="cTaFEgAVj7jLWrlAwl5F-1" source="L61sEQ5OF_pDlJMFQon1-6">
          <mxGeometry width="50" height="50" relative="1" as="geometry">
            <mxPoint x="1080" y="1100" as="sourcePoint" />
            <mxPoint x="1430" y="1180" as="targetPoint" />
          </mxGeometry>
        </mxCell>
        <mxCell id="L61sEQ5OF_pDlJMFQon1-15" value="" style="endArrow=classic;html=1;dashed=1;fontSize=12;fontColor=#000000;strokeWidth=1;exitX=0.75;exitY=1;exitDx=0;exitDy=0;" edge="1" parent="cTaFEgAVj7jLWrlAwl5F-1" source="L61sEQ5OF_pDlJMFQon1-6">
          <mxGeometry width="50" height="50" relative="1" as="geometry">
            <mxPoint x="1080" y="1100" as="sourcePoint" />
            <mxPoint x="1470" y="1280" as="targetPoint" />
          </mxGeometry>
        </mxCell>
        <mxCell id="L61sEQ5OF_pDlJMFQon1-16" value="KUBE-SCHEDULER" style="rounded=0;whiteSpace=wrap;html=1;fontSize=12;fontColor=#000000;strokeWidth=1;" vertex="1" parent="cTaFEgAVj7jLWrlAwl5F-1">
          <mxGeometry x="1100" y="1280" width="160" height="40" as="geometry" />
        </mxCell>
        <mxCell id="L61sEQ5OF_pDlJMFQon1-17" value="" style="endArrow=classic;startArrow=classic;html=1;dashed=1;fontSize=12;fontColor=#000000;strokeWidth=1;exitX=1;exitY=0;exitDx=0;exitDy=0;entryX=0;entryY=0;entryDx=0;entryDy=0;" edge="1" parent="cTaFEgAVj7jLWrlAwl5F-1" source="L61sEQ5OF_pDlJMFQon1-2" target="L61sEQ5OF_pDlJMFQon1-16">
          <mxGeometry width="50" height="50" relative="1" as="geometry">
            <mxPoint x="1320" y="1250" as="sourcePoint" />
            <mxPoint x="1370" y="1200" as="targetPoint" />
          </mxGeometry>
        </mxCell>
        <mxCell id="L61sEQ5OF_pDlJMFQon1-18" value="KUBE-PROXY" style="rhombus;whiteSpace=wrap;html=1;fontSize=12;fontColor=#000000;strokeWidth=1;align=center;" vertex="1" parent="cTaFEgAVj7jLWrlAwl5F-1">
          <mxGeometry x="1130" y="1040" width="100" height="100" as="geometry" />
        </mxCell>
        <mxCell id="L61sEQ5OF_pDlJMFQon1-19" value="" style="endArrow=classic;html=1;dashed=1;fontSize=12;fontColor=#000000;strokeWidth=1;exitX=0.5;exitY=1;exitDx=0;exitDy=0;entryX=0.5;entryY=0;entryDx=0;entryDy=0;" edge="1" parent="cTaFEgAVj7jLWrlAwl5F-1" source="L61sEQ5OF_pDlJMFQon1-18" target="L61sEQ5OF_pDlJMFQon1-4">
          <mxGeometry width="50" height="50" relative="1" as="geometry">
            <mxPoint x="1270" y="1220" as="sourcePoint" />
            <mxPoint x="1320" y="1170" as="targetPoint" />
          </mxGeometry>
        </mxCell>
        <mxCell id="L61sEQ5OF_pDlJMFQon1-20" value="&lt;div&gt;KUBE&lt;/div&gt;&lt;div&gt;CONTROLLER&lt;/div&gt;&lt;div&gt;MANAGER&lt;br&gt;&lt;/div&gt;" style="rounded=0;whiteSpace=wrap;html=1;fontSize=12;fontColor=#000000;strokeWidth=1;" vertex="1" parent="cTaFEgAVj7jLWrlAwl5F-1">
          <mxGeometry x="870" y="1430" width="160" height="60" as="geometry" />
        </mxCell>
      </root>
    </mxGraphModel>
  </diagram>
  <diagram id="gHPOmlJ6PtMaI5sCCikz" name="KUBERNETES-5">
    <mxGraphModel dx="767" dy="879" grid="1" gridSize="10" guides="1" tooltips="1" connect="1" arrows="1" fold="1" page="1" pageScale="1" pageWidth="827" pageHeight="1169" math="0" shadow="0">
      <root>
        <mxCell id="N0K_ZF6IA8gVX9-kvT1c-0" />
        <mxCell id="N0K_ZF6IA8gVX9-kvT1c-1" parent="N0K_ZF6IA8gVX9-kvT1c-0" />
        <mxCell id="N0K_ZF6IA8gVX9-kvT1c-2" value="" style="ellipse;whiteSpace=wrap;html=1;aspect=fixed;fontSize=12;fontColor=#000000;strokeWidth=1;align=center;" parent="N0K_ZF6IA8gVX9-kvT1c-1" vertex="1">
          <mxGeometry x="60" y="90" width="220" height="220" as="geometry" />
        </mxCell>
        <mxCell id="N0K_ZF6IA8gVX9-kvT1c-3" value="&lt;h1&gt;Container&lt;/h1&gt;&lt;p&gt;Application + Library&lt;/p&gt;" style="text;html=1;strokeColor=none;fillColor=none;spacing=5;spacingTop=-20;whiteSpace=wrap;overflow=hidden;rounded=0;fontSize=12;fontColor=#000000;align=center;" parent="N0K_ZF6IA8gVX9-kvT1c-1" vertex="1">
          <mxGeometry x="75" y="120" width="190" height="80" as="geometry" />
        </mxCell>
        <mxCell id="N0K_ZF6IA8gVX9-kvT1c-4" value="RUNTIME" style="rounded=1;whiteSpace=wrap;html=1;fontSize=12;fontColor=#333333;strokeWidth=1;align=center;fillColor=#f5f5f5;strokeColor=#666666;" parent="N0K_ZF6IA8gVX9-kvT1c-1" vertex="1">
          <mxGeometry x="130" y="220" width="80" height="30" as="geometry" />
        </mxCell>
        <mxCell id="N0K_ZF6IA8gVX9-kvT1c-5" value="" style="endArrow=classic;html=1;dashed=1;fontSize=12;fontColor=#000000;strokeWidth=1;" parent="N0K_ZF6IA8gVX9-kvT1c-1" edge="1">
          <mxGeometry relative="1" as="geometry">
            <mxPoint x="270" y="190" as="sourcePoint" />
            <mxPoint x="430" y="190" as="targetPoint" />
          </mxGeometry>
        </mxCell>
        <mxCell id="N0K_ZF6IA8gVX9-kvT1c-6" value="veth" style="edgeLabel;resizable=0;html=1;align=center;verticalAlign=middle;" parent="N0K_ZF6IA8gVX9-kvT1c-5" connectable="0" vertex="1">
          <mxGeometry relative="1" as="geometry" />
        </mxCell>
        <mxCell id="N0K_ZF6IA8gVX9-kvT1c-7" value="Source" style="edgeLabel;resizable=0;html=1;align=left;verticalAlign=bottom;" parent="N0K_ZF6IA8gVX9-kvT1c-5" connectable="0" vertex="1">
          <mxGeometry x="-1" relative="1" as="geometry" />
        </mxCell>
        <mxCell id="N0K_ZF6IA8gVX9-kvT1c-8" value="Target" style="edgeLabel;resizable=0;html=1;align=right;verticalAlign=bottom;" parent="N0K_ZF6IA8gVX9-kvT1c-5" connectable="0" vertex="1">
          <mxGeometry x="1" relative="1" as="geometry" />
        </mxCell>
        <mxCell id="N0K_ZF6IA8gVX9-kvT1c-9" value="" style="endArrow=classic;html=1;dashed=1;fontSize=12;fontColor=#000000;strokeWidth=1;" parent="N0K_ZF6IA8gVX9-kvT1c-1" edge="1">
          <mxGeometry relative="1" as="geometry">
            <mxPoint x="270" y="234.5" as="sourcePoint" />
            <mxPoint x="430" y="234.5" as="targetPoint" />
          </mxGeometry>
        </mxCell>
        <mxCell id="N0K_ZF6IA8gVX9-kvT1c-10" value="binding" style="edgeLabel;resizable=0;html=1;align=center;verticalAlign=middle;" parent="N0K_ZF6IA8gVX9-kvT1c-9" connectable="0" vertex="1">
          <mxGeometry relative="1" as="geometry" />
        </mxCell>
        <mxCell id="N0K_ZF6IA8gVX9-kvT1c-11" value="Source" style="edgeLabel;resizable=0;html=1;align=left;verticalAlign=bottom;" parent="N0K_ZF6IA8gVX9-kvT1c-9" connectable="0" vertex="1">
          <mxGeometry x="-1" relative="1" as="geometry" />
        </mxCell>
        <mxCell id="N0K_ZF6IA8gVX9-kvT1c-12" value="Target" style="edgeLabel;resizable=0;html=1;align=right;verticalAlign=bottom;" parent="N0K_ZF6IA8gVX9-kvT1c-9" connectable="0" vertex="1">
          <mxGeometry x="1" relative="1" as="geometry" />
        </mxCell>
        <mxCell id="N0K_ZF6IA8gVX9-kvT1c-15" value="&lt;div&gt;P&lt;/div&gt;&lt;div&gt;A&lt;/div&gt;&lt;div&gt;U&lt;/div&gt;&lt;div&gt;S&lt;/div&gt;&lt;div&gt;E&lt;br&gt;&lt;/div&gt;" style="rounded=0;whiteSpace=wrap;html=1;fontSize=12;fontColor=#000000;strokeWidth=1;align=center;" parent="N0K_ZF6IA8gVX9-kvT1c-1" vertex="1">
          <mxGeometry x="450" y="130" width="40" height="170" as="geometry" />
        </mxCell>
        <mxCell id="N0K_ZF6IA8gVX9-kvT1c-16" value="if dev" style="rounded=1;whiteSpace=wrap;html=1;fontSize=12;fontColor=#000000;strokeWidth=1;align=center;" parent="N0K_ZF6IA8gVX9-kvT1c-1" vertex="1">
          <mxGeometry x="520" y="170" width="90" height="30" as="geometry" />
        </mxCell>
        <mxCell id="N0K_ZF6IA8gVX9-kvT1c-17" value="mount bind" style="rounded=1;whiteSpace=wrap;html=1;fontSize=12;fontColor=#000000;strokeWidth=1;align=center;" parent="N0K_ZF6IA8gVX9-kvT1c-1" vertex="1">
          <mxGeometry x="520" y="230" width="90" height="30" as="geometry" />
        </mxCell>
        <mxCell id="N0K_ZF6IA8gVX9-kvT1c-18" value="혹은 POD" style="text;html=1;strokeColor=none;fillColor=none;align=center;verticalAlign=middle;whiteSpace=wrap;rounded=0;fontSize=12;fontColor=#000000;" parent="N0K_ZF6IA8gVX9-kvT1c-1" vertex="1">
          <mxGeometry x="490" y="100" width="80" height="20" as="geometry" />
        </mxCell>
        <mxCell id="N0K_ZF6IA8gVX9-kvT1c-19" value="" style="endArrow=none;dashed=1;html=1;fontSize=12;fontColor=#000000;strokeWidth=1;entryX=0;entryY=0.5;entryDx=0;entryDy=0;exitX=1;exitY=0.25;exitDx=0;exitDy=0;" parent="N0K_ZF6IA8gVX9-kvT1c-1" source="N0K_ZF6IA8gVX9-kvT1c-15" target="N0K_ZF6IA8gVX9-kvT1c-16" edge="1">
          <mxGeometry width="50" height="50" relative="1" as="geometry">
            <mxPoint x="330" y="410" as="sourcePoint" />
            <mxPoint x="380" y="360" as="targetPoint" />
          </mxGeometry>
        </mxCell>
        <mxCell id="N0K_ZF6IA8gVX9-kvT1c-20" value="" style="endArrow=none;dashed=1;html=1;fontSize=12;fontColor=#000000;strokeWidth=1;entryX=0;entryY=0.5;entryDx=0;entryDy=0;exitX=1;exitY=0.75;exitDx=0;exitDy=0;" parent="N0K_ZF6IA8gVX9-kvT1c-1" source="N0K_ZF6IA8gVX9-kvT1c-15" target="N0K_ZF6IA8gVX9-kvT1c-17" edge="1">
          <mxGeometry width="50" height="50" relative="1" as="geometry">
            <mxPoint x="330" y="410" as="sourcePoint" />
            <mxPoint x="380" y="360" as="targetPoint" />
          </mxGeometry>
        </mxCell>
        <mxCell id="N0K_ZF6IA8gVX9-kvT1c-21" value="" style="rounded=0;whiteSpace=wrap;html=1;fontSize=12;strokeWidth=1;align=center;fillColor=#f5f5f5;strokeColor=#666666;fontColor=#333333;" parent="N0K_ZF6IA8gVX9-kvT1c-1" vertex="1">
          <mxGeometry x="120" y="500" width="320" height="290" as="geometry" />
        </mxCell>
        <mxCell id="N0K_ZF6IA8gVX9-kvT1c-22" value="API-SERVER" style="rounded=0;whiteSpace=wrap;html=1;fontSize=12;fontColor=#000000;strokeWidth=1;align=center;" parent="N0K_ZF6IA8gVX9-kvT1c-1" vertex="1">
          <mxGeometry x="145" y="670" width="115" height="30" as="geometry" />
        </mxCell>
        <mxCell id="N0K_ZF6IA8gVX9-kvT1c-23" value="ETCD" style="rounded=0;whiteSpace=wrap;html=1;fontSize=12;fontColor=#000000;strokeWidth=1;align=center;" parent="N0K_ZF6IA8gVX9-kvT1c-1" vertex="1">
          <mxGeometry x="145" y="740" width="115" height="30" as="geometry" />
        </mxCell>
        <mxCell id="N0K_ZF6IA8gVX9-kvT1c-24" value="DNS SERVICE" style="rounded=0;whiteSpace=wrap;html=1;fontSize=12;fontColor=#000000;strokeWidth=1;align=center;" parent="N0K_ZF6IA8gVX9-kvT1c-1" vertex="1">
          <mxGeometry x="300" y="660" width="120" height="30" as="geometry" />
        </mxCell>
        <mxCell id="N0K_ZF6IA8gVX9-kvT1c-27" value="CORE-DNS" style="rounded=0;whiteSpace=wrap;html=1;fontSize=12;fontColor=#000000;strokeWidth=1;align=center;" parent="N0K_ZF6IA8gVX9-kvT1c-1" vertex="1">
          <mxGeometry x="300" y="740" width="120" height="30" as="geometry" />
        </mxCell>
        <mxCell id="N0K_ZF6IA8gVX9-kvT1c-28" value="CLIENT/SERVICE" style="rounded=0;whiteSpace=wrap;html=1;fontSize=12;fontColor=#000000;strokeWidth=1;align=center;" parent="N0K_ZF6IA8gVX9-kvT1c-1" vertex="1">
          <mxGeometry x="300" y="530" width="120" height="30" as="geometry" />
        </mxCell>
        <mxCell id="N0K_ZF6IA8gVX9-kvT1c-29" value="" style="endArrow=none;dashed=1;html=1;fontSize=12;fontColor=#000000;strokeWidth=1;exitX=0.5;exitY=0;exitDx=0;exitDy=0;startArrow=classicThin;startFill=1;" parent="N0K_ZF6IA8gVX9-kvT1c-1" source="N0K_ZF6IA8gVX9-kvT1c-23" target="N0K_ZF6IA8gVX9-kvT1c-22" edge="1">
          <mxGeometry width="50" height="50" relative="1" as="geometry">
            <mxPoint x="330" y="500" as="sourcePoint" />
            <mxPoint x="380" y="450" as="targetPoint" />
          </mxGeometry>
        </mxCell>
        <mxCell id="N0K_ZF6IA8gVX9-kvT1c-30" value="" style="endArrow=classicThin;dashed=1;html=1;fontSize=12;fontColor=#000000;strokeWidth=1;exitX=0.5;exitY=0;exitDx=0;exitDy=0;endFill=1;" parent="N0K_ZF6IA8gVX9-kvT1c-1" source="N0K_ZF6IA8gVX9-kvT1c-27" edge="1">
          <mxGeometry width="50" height="50" relative="1" as="geometry">
            <mxPoint x="330" y="500" as="sourcePoint" />
            <mxPoint x="360" y="690" as="targetPoint" />
          </mxGeometry>
        </mxCell>
        <mxCell id="N0K_ZF6IA8gVX9-kvT1c-31" value="" style="endArrow=none;dashed=1;html=1;fontSize=12;fontColor=#000000;strokeWidth=1;exitX=0.5;exitY=0;exitDx=0;exitDy=0;entryX=0.5;entryY=1;entryDx=0;entryDy=0;startArrow=classicThin;startFill=1;" parent="N0K_ZF6IA8gVX9-kvT1c-1" source="N0K_ZF6IA8gVX9-kvT1c-24" target="N0K_ZF6IA8gVX9-kvT1c-28" edge="1">
          <mxGeometry width="50" height="50" relative="1" as="geometry">
            <mxPoint x="330" y="500" as="sourcePoint" />
            <mxPoint x="380" y="450" as="targetPoint" />
          </mxGeometry>
        </mxCell>
        <mxCell id="N0K_ZF6IA8gVX9-kvT1c-33" value="EXTERNAL-DNS" style="rounded=0;whiteSpace=wrap;html=1;fontSize=12;fontColor=#000000;strokeWidth=1;align=center;" parent="N0K_ZF6IA8gVX9-kvT1c-1" vertex="1">
          <mxGeometry x="145" y="440" width="115" height="30" as="geometry" />
        </mxCell>
        <mxCell id="N0K_ZF6IA8gVX9-kvT1c-34" value="" style="endArrow=none;dashed=1;html=1;fontSize=12;fontColor=#000000;strokeWidth=1;exitX=0.5;exitY=0;exitDx=0;exitDy=0;entryX=0.5;entryY=1;entryDx=0;entryDy=0;startArrow=classicThin;startFill=1;" parent="N0K_ZF6IA8gVX9-kvT1c-1" source="N0K_ZF6IA8gVX9-kvT1c-22" target="N0K_ZF6IA8gVX9-kvT1c-33" edge="1">
          <mxGeometry width="50" height="50" relative="1" as="geometry">
            <mxPoint x="330" y="500" as="sourcePoint" />
            <mxPoint x="380" y="450" as="targetPoint" />
          </mxGeometry>
        </mxCell>
        <mxCell id="N0K_ZF6IA8gVX9-kvT1c-35" value="" style="endArrow=none;dashed=1;html=1;fontSize=12;fontColor=#000000;strokeWidth=1;exitX=1;exitY=0.5;exitDx=0;exitDy=0;entryX=0;entryY=0.5;entryDx=0;entryDy=0;" parent="N0K_ZF6IA8gVX9-kvT1c-1" source="N0K_ZF6IA8gVX9-kvT1c-23" target="N0K_ZF6IA8gVX9-kvT1c-27" edge="1">
          <mxGeometry width="50" height="50" relative="1" as="geometry">
            <mxPoint x="330" y="500" as="sourcePoint" />
            <mxPoint x="380" y="450" as="targetPoint" />
          </mxGeometry>
        </mxCell>
        <mxCell id="N0K_ZF6IA8gVX9-kvT1c-36" value="&lt;h1&gt;PROVIDE&lt;/h1&gt;&lt;div&gt;- POD NETWORK&lt;/div&gt;&lt;div&gt;- POD DNS SERVICE&lt;br&gt;&lt;/div&gt;" style="text;html=1;strokeColor=none;fillColor=none;spacing=5;spacingTop=-20;whiteSpace=wrap;overflow=hidden;rounded=0;fontSize=12;fontColor=#000000;align=left;" parent="N0K_ZF6IA8gVX9-kvT1c-1" vertex="1">
          <mxGeometry x="420" y="670" width="160" height="120" as="geometry" />
        </mxCell>
        <mxCell id="N0K_ZF6IA8gVX9-kvT1c-38" value="&lt;div align=&quot;left&quot;&gt;-DNS LOOKUP&lt;/div&gt;&lt;div align=&quot;left&quot;&gt;- INGRESS/EGRESS SERVICE&lt;br&gt;&lt;/div&gt;" style="text;html=1;strokeColor=none;fillColor=none;align=left;verticalAlign=middle;whiteSpace=wrap;rounded=0;fontSize=12;fontColor=#000000;" parent="N0K_ZF6IA8gVX9-kvT1c-1" vertex="1">
          <mxGeometry x="370" y="600" width="200" height="20" as="geometry" />
        </mxCell>
        <mxCell id="N0K_ZF6IA8gVX9-kvT1c-46" style="edgeStyle=orthogonalEdgeStyle;rounded=0;orthogonalLoop=1;jettySize=auto;html=1;exitX=0.5;exitY=1;exitDx=0;exitDy=0;entryX=0.25;entryY=1;entryDx=0;entryDy=0;dashed=1;fontSize=12;fontColor=#000000;startArrow=classicThin;startFill=1;endArrow=classicThin;endFill=1;strokeWidth=1;" parent="N0K_ZF6IA8gVX9-kvT1c-1" source="N0K_ZF6IA8gVX9-kvT1c-39" target="N0K_ZF6IA8gVX9-kvT1c-40" edge="1">
          <mxGeometry relative="1" as="geometry" />
        </mxCell>
        <mxCell id="N0K_ZF6IA8gVX9-kvT1c-39" value="ETCD" style="rounded=0;whiteSpace=wrap;html=1;fontSize=12;fontColor=#000000;strokeWidth=1;align=center;" parent="N0K_ZF6IA8gVX9-kvT1c-1" vertex="1">
          <mxGeometry x="90" y="960" width="115" height="30" as="geometry" />
        </mxCell>
        <mxCell id="N0K_ZF6IA8gVX9-kvT1c-47" style="edgeStyle=orthogonalEdgeStyle;rounded=0;orthogonalLoop=1;jettySize=auto;html=1;exitX=0.75;exitY=1;exitDx=0;exitDy=0;entryX=0.5;entryY=1;entryDx=0;entryDy=0;dashed=1;fontSize=12;fontColor=#000000;startArrow=classicThin;startFill=1;endArrow=classicThin;endFill=1;strokeWidth=1;" parent="N0K_ZF6IA8gVX9-kvT1c-1" source="N0K_ZF6IA8gVX9-kvT1c-40" target="N0K_ZF6IA8gVX9-kvT1c-41" edge="1">
          <mxGeometry relative="1" as="geometry" />
        </mxCell>
        <mxCell id="N0K_ZF6IA8gVX9-kvT1c-48" style="edgeStyle=orthogonalEdgeStyle;rounded=0;orthogonalLoop=1;jettySize=auto;html=1;exitX=0.5;exitY=1;exitDx=0;exitDy=0;entryX=0.5;entryY=0;entryDx=0;entryDy=0;dashed=1;fontSize=12;fontColor=#000000;startArrow=classicThin;startFill=1;endArrow=classicThin;endFill=1;strokeWidth=1;" parent="N0K_ZF6IA8gVX9-kvT1c-1" source="N0K_ZF6IA8gVX9-kvT1c-40" target="N0K_ZF6IA8gVX9-kvT1c-42" edge="1">
          <mxGeometry relative="1" as="geometry" />
        </mxCell>
        <mxCell id="N0K_ZF6IA8gVX9-kvT1c-40" value="ETCD" style="rounded=0;whiteSpace=wrap;html=1;fontSize=12;fontColor=#000000;strokeWidth=1;align=center;" parent="N0K_ZF6IA8gVX9-kvT1c-1" vertex="1">
          <mxGeometry x="297.5" y="960" width="115" height="30" as="geometry" />
        </mxCell>
        <mxCell id="N0K_ZF6IA8gVX9-kvT1c-41" value="ETCD" style="rounded=0;whiteSpace=wrap;html=1;fontSize=12;fontColor=#000000;strokeWidth=1;align=center;" parent="N0K_ZF6IA8gVX9-kvT1c-1" vertex="1">
          <mxGeometry x="505" y="960" width="115" height="30" as="geometry" />
        </mxCell>
        <mxCell id="N0K_ZF6IA8gVX9-kvT1c-50" style="edgeStyle=orthogonalEdgeStyle;rounded=0;orthogonalLoop=1;jettySize=auto;html=1;exitX=0.5;exitY=1;exitDx=0;exitDy=0;entryX=0.5;entryY=0;entryDx=0;entryDy=0;dashed=1;fontSize=12;fontColor=#000000;startArrow=classicThin;startFill=1;endArrow=classicThin;endFill=1;strokeWidth=1;" parent="N0K_ZF6IA8gVX9-kvT1c-1" source="N0K_ZF6IA8gVX9-kvT1c-42" target="N0K_ZF6IA8gVX9-kvT1c-44" edge="1">
          <mxGeometry relative="1" as="geometry" />
        </mxCell>
        <mxCell id="N0K_ZF6IA8gVX9-kvT1c-42" value="ETCD" style="rounded=0;whiteSpace=wrap;html=1;fontSize=12;fontColor=#000000;strokeWidth=1;align=center;" parent="N0K_ZF6IA8gVX9-kvT1c-1" vertex="1">
          <mxGeometry x="90" y="1050" width="530" height="30" as="geometry" />
        </mxCell>
        <mxCell id="N0K_ZF6IA8gVX9-kvT1c-49" style="edgeStyle=orthogonalEdgeStyle;rounded=0;orthogonalLoop=1;jettySize=auto;html=1;exitX=0.5;exitY=0;exitDx=0;exitDy=0;entryX=0.25;entryY=1;entryDx=0;entryDy=0;dashed=1;fontSize=12;fontColor=#000000;startArrow=classicThin;startFill=1;endArrow=classicThin;endFill=1;strokeWidth=1;" parent="N0K_ZF6IA8gVX9-kvT1c-1" source="N0K_ZF6IA8gVX9-kvT1c-43" target="N0K_ZF6IA8gVX9-kvT1c-42" edge="1">
          <mxGeometry relative="1" as="geometry" />
        </mxCell>
        <mxCell id="N0K_ZF6IA8gVX9-kvT1c-43" value="KUBE NODE 1" style="rounded=0;whiteSpace=wrap;html=1;fontSize=12;fontColor=#000000;strokeWidth=1;align=center;" parent="N0K_ZF6IA8gVX9-kvT1c-1" vertex="1">
          <mxGeometry x="90" y="1110" width="115" height="30" as="geometry" />
        </mxCell>
        <mxCell id="N0K_ZF6IA8gVX9-kvT1c-44" value="KUBE NODE 2" style="rounded=0;whiteSpace=wrap;html=1;fontSize=12;fontColor=#000000;strokeWidth=1;align=center;" parent="N0K_ZF6IA8gVX9-kvT1c-1" vertex="1">
          <mxGeometry x="297.5" y="1110" width="115" height="30" as="geometry" />
        </mxCell>
        <mxCell id="N0K_ZF6IA8gVX9-kvT1c-51" style="edgeStyle=orthogonalEdgeStyle;rounded=0;orthogonalLoop=1;jettySize=auto;html=1;exitX=0.5;exitY=0;exitDx=0;exitDy=0;entryX=0.75;entryY=1;entryDx=0;entryDy=0;dashed=1;fontSize=12;fontColor=#000000;startArrow=classicThin;startFill=1;endArrow=classicThin;endFill=1;strokeWidth=1;" parent="N0K_ZF6IA8gVX9-kvT1c-1" source="N0K_ZF6IA8gVX9-kvT1c-45" target="N0K_ZF6IA8gVX9-kvT1c-42" edge="1">
          <mxGeometry relative="1" as="geometry" />
        </mxCell>
        <mxCell id="N0K_ZF6IA8gVX9-kvT1c-45" value="KUBE NODE 3" style="rounded=0;whiteSpace=wrap;html=1;fontSize=12;fontColor=#000000;strokeWidth=1;align=center;" parent="N0K_ZF6IA8gVX9-kvT1c-1" vertex="1">
          <mxGeometry x="505" y="1110" width="115" height="30" as="geometry" />
        </mxCell>
        <mxCell id="N0K_ZF6IA8gVX9-kvT1c-52" value="LINUX KERNEL" style="rounded=0;whiteSpace=wrap;html=1;fontSize=12;fontColor=#000000;strokeWidth=1;align=center;" parent="N0K_ZF6IA8gVX9-kvT1c-1" vertex="1">
          <mxGeometry x="840" y="1090" width="400" height="30" as="geometry" />
        </mxCell>
        <mxCell id="N0K_ZF6IA8gVX9-kvT1c-55" value="disable disk page" style="rounded=0;whiteSpace=wrap;html=1;fontSize=12;strokeWidth=1;align=center;fillColor=#bac8d3;strokeColor=#23445d;" parent="N0K_ZF6IA8gVX9-kvT1c-1" vertex="1">
          <mxGeometry x="840" y="1040" width="115" height="30" as="geometry" />
        </mxCell>
        <mxCell id="N0K_ZF6IA8gVX9-kvT1c-56" value="PAGE CACHE" style="rounded=0;whiteSpace=wrap;html=1;fontSize=12;strokeWidth=1;align=center;fillColor=#dae8fc;strokeColor=#6c8ebf;" parent="N0K_ZF6IA8gVX9-kvT1c-1" vertex="1">
          <mxGeometry x="840" y="980" width="115" height="30" as="geometry" />
        </mxCell>
        <mxCell id="N0K_ZF6IA8gVX9-kvT1c-57" value="MEMORY" style="rounded=0;whiteSpace=wrap;html=1;fontSize=12;strokeWidth=1;align=center;fillColor=#dae8fc;strokeColor=#6c8ebf;" parent="N0K_ZF6IA8gVX9-kvT1c-1" vertex="1">
          <mxGeometry x="840" y="920" width="115" height="30" as="geometry" />
        </mxCell>
        <mxCell id="mDEOQl1A66A5PjOxQZ25-2" style="edgeStyle=orthogonalEdgeStyle;curved=1;rounded=0;orthogonalLoop=1;jettySize=auto;html=1;exitX=0.5;exitY=1;exitDx=0;exitDy=0;entryX=0.845;entryY=0.067;entryDx=0;entryDy=0;entryPerimeter=0;dashed=1;dashPattern=1 1;startArrow=classic;startFill=1;" edge="1" parent="N0K_ZF6IA8gVX9-kvT1c-1" source="N0K_ZF6IA8gVX9-kvT1c-58" target="N0K_ZF6IA8gVX9-kvT1c-52">
          <mxGeometry relative="1" as="geometry" />
        </mxCell>
        <mxCell id="N0K_ZF6IA8gVX9-kvT1c-58" value="enabled disk page" style="rounded=0;whiteSpace=wrap;html=1;fontSize=12;strokeWidth=1;align=center;fillColor=#bac8d3;strokeColor=#23445d;" parent="N0K_ZF6IA8gVX9-kvT1c-1" vertex="1">
          <mxGeometry x="1120" y="1040" width="115" height="30" as="geometry" />
        </mxCell>
        <mxCell id="mDEOQl1A66A5PjOxQZ25-1" style="edgeStyle=orthogonalEdgeStyle;curved=1;rounded=0;orthogonalLoop=1;jettySize=auto;html=1;exitX=0.5;exitY=1;exitDx=0;exitDy=0;dashed=1;dashPattern=1 1;startArrow=classic;startFill=1;" edge="1" parent="N0K_ZF6IA8gVX9-kvT1c-1" source="N0K_ZF6IA8gVX9-kvT1c-59" target="N0K_ZF6IA8gVX9-kvT1c-58">
          <mxGeometry relative="1" as="geometry" />
        </mxCell>
        <mxCell id="N0K_ZF6IA8gVX9-kvT1c-59" value="PAGE CACHE" style="rounded=0;whiteSpace=wrap;html=1;fontSize=12;strokeWidth=1;align=center;fillColor=#f8cecc;strokeColor=#b85450;" parent="N0K_ZF6IA8gVX9-kvT1c-1" vertex="1">
          <mxGeometry x="1120" y="980" width="115" height="30" as="geometry" />
        </mxCell>
        <mxCell id="mDEOQl1A66A5PjOxQZ25-0" style="edgeStyle=orthogonalEdgeStyle;curved=1;rounded=0;orthogonalLoop=1;jettySize=auto;html=1;exitX=0;exitY=0.5;exitDx=0;exitDy=0;entryX=0;entryY=0.5;entryDx=0;entryDy=0;dashed=1;dashPattern=1 1;startArrow=classic;startFill=1;" edge="1" parent="N0K_ZF6IA8gVX9-kvT1c-1" source="N0K_ZF6IA8gVX9-kvT1c-60" target="N0K_ZF6IA8gVX9-kvT1c-59">
          <mxGeometry relative="1" as="geometry" />
        </mxCell>
        <mxCell id="N0K_ZF6IA8gVX9-kvT1c-60" value="MEMORY" style="rounded=0;whiteSpace=wrap;html=1;fontSize=12;strokeWidth=1;align=center;fillColor=#f8cecc;strokeColor=#b85450;" parent="N0K_ZF6IA8gVX9-kvT1c-1" vertex="1">
          <mxGeometry x="1120" y="920" width="115" height="30" as="geometry" />
        </mxCell>
        <mxCell id="N0K_ZF6IA8gVX9-kvT1c-61" value="페이지 비사용" style="text;html=1;strokeColor=none;fillColor=none;align=center;verticalAlign=middle;whiteSpace=wrap;rounded=0;fontSize=12;fontColor=#000000;" parent="N0K_ZF6IA8gVX9-kvT1c-1" vertex="1">
          <mxGeometry x="847.5" y="890" width="100" height="20" as="geometry" />
        </mxCell>
        <mxCell id="N0K_ZF6IA8gVX9-kvT1c-62" value="페이지 사용" style="text;html=1;strokeColor=none;fillColor=none;align=center;verticalAlign=middle;whiteSpace=wrap;rounded=0;fontSize=12;fontColor=#000000;" parent="N0K_ZF6IA8gVX9-kvT1c-1" vertex="1">
          <mxGeometry x="1120" y="890" width="100" height="20" as="geometry" />
        </mxCell>
        <mxCell id="N0K_ZF6IA8gVX9-kvT1c-63" value="swappiness=0" style="text;html=1;strokeColor=none;fillColor=none;align=center;verticalAlign=middle;whiteSpace=wrap;rounded=0;fontSize=12;fontColor=#000000;" parent="N0K_ZF6IA8gVX9-kvT1c-1" vertex="1">
          <mxGeometry x="980" y="1055" width="40" height="20" as="geometry" />
        </mxCell>
        <mxCell id="N0K_ZF6IA8gVX9-kvT1c-64" value="swappiness=1" style="text;html=1;strokeColor=none;fillColor=none;align=center;verticalAlign=middle;whiteSpace=wrap;rounded=0;fontSize=12;fontColor=#000000;" parent="N0K_ZF6IA8gVX9-kvT1c-1" vertex="1">
          <mxGeometry x="1260" y="1055" width="40" height="20" as="geometry" />
        </mxCell>
        <mxCell id="N0K_ZF6IA8gVX9-kvT1c-66" value="" style="curved=1;endArrow=none;html=1;dashed=1;fontSize=12;fontColor=#000000;strokeWidth=1;edgeStyle=orthogonalEdgeStyle;exitX=1;exitY=0.5;exitDx=0;exitDy=0;entryX=1;entryY=0.5;entryDx=0;entryDy=0;startArrow=classic;startFill=1;endFill=0;" parent="N0K_ZF6IA8gVX9-kvT1c-1" source="N0K_ZF6IA8gVX9-kvT1c-56" target="N0K_ZF6IA8gVX9-kvT1c-57" edge="1">
          <mxGeometry width="50" height="50" relative="1" as="geometry">
            <mxPoint x="950" y="950" as="sourcePoint" />
            <mxPoint x="1000" y="900" as="targetPoint" />
            <Array as="points">
              <mxPoint x="980" y="995" />
              <mxPoint x="980" y="935" />
            </Array>
          </mxGeometry>
        </mxCell>
        <mxCell id="N0K_ZF6IA8gVX9-kvT1c-67" value="" style="curved=1;endArrow=classic;html=1;dashed=1;fontSize=12;fontColor=#000000;strokeWidth=1;edgeStyle=orthogonalEdgeStyle;exitX=1;exitY=0.5;exitDx=0;exitDy=0;entryX=1;entryY=0.5;entryDx=0;entryDy=0;" parent="N0K_ZF6IA8gVX9-kvT1c-1" edge="1">
          <mxGeometry width="50" height="50" relative="1" as="geometry">
            <mxPoint x="1235" y="1000" as="sourcePoint" />
            <mxPoint x="1235" y="940" as="targetPoint" />
            <Array as="points">
              <mxPoint x="1260" y="1000" />
              <mxPoint x="1260" y="940" />
            </Array>
          </mxGeometry>
        </mxCell>
        <mxCell id="kCp7uX6QP3SfR9U46jju-0" value="" style="rounded=0;whiteSpace=wrap;html=1;fontSize=12;strokeWidth=1;align=center;fillColor=#f5f5f5;strokeColor=#666666;fontColor=#333333;" vertex="1" parent="N0K_ZF6IA8gVX9-kvT1c-1">
          <mxGeometry x="880" y="65" width="320" height="290" as="geometry" />
        </mxCell>
        <mxCell id="kCp7uX6QP3SfR9U46jju-1" value="Networking" style="rounded=0;whiteSpace=wrap;html=1;fontSize=12;fontColor=#000000;strokeWidth=1;align=center;" vertex="1" parent="N0K_ZF6IA8gVX9-kvT1c-1">
          <mxGeometry x="920" y="105" width="250" height="30" as="geometry" />
        </mxCell>
        <mxCell id="kCp7uX6QP3SfR9U46jju-2" value="kubernetes API" style="rounded=0;whiteSpace=wrap;html=1;fontSize=12;fontColor=#000000;strokeWidth=1;align=center;" vertex="1" parent="N0K_ZF6IA8gVX9-kvT1c-1">
          <mxGeometry x="920" y="155" width="250" height="30" as="geometry" />
        </mxCell>
        <mxCell id="kCp7uX6QP3SfR9U46jju-3" value="runtime" style="rounded=0;whiteSpace=wrap;html=1;fontSize=12;fontColor=#000000;strokeWidth=1;align=center;" vertex="1" parent="N0K_ZF6IA8gVX9-kvT1c-1">
          <mxGeometry x="920" y="205" width="250" height="30" as="geometry" />
        </mxCell>
        <mxCell id="kCp7uX6QP3SfR9U46jju-5" value="&lt;h1&gt;Work Node&lt;/h1&gt;&lt;div&gt;실 프로그램 및 프로세스가 동작하는 가상화 서버 혹은 장비.&lt;br&gt;&lt;/div&gt;" style="text;html=1;strokeColor=none;fillColor=none;spacing=5;spacingTop=-20;whiteSpace=wrap;overflow=hidden;rounded=0;" vertex="1" parent="N0K_ZF6IA8gVX9-kvT1c-1">
          <mxGeometry x="920" y="245" width="190" height="120" as="geometry" />
        </mxCell>
        <mxCell id="Suzdd08cn_2W4VR-_FTx-11" style="edgeStyle=orthogonalEdgeStyle;rounded=0;orthogonalLoop=1;jettySize=auto;html=1;exitX=1;exitY=0.5;exitDx=0;exitDy=0;entryX=0;entryY=0.5;entryDx=0;entryDy=0;" edge="1" parent="N0K_ZF6IA8gVX9-kvT1c-1" source="Suzdd08cn_2W4VR-_FTx-0" target="Suzdd08cn_2W4VR-_FTx-10">
          <mxGeometry relative="1" as="geometry" />
        </mxCell>
        <mxCell id="Suzdd08cn_2W4VR-_FTx-0" value="" style="rounded=0;whiteSpace=wrap;html=1;fontSize=12;strokeWidth=1;align=center;fillColor=#f5f5f5;strokeColor=#666666;fontColor=#333333;" vertex="1" parent="N0K_ZF6IA8gVX9-kvT1c-1">
          <mxGeometry x="760" y="570" width="320" height="150" as="geometry" />
        </mxCell>
        <mxCell id="Suzdd08cn_2W4VR-_FTx-13" style="edgeStyle=orthogonalEdgeStyle;rounded=0;orthogonalLoop=1;jettySize=auto;html=1;exitX=0.5;exitY=1;exitDx=0;exitDy=0;" edge="1" parent="N0K_ZF6IA8gVX9-kvT1c-1" source="Suzdd08cn_2W4VR-_FTx-1" target="Suzdd08cn_2W4VR-_FTx-2">
          <mxGeometry relative="1" as="geometry" />
        </mxCell>
        <mxCell id="Suzdd08cn_2W4VR-_FTx-1" value="&lt;div&gt;Service IP(VIP)&lt;/div&gt;&lt;div&gt;IPtables/nftables&lt;br&gt;&lt;/div&gt;" style="rounded=0;whiteSpace=wrap;html=1;fontSize=12;fontColor=#000000;strokeWidth=1;align=center;" vertex="1" parent="N0K_ZF6IA8gVX9-kvT1c-1">
          <mxGeometry x="790" y="590" width="120" height="30" as="geometry" />
        </mxCell>
        <mxCell id="Suzdd08cn_2W4VR-_FTx-14" style="edgeStyle=orthogonalEdgeStyle;rounded=0;orthogonalLoop=1;jettySize=auto;html=1;exitX=1;exitY=0.5;exitDx=0;exitDy=0;entryX=0;entryY=0.5;entryDx=0;entryDy=0;" edge="1" parent="N0K_ZF6IA8gVX9-kvT1c-1" source="Suzdd08cn_2W4VR-_FTx-2" target="Suzdd08cn_2W4VR-_FTx-3">
          <mxGeometry relative="1" as="geometry" />
        </mxCell>
        <mxCell id="Suzdd08cn_2W4VR-_FTx-2" value="table rules" style="rounded=0;whiteSpace=wrap;html=1;fontSize=12;fontColor=#000000;strokeWidth=1;align=center;" vertex="1" parent="N0K_ZF6IA8gVX9-kvT1c-1">
          <mxGeometry x="790" y="655" width="120" height="30" as="geometry" />
        </mxCell>
        <mxCell id="Suzdd08cn_2W4VR-_FTx-3" value="kube-proxy" style="rounded=0;whiteSpace=wrap;html=1;fontSize=12;fontColor=#000000;strokeWidth=1;align=center;" vertex="1" parent="N0K_ZF6IA8gVX9-kvT1c-1">
          <mxGeometry x="940" y="655" width="120" height="30" as="geometry" />
        </mxCell>
        <mxCell id="Suzdd08cn_2W4VR-_FTx-4" value="" style="rounded=0;whiteSpace=wrap;html=1;fontSize=12;strokeWidth=1;align=center;fillColor=#f5f5f5;strokeColor=#666666;fontColor=#333333;" vertex="1" parent="N0K_ZF6IA8gVX9-kvT1c-1">
          <mxGeometry x="1365" y="570" width="320" height="150" as="geometry" />
        </mxCell>
        <mxCell id="Suzdd08cn_2W4VR-_FTx-5" value="POD" style="rounded=0;whiteSpace=wrap;html=1;fontSize=12;fontColor=#000000;strokeWidth=1;align=center;" vertex="1" parent="N0K_ZF6IA8gVX9-kvT1c-1">
          <mxGeometry x="1385" y="600" width="120" height="30" as="geometry" />
        </mxCell>
        <mxCell id="Suzdd08cn_2W4VR-_FTx-6" value="kubelet" style="rounded=0;whiteSpace=wrap;html=1;fontSize=12;fontColor=#000000;strokeWidth=1;align=center;" vertex="1" parent="N0K_ZF6IA8gVX9-kvT1c-1">
          <mxGeometry x="1385" y="665" width="120" height="30" as="geometry" />
        </mxCell>
        <mxCell id="Suzdd08cn_2W4VR-_FTx-8" value="" style="ellipse;whiteSpace=wrap;html=1;aspect=fixed;fontSize=12;fontColor=#000000;strokeWidth=1;align=center;" vertex="1" parent="N0K_ZF6IA8gVX9-kvT1c-1">
          <mxGeometry x="1545" y="582.5" width="125" height="125" as="geometry" />
        </mxCell>
        <mxCell id="Suzdd08cn_2W4VR-_FTx-9" value="RUNTIME" style="rounded=1;whiteSpace=wrap;html=1;fontSize=12;fontColor=#333333;strokeWidth=1;align=center;fillColor=#f5f5f5;strokeColor=#666666;" vertex="1" parent="N0K_ZF6IA8gVX9-kvT1c-1">
          <mxGeometry x="1567.5" y="630" width="80" height="30" as="geometry" />
        </mxCell>
        <mxCell id="Suzdd08cn_2W4VR-_FTx-23" style="edgeStyle=orthogonalEdgeStyle;rounded=0;orthogonalLoop=1;jettySize=auto;html=1;exitX=1;exitY=0.5;exitDx=0;exitDy=0;entryX=0;entryY=0.5;entryDx=0;entryDy=0;dashed=1;dashPattern=1 1;" edge="1" parent="N0K_ZF6IA8gVX9-kvT1c-1" source="Suzdd08cn_2W4VR-_FTx-10" target="Suzdd08cn_2W4VR-_FTx-6">
          <mxGeometry relative="1" as="geometry" />
        </mxCell>
        <mxCell id="Suzdd08cn_2W4VR-_FTx-10" value="API Server" style="rhombus;whiteSpace=wrap;html=1;" vertex="1" parent="N0K_ZF6IA8gVX9-kvT1c-1">
          <mxGeometry x="1150" y="580" width="130" height="130" as="geometry" />
        </mxCell>
        <mxCell id="Suzdd08cn_2W4VR-_FTx-18" value="" style="endArrow=classic;html=1;exitX=0.5;exitY=0;exitDx=0;exitDy=0;entryX=0.5;entryY=1;entryDx=0;entryDy=0;" edge="1" parent="N0K_ZF6IA8gVX9-kvT1c-1" source="Suzdd08cn_2W4VR-_FTx-6" target="Suzdd08cn_2W4VR-_FTx-5">
          <mxGeometry width="50" height="50" relative="1" as="geometry">
            <mxPoint x="1225" y="680" as="sourcePoint" />
            <mxPoint x="1275" y="630" as="targetPoint" />
          </mxGeometry>
        </mxCell>
        <mxCell id="Suzdd08cn_2W4VR-_FTx-19" value="" style="endArrow=none;dashed=1;html=1;entryX=0;entryY=0.5;entryDx=0;entryDy=0;exitX=1;exitY=0.5;exitDx=0;exitDy=0;" edge="1" parent="N0K_ZF6IA8gVX9-kvT1c-1" source="Suzdd08cn_2W4VR-_FTx-5" target="Suzdd08cn_2W4VR-_FTx-9">
          <mxGeometry width="50" height="50" relative="1" as="geometry">
            <mxPoint x="1225" y="680" as="sourcePoint" />
            <mxPoint x="1275" y="630" as="targetPoint" />
          </mxGeometry>
        </mxCell>
        <mxCell id="mDEOQl1A66A5PjOxQZ25-5" style="edgeStyle=orthogonalEdgeStyle;curved=1;rounded=0;orthogonalLoop=1;jettySize=auto;html=1;exitX=0;exitY=0.5;exitDx=0;exitDy=0;entryX=0.5;entryY=0;entryDx=0;entryDy=0;dashed=1;dashPattern=1 1;startArrow=none;startFill=0;" edge="1" parent="N0K_ZF6IA8gVX9-kvT1c-1" source="mDEOQl1A66A5PjOxQZ25-4" target="N0K_ZF6IA8gVX9-kvT1c-57">
          <mxGeometry relative="1" as="geometry" />
        </mxCell>
        <mxCell id="mDEOQl1A66A5PjOxQZ25-8" style="edgeStyle=orthogonalEdgeStyle;curved=1;rounded=0;orthogonalLoop=1;jettySize=auto;html=1;exitX=1;exitY=0.5;exitDx=0;exitDy=0;dashed=1;dashPattern=1 1;startArrow=none;startFill=0;endArrow=classic;endFill=1;" edge="1" parent="N0K_ZF6IA8gVX9-kvT1c-1" source="mDEOQl1A66A5PjOxQZ25-4" target="N0K_ZF6IA8gVX9-kvT1c-60">
          <mxGeometry relative="1" as="geometry" />
        </mxCell>
        <mxCell id="mDEOQl1A66A5PjOxQZ25-4" value="APP" style="ellipse;whiteSpace=wrap;html=1;aspect=fixed;" vertex="1" parent="N0K_ZF6IA8gVX9-kvT1c-1">
          <mxGeometry x="1000" y="820" width="70" height="70" as="geometry" />
        </mxCell>
        <mxCell id="mDEOQl1A66A5PjOxQZ25-7" value="페이지 사용하지 않음" style="text;html=1;strokeColor=none;fillColor=none;align=center;verticalAlign=middle;whiteSpace=wrap;rounded=0;fontStyle=1" vertex="1" parent="N0K_ZF6IA8gVX9-kvT1c-1">
          <mxGeometry x="919" y="954" width="130" height="20" as="geometry" />
        </mxCell>
        <mxCell id="mDEOQl1A66A5PjOxQZ25-9" value="role" style="ellipse;whiteSpace=wrap;html=1;aspect=fixed;" vertex="1" parent="N0K_ZF6IA8gVX9-kvT1c-1">
          <mxGeometry x="1567.5" y="820" width="80" height="80" as="geometry" />
        </mxCell>
        <mxCell id="mDEOQl1A66A5PjOxQZ25-10" value="user" style="ellipse;whiteSpace=wrap;html=1;aspect=fixed;" vertex="1" parent="N0K_ZF6IA8gVX9-kvT1c-1">
          <mxGeometry x="1465" y="960" width="80" height="80" as="geometry" />
        </mxCell>
        <mxCell id="mDEOQl1A66A5PjOxQZ25-11" value="&lt;div&gt;namespace&lt;/div&gt;&lt;div&gt;(project)&lt;br&gt;&lt;/div&gt;" style="ellipse;whiteSpace=wrap;html=1;aspect=fixed;" vertex="1" parent="N0K_ZF6IA8gVX9-kvT1c-1">
          <mxGeometry x="1680" y="960" width="80" height="80" as="geometry" />
        </mxCell>
        <mxCell id="mDEOQl1A66A5PjOxQZ25-13" value="" style="endArrow=classic;startArrow=classic;html=1;dashed=1;dashPattern=1 1;" edge="1" parent="N0K_ZF6IA8gVX9-kvT1c-1" target="mDEOQl1A66A5PjOxQZ25-9">
          <mxGeometry width="50" height="50" relative="1" as="geometry">
            <mxPoint x="1520" y="970" as="sourcePoint" />
            <mxPoint x="1580" y="900" as="targetPoint" />
          </mxGeometry>
        </mxCell>
        <mxCell id="mDEOQl1A66A5PjOxQZ25-14" value="" style="endArrow=classic;startArrow=classic;html=1;dashed=1;dashPattern=1 1;" edge="1" parent="N0K_ZF6IA8gVX9-kvT1c-1" target="mDEOQl1A66A5PjOxQZ25-11">
          <mxGeometry width="50" height="50" relative="1" as="geometry">
            <mxPoint x="1550" y="1000" as="sourcePoint" />
            <mxPoint x="1640" y="990" as="targetPoint" />
          </mxGeometry>
        </mxCell>
        <mxCell id="mDEOQl1A66A5PjOxQZ25-15" value="" style="endArrow=classic;startArrow=classic;html=1;dashed=1;dashPattern=1 1;exitX=0.275;exitY=0.063;exitDx=0;exitDy=0;exitPerimeter=0;entryX=1;entryY=1;entryDx=0;entryDy=0;" edge="1" parent="N0K_ZF6IA8gVX9-kvT1c-1" source="mDEOQl1A66A5PjOxQZ25-11" target="mDEOQl1A66A5PjOxQZ25-9">
          <mxGeometry width="50" height="50" relative="1" as="geometry">
            <mxPoint x="1780" y="910" as="sourcePoint" />
            <mxPoint x="1830" y="860" as="targetPoint" />
          </mxGeometry>
        </mxCell>
        <mxCell id="mDEOQl1A66A5PjOxQZ25-32" style="edgeStyle=orthogonalEdgeStyle;curved=1;rounded=0;orthogonalLoop=1;jettySize=auto;html=1;exitX=0.5;exitY=1;exitDx=0;exitDy=0;entryX=0;entryY=0.5;entryDx=0;entryDy=0;dashed=1;dashPattern=1 1;startArrow=none;startFill=0;endArrow=none;endFill=0;" edge="1" parent="N0K_ZF6IA8gVX9-kvT1c-1" source="mDEOQl1A66A5PjOxQZ25-16" target="mDEOQl1A66A5PjOxQZ25-21">
          <mxGeometry relative="1" as="geometry" />
        </mxCell>
        <mxCell id="mDEOQl1A66A5PjOxQZ25-16" value="&lt;div&gt;Container&lt;/div&gt;&lt;div&gt;Registries&lt;br&gt;&lt;/div&gt;" style="rounded=0;whiteSpace=wrap;html=1;" vertex="1" parent="N0K_ZF6IA8gVX9-kvT1c-1">
          <mxGeometry x="2025" y="120" width="120" height="60" as="geometry" />
        </mxCell>
        <mxCell id="mDEOQl1A66A5PjOxQZ25-33" style="edgeStyle=orthogonalEdgeStyle;curved=1;rounded=0;orthogonalLoop=1;jettySize=auto;html=1;exitX=0.5;exitY=1;exitDx=0;exitDy=0;entryX=1;entryY=0.25;entryDx=0;entryDy=0;dashed=1;dashPattern=1 1;startArrow=none;startFill=0;endArrow=none;endFill=0;" edge="1" parent="N0K_ZF6IA8gVX9-kvT1c-1" source="mDEOQl1A66A5PjOxQZ25-17" target="mDEOQl1A66A5PjOxQZ25-21">
          <mxGeometry relative="1" as="geometry" />
        </mxCell>
        <mxCell id="mDEOQl1A66A5PjOxQZ25-17" value="&lt;div&gt;Container&lt;/div&gt;&lt;div&gt;Images&lt;br&gt;&lt;/div&gt;" style="rounded=0;whiteSpace=wrap;html=1;" vertex="1" parent="N0K_ZF6IA8gVX9-kvT1c-1">
          <mxGeometry x="2275" y="120" width="120" height="60" as="geometry" />
        </mxCell>
        <mxCell id="mDEOQl1A66A5PjOxQZ25-21" value="OCI&lt;br&gt;(Open Containers Intitiative OCI))" style="shape=document;whiteSpace=wrap;html=1;boundedLbl=1;" vertex="1" parent="N0K_ZF6IA8gVX9-kvT1c-1">
          <mxGeometry x="2145" y="220" width="120" height="80" as="geometry" />
        </mxCell>
        <mxCell id="mDEOQl1A66A5PjOxQZ25-36" style="edgeStyle=orthogonalEdgeStyle;curved=1;rounded=0;orthogonalLoop=1;jettySize=auto;html=1;exitX=0.5;exitY=1;exitDx=0;exitDy=0;entryX=0.5;entryY=0;entryDx=0;entryDy=0;dashed=1;dashPattern=1 1;startArrow=none;startFill=0;endArrow=none;endFill=0;" edge="1" parent="N0K_ZF6IA8gVX9-kvT1c-1" source="mDEOQl1A66A5PjOxQZ25-22" target="mDEOQl1A66A5PjOxQZ25-23">
          <mxGeometry relative="1" as="geometry" />
        </mxCell>
        <mxCell id="mDEOQl1A66A5PjOxQZ25-38" style="edgeStyle=orthogonalEdgeStyle;curved=1;rounded=0;orthogonalLoop=1;jettySize=auto;html=1;exitX=0.5;exitY=0;exitDx=0;exitDy=0;dashed=1;dashPattern=1 1;startArrow=none;startFill=0;endArrow=none;endFill=0;" edge="1" parent="N0K_ZF6IA8gVX9-kvT1c-1" source="mDEOQl1A66A5PjOxQZ25-22" target="mDEOQl1A66A5PjOxQZ25-21">
          <mxGeometry relative="1" as="geometry" />
        </mxCell>
        <mxCell id="mDEOQl1A66A5PjOxQZ25-22" value="CRI-O" style="rounded=0;whiteSpace=wrap;html=1;" vertex="1" parent="N0K_ZF6IA8gVX9-kvT1c-1">
          <mxGeometry x="2145" y="350" width="120" height="60" as="geometry" />
        </mxCell>
        <mxCell id="mDEOQl1A66A5PjOxQZ25-23" value="OCI&lt;br&gt;(Open Containers Intitiative OCI))" style="shape=document;whiteSpace=wrap;html=1;boundedLbl=1;" vertex="1" parent="N0K_ZF6IA8gVX9-kvT1c-1">
          <mxGeometry x="2145" y="460" width="120" height="80" as="geometry" />
        </mxCell>
        <mxCell id="mDEOQl1A66A5PjOxQZ25-37" style="edgeStyle=orthogonalEdgeStyle;curved=1;rounded=0;orthogonalLoop=1;jettySize=auto;html=1;exitX=0.5;exitY=0;exitDx=0;exitDy=0;dashed=1;dashPattern=1 1;startArrow=none;startFill=0;endArrow=none;endFill=0;" edge="1" parent="N0K_ZF6IA8gVX9-kvT1c-1" source="mDEOQl1A66A5PjOxQZ25-24" target="mDEOQl1A66A5PjOxQZ25-23">
          <mxGeometry relative="1" as="geometry" />
        </mxCell>
        <mxCell id="mDEOQl1A66A5PjOxQZ25-24" value="&lt;div&gt;Container&lt;/div&gt;&lt;div&gt;Hosts&lt;br&gt;&lt;/div&gt;" style="rounded=0;whiteSpace=wrap;html=1;" vertex="1" parent="N0K_ZF6IA8gVX9-kvT1c-1">
          <mxGeometry x="2145" y="590" width="120" height="60" as="geometry" />
        </mxCell>
        <mxCell id="mDEOQl1A66A5PjOxQZ25-29" style="edgeStyle=orthogonalEdgeStyle;curved=1;rounded=0;orthogonalLoop=1;jettySize=auto;html=1;exitX=1;exitY=0.5;exitDx=0;exitDy=0;entryX=0;entryY=0.5;entryDx=0;entryDy=0;dashed=1;dashPattern=1 1;startArrow=none;startFill=0;endArrow=none;endFill=0;" edge="1" parent="N0K_ZF6IA8gVX9-kvT1c-1" source="mDEOQl1A66A5PjOxQZ25-25" target="mDEOQl1A66A5PjOxQZ25-22">
          <mxGeometry relative="1" as="geometry" />
        </mxCell>
        <mxCell id="mDEOQl1A66A5PjOxQZ25-25" value="Container Runtime Interface(CRI)" style="shape=document;whiteSpace=wrap;html=1;boundedLbl=1;" vertex="1" parent="N0K_ZF6IA8gVX9-kvT1c-1">
          <mxGeometry x="1975" y="275" width="120" height="80" as="geometry" />
        </mxCell>
        <mxCell id="mDEOQl1A66A5PjOxQZ25-30" style="edgeStyle=orthogonalEdgeStyle;curved=1;rounded=0;orthogonalLoop=1;jettySize=auto;html=1;exitX=1;exitY=0.5;exitDx=0;exitDy=0;entryX=0;entryY=0.75;entryDx=0;entryDy=0;dashed=1;dashPattern=1 1;startArrow=none;startFill=0;endArrow=none;endFill=0;" edge="1" parent="N0K_ZF6IA8gVX9-kvT1c-1" source="mDEOQl1A66A5PjOxQZ25-26" target="mDEOQl1A66A5PjOxQZ25-22">
          <mxGeometry relative="1" as="geometry" />
        </mxCell>
        <mxCell id="mDEOQl1A66A5PjOxQZ25-26" value="Container Network Interface(CNI)" style="shape=document;whiteSpace=wrap;html=1;boundedLbl=1;" vertex="1" parent="N0K_ZF6IA8gVX9-kvT1c-1">
          <mxGeometry x="1975" y="420" width="120" height="80" as="geometry" />
        </mxCell>
        <mxCell id="mDEOQl1A66A5PjOxQZ25-28" style="edgeStyle=orthogonalEdgeStyle;curved=1;rounded=0;orthogonalLoop=1;jettySize=auto;html=1;exitX=1;exitY=0.5;exitDx=0;exitDy=0;entryX=0;entryY=0.5;entryDx=0;entryDy=0;dashed=1;dashPattern=1 1;startArrow=none;startFill=0;endArrow=none;endFill=0;" edge="1" parent="N0K_ZF6IA8gVX9-kvT1c-1" source="mDEOQl1A66A5PjOxQZ25-27" target="mDEOQl1A66A5PjOxQZ25-25">
          <mxGeometry relative="1" as="geometry" />
        </mxCell>
        <mxCell id="mDEOQl1A66A5PjOxQZ25-31" style="edgeStyle=orthogonalEdgeStyle;curved=1;rounded=0;orthogonalLoop=1;jettySize=auto;html=1;exitX=0.5;exitY=1;exitDx=0;exitDy=0;entryX=0;entryY=0.5;entryDx=0;entryDy=0;dashed=1;dashPattern=1 1;startArrow=none;startFill=0;endArrow=none;endFill=0;" edge="1" parent="N0K_ZF6IA8gVX9-kvT1c-1" source="mDEOQl1A66A5PjOxQZ25-27" target="mDEOQl1A66A5PjOxQZ25-26">
          <mxGeometry relative="1" as="geometry" />
        </mxCell>
        <mxCell id="mDEOQl1A66A5PjOxQZ25-27" value="Kubernetes" style="rounded=0;whiteSpace=wrap;html=1;" vertex="1" parent="N0K_ZF6IA8gVX9-kvT1c-1">
          <mxGeometry x="1790" y="285" width="120" height="60" as="geometry" />
        </mxCell>
        <mxCell id="mDEOQl1A66A5PjOxQZ25-42" value="" style="shape=image;verticalLabelPosition=bottom;labelBackgroundColor=#ffffff;verticalAlign=top;aspect=fixed;imageAspect=0;image=https://cdn2.iconfinder.com/data/icons/mixd/512/20_kubernetes-512.png;" vertex="1" parent="N0K_ZF6IA8gVX9-kvT1c-1">
          <mxGeometry x="1955" y="390" width="42" height="42" as="geometry" />
        </mxCell>
        <mxCell id="mDEOQl1A66A5PjOxQZ25-43" value="" style="shape=image;verticalLabelPosition=bottom;labelBackgroundColor=#ffffff;verticalAlign=top;aspect=fixed;imageAspect=0;image=https://www.opnfv.org/wp-content/uploads/sites/12/2017/01/logo_oci.png;" vertex="1" parent="N0K_ZF6IA8gVX9-kvT1c-1">
          <mxGeometry x="2145" y="165" width="130.61" height="80" as="geometry" />
        </mxCell>
        <mxCell id="mDEOQl1A66A5PjOxQZ25-44" value="" style="shape=image;verticalLabelPosition=bottom;labelBackgroundColor=#ffffff;verticalAlign=top;aspect=fixed;imageAspect=0;image=https://www.opnfv.org/wp-content/uploads/sites/12/2017/01/logo_oci.png;" vertex="1" parent="N0K_ZF6IA8gVX9-kvT1c-1">
          <mxGeometry x="2145" y="410" width="130.61" height="80" as="geometry" />
        </mxCell>
        <mxCell id="mDEOQl1A66A5PjOxQZ25-45" value="" style="shape=image;verticalLabelPosition=bottom;labelBackgroundColor=#ffffff;verticalAlign=top;aspect=fixed;imageAspect=0;image=https://cdn2.iconfinder.com/data/icons/mixd/512/20_kubernetes-512.png;" vertex="1" parent="N0K_ZF6IA8gVX9-kvT1c-1">
          <mxGeometry x="1955" y="245" width="42" height="42" as="geometry" />
        </mxCell>
      </root>
    </mxGraphModel>
  </diagram>
</mxfile>
